<svg class="hero__website-mockup--desktop" id="Layer_1" xmlns="http://www.w3.org/2000/svg" x="0px" y="0px" viewBox="0 0 181.3 249.7">
  <style>
    .st0{fill:#343434}.st1{fill:#0078AD}.st2{fill:#00AD8F}
  </style>
  <path id="nav" class="st0" d="M171.7 6.2h8.9v1.4h-8.9zM130.6 6.2h8.9v1.4h-8.9zM151.2 6.2h8.9v1.4h-8.9zM110.1 6.2h8.9v1.4h-8.9z"/>
  <path id="logo" class="st1" d="M6.8 0c3.8 0 6.8 3.1 6.8 6.8 0 3.8-3.1 6.8-6.8 6.8-3.7.1-6.8-3-6.8-6.8C0 3.1 3.1 0 6.8 0z"/>
  <path id="hero" class="st2" d="M3 23.3h175.2c1.7 0 3 1.3 3 3v66.5c0 1.7-1.3 3-3 3H3c-1.7 0-3-1.3-3-3V26.3c0-1.7 1.3-3 3-3z"/>
  <path id="content1-image" class="st1" d="M3 112.9h78.8c1.7 0 3 1.3 3 3v45.3c0 1.7-1.3 3-3 3H3c-1.7 0-3-1.3-3-3v-45.3c0-1.7 1.3-3 3-3z"/>
  <path id="content1-text" class="st0" d="M97.4 125.2h82.8c.6 0 1 .4 1 1v1.4c0 .6-.4 1-1 1H97.4c-.6 0-1-.4-1-1v-1.4c0-.6.5-1 1-1zM97.4 112.9h57.5c.6 0 1 .4 1 1v4.8c0 .6-.4 1-1 1H97.4c-.6 0-1-.4-1-1v-4.8c0-.6.5-1 1-1zM97.4 143h82.8c.6 0 1 .4 1 1v1.4c0 .6-.4 1-1 1H97.4c-.6 0-1-.4-1-1V144c0-.6.5-1 1-1zM97.4 134.1h82.8c.6 0 1 .4 1 1v1.4c0 .6-.4 1-1 1H97.4c-.6 0-1-.4-1-1v-1.4c0-.6.5-1 1-1zM97.4 160.7h82.8c.6 0 1 .4 1 1v1.4c0 .6-.4 1-1 1H97.4c-.6 0-1-.4-1-1v-1.4c0-.5.5-1 1-1zM97.4 151.8h82.8c.6 0 1 .4 1 1v1.4c0 .6-.4 1-1 1H97.4c-.6 0-1-.4-1-1v-1.4c0-.5.5-1 1-1z"/>
  <path id="content2-btn" class="st1" d="M67.3 205.2h32.2c.6 0 1 .4 1 1v4.8c0 .6-.4 1-1 1H67.3c-.6 0-1-.4-1-1v-4.8c0-.6.5-1 1-1z"/>
  <path id="content2-text" class="st0" d="M16.8 198.4h82.8c.6 0 1 .4 1 1v1.4c0 .6-.4 1-1 1H16.8c-.6 0-1-.4-1-1v-1.4c0-.6.5-1 1-1zM1 188.8h98.7c.6 0 1 .4 1 1v4.8c0 .6-.4 1-1 1H1c-.6 0-1-.4-1-1v-4.8c0-.6.4-1 1-1z"/>
  <path id="content2-image" class="st2" d="M138.8 181.3c10.6 0 19.2 8.6 19.2 19.2s-8.6 19.2-19.2 19.2-19.2-8.6-19.2-19.2c.1-10.7 8.7-19.2 19.2-19.2zM3 236h175.2c1.7 0 3 1.3 3 3v7.7c0 1.7-1.3 3-3 3H3c-1.7 0-3-1.3-3-3V239c0-1.7 1.3-3 3-3z"/>
</svg>
