<svg xmlns="http://www.w3.org/2000/svg" xmlns:xlink="http://www.w3.org/1999/xlink" width="1246.121" height="1106.12" viewBox="0 0 1246.121 1106.12">
  <defs>
    <linearGradient id="linear-gradient" x1="3.293" y1="11.963" x2="4.263" y2="11.963" gradientUnits="objectBoundingBox">
      <stop offset="0" stop-color="#00537e"/>
      <stop offset="1" stop-color="#3aa17e"/>
    </linearGradient>
  </defs>
  <g id="Group_144" data-name="Group 144" transform="translate(194.214 572.863) rotate(-30)" opacity="0.05">
    <path id="Path_258" data-name="Path 258" d="M429.178-14.238C548.166-5.241,795.6-156,795.524,54.513S627.7,445.1,400.621,461.436-184.65,328.541-133.205,127.02,126.423-171.693,238.158-119.6,374.791-18.352,429.178-14.238Z" transform="translate(52.629 32.686)" opacity="0.8" fill="url(#linear-gradient)"/>
    <g id="Group_143" data-name="Group 143" transform="translate(-144.819 -137.594)">
      <path id="Path_259" data-name="Path 259" d="M438.672,532.142H434.2V-25.645h4.472Zm-27.574,0h-4.472V-44.677H411.1Zm-27.574-1.1h-4.472V-63.969h4.472Zm82.721-.277h-4.472v-541.8h4.472Zm-110.294-1.932h-4.472v-611h4.472Zm137.868-.823h-4.472V-4.144h4.472Zm-165.433-2.486h-4.472V-98.438h4.472Zm193.006-1.932h-4.472V-3.867h4.472Zm-220.58-2.477h-4.472V-113.052h4.472ZM548.966,517.8h-4.472V-6.9h4.472Zm-275.727-1.932h-4.472V-125.735h4.472Zm303.3-5.509h-4.472V-11.585h4.472Zm-330.874-.832h-4.472V-134.285h4.472Zm-27.574-6.9H213.62V-137.317h4.472ZM604.1,500.981h-4.472V-17.649H604.1Zm-413.586-6.618h-4.472V-137.594h4.472Zm441.16-4.687h-4.472V-24.268h4.472Zm-468.725-4.132h-4.472v-620.1h4.472Zm496.3-9.1H654.78V-31.163h4.472Zm-523.872-.832h-4.472V-128.489h4.472Zm-27.574-11.3h-4.472V-119.671h4.472Zm579.019-3.586h-4.472V-37.5h4.472ZM80.233,451.907H75.761v-560h4.472ZM714.4,442.8h-4.472V-43.845H714.4Zm-661.74-4.955H48.187v-531.6h4.472ZM25.086,422.4H20.614V-76.383h4.472Zm716.887-.823H737.5V-48.809h4.472ZM-2.488,405.033H-6.96V-55.428h4.472Zm772.025-8h-4.472V-52.118h4.472Zm-799.59-12.128h-4.472V-30.609h4.472Zm827.164-16.823h-4.472V-53.5h4.472Zm-854.737-6.064H-62.1V0h4.472Zm882.311-28.674h-4.472V-51.018h4.472Zm-909.885,0h-4.472V37.766H-85.2Zm-27.574-37.5h-4.472V88.5h4.472Zm965.032-6.341h-4.472V-43.023h4.472ZM879.832,230.5H875.36V-23.445h4.472ZM-140.347,218.368h-4.472v-38.6h4.472ZM907.405,106.419h-4.472V47.694h4.472Z" transform="translate(144.819 137.594)" fill="#f8f8f8"/>
    </g>
  </g>
</svg>
