<svg xmlns="http://www.w3.org/2000/svg" width="592.306" height="483.15" viewBox="0 0 592.306 483.15">
  <g id="Wireframe" transform="translate(-39 -52)">
    <g id="Background-Shape-2" transform="translate(39 325.785)" opacity="0.6">
      <path id="Background-Shape" d="M592.047,130.766c8.634,58.447-200.752,96.57-380.976,69.965S-51.83,70.23,34.17,14.87,583.414,72.319,592.047,130.766Z" transform="translate(0 0)" fill="#dde3e9" fill-rule="evenodd"/>
    </g>
    <g id="Mobile3" transform="translate(127.577 73.473)">
      <rect id="Container" width="142.261" height="270.206" rx="8" fill="#f2f2f2"/>
      <circle id="Touch" cx="13.421" cy="13.421" r="13.421" transform="translate(57.262 226.365)" fill="#fff"/>
      <g id="Camera" transform="translate(57.262 14.316)">
        <circle id="Lens" cx="1.789" cy="1.789" r="1.789" fill="#fff"/>
        <rect id="Sensor" width="18.789" height="3.579" rx="1.789" transform="translate(8.052)" fill="#fff"/>
      </g>
      <g id="Rows" transform="translate(12.526 25.052)">
        <g id="Row">
          <rect id="Background" width="117.209" height="48.315" rx="4" fill="#fff"/>
          <g id="Text" transform="translate(34.894 14.494)">
            <rect id="Name" width="65.315" height="7.247" rx="3" fill="#dde3e9"/>
            <rect id="Name-2" data-name="Name" width="43.841" height="7.247" rx="3" transform="translate(0 12.079)" fill="#dde3e9"/>
          </g>
          <circle id="Avatar" cx="10.737" cy="10.737" r="10.737" transform="translate(8.052 13.421)" fill="#c5cfd6"/>
        </g>
        <g id="Row-2" data-name="Row" transform="translate(0 55.473)">
          <rect id="Background-2" data-name="Background" width="117.209" height="37.578" rx="4" fill="#fff"/>
          <g id="Text-2" data-name="Text" transform="translate(34.894 11.273)">
            <rect id="Name-3" data-name="Name" width="65.315" height="5.637" rx="2.818" fill="#dde3e9"/>
            <rect id="Name-4" data-name="Name" width="43.841" height="5.637" rx="2.818" transform="translate(0 9.395)" fill="#dde3e9"/>
          </g>
          <circle id="Avatar-2" data-name="Avatar" cx="10.737" cy="10.737" r="10.737" transform="translate(8.052 8.052)" fill="#c5cfd6"/>
        </g>
        <g id="Row-3" data-name="Row" transform="translate(0 100.209)">
          <rect id="Background-3" data-name="Background" width="117.209" height="37.578" rx="4" fill="#fff"/>
          <g id="Text-3" data-name="Text" transform="translate(34.894 11.273)">
            <rect id="Name-5" data-name="Name" width="65.315" height="5.637" rx="2.818" fill="#dde3e9"/>
            <rect id="Name-6" data-name="Name" width="43.841" height="5.637" rx="2.818" transform="translate(0 9.395)" fill="#dde3e9"/>
          </g>
          <circle id="Avatar-3" data-name="Avatar" cx="10.737" cy="10.737" r="10.737" transform="translate(8.052 8.052)" fill="#afb9c5"/>
        </g>
        <g id="Row-4" data-name="Row" transform="translate(0 144.945)">
          <rect id="Background-4" data-name="Background" width="117.209" height="37.578" rx="4" fill="#fff"/>
          <g id="Text-4" data-name="Text" transform="translate(34.894 11.273)">
            <rect id="Name-7" data-name="Name" width="65.315" height="5.637" rx="2.818" fill="#dde3e9"/>
            <rect id="Name-8" data-name="Name" width="43.841" height="5.637" rx="2.818" transform="translate(0 9.395)" fill="#dde3e9"/>
          </g>
          <circle id="Avatar-4" data-name="Avatar" cx="10.737" cy="10.737" r="10.737" transform="translate(8.052 8.052)" fill="#c5cfd6"/>
        </g>
      </g>
    </g>
    <g id="Mobile3-2" data-name="Mobile3" transform="translate(186.629 96.736)">
      <rect id="Container-2" data-name="Container" width="142.261" height="270.206" rx="8" transform="translate(0)" fill="#dde3e9"/>
      <circle id="Touch-2" data-name="Touch" cx="13.421" cy="13.421" r="13.421" transform="translate(57.262 226.365)" fill="#fff"/>
      <g id="Camera-2" data-name="Camera" transform="translate(57.262 14.316)">
        <circle id="Lens-2" data-name="Lens" cx="1.789" cy="1.789" r="1.789" fill="#fff"/>
        <rect id="Sensor-2" data-name="Sensor" width="18.789" height="3.579" rx="1.789" transform="translate(8.052)" fill="#fff"/>
      </g>
      <g id="Rows-2" data-name="Rows" transform="translate(12.526 25.052)">
        <g id="Row-5" data-name="Row">
          <rect id="Container-3" data-name="Container" width="117.209" height="48.315" rx="4" fill="#fff"/>
          <g id="Text-Stuff" transform="translate(8.052 14.494)">
            <rect id="Label" width="65.315" height="7.247" rx="3" fill="#dde3e9"/>
            <rect id="Label-2" data-name="Label" width="43.841" height="7.247" rx="3" transform="translate(0 12.079)" fill="#dde3e9"/>
          </g>
          <g id="Check" transform="translate(98.419 17.894)">
            <circle id="Background-5" data-name="Background" cx="6.263" cy="6.263" r="6.263" fill="#dde3e9"/>
            <circle id="Indicator" cx="2.684" cy="2.684" r="2.684" transform="translate(3.579 3.579)" fill="#f2f2f2"/>
          </g>
        </g>
        <g id="Row-6" data-name="Row" transform="translate(0 55.473)">
          <rect id="Background-6" data-name="Background" width="117.209" height="37.578" rx="4" fill="#fff"/>
          <g id="Text-5" data-name="Text" transform="translate(34.894 11.273)">
            <rect id="Name-9" data-name="Name" width="65.315" height="5.637" rx="2.818" fill="#dde3e9"/>
            <rect id="Name-10" data-name="Name" width="43.841" height="5.637" rx="2.818" transform="translate(0 9.395)" fill="#dde3e9"/>
          </g>
          <circle id="Avatar-5" data-name="Avatar" cx="10.737" cy="10.737" r="10.737" transform="translate(8.052 8.052)" fill="#c5cfd6"/>
        </g>
        <g id="Row-7" data-name="Row" transform="translate(0 100.209)">
          <rect id="Container-4" data-name="Container" width="117.209" height="37.578" rx="4" fill="#fff"/>
          <g id="Text-Stuff-2" data-name="Text-Stuff" transform="translate(8.052 11.273)">
            <rect id="Label-3" data-name="Label" width="65.315" height="5.637" rx="2.818" fill="#dde3e9"/>
            <rect id="Label-4" data-name="Label" width="43.841" height="5.637" rx="2.818" transform="translate(0 9.395)" fill="#afb9c5"/>
          </g>
          <g id="Check-2" data-name="Check" transform="translate(98.419 12.526)">
            <circle id="Background-7" data-name="Background" cx="6.263" cy="6.263" r="6.263" fill="#dde3e9"/>
            <circle id="Indicator-2" data-name="Indicator" cx="2.684" cy="2.684" r="2.684" transform="translate(3.579 3.579)" fill="#f2f2f2"/>
          </g>
        </g>
        <g id="Row-8" data-name="Row" transform="translate(0 144.945)">
          <rect id="Background-8" data-name="Background" width="117.209" height="37.578" rx="4" fill="#fff"/>
          <g id="Text-6" data-name="Text" transform="translate(34.894 11.273)">
            <rect id="Name-11" data-name="Name" width="65.315" height="5.637" rx="2.818" fill="#dde3e9"/>
            <rect id="Name-12" data-name="Name" width="43.841" height="5.637" rx="2.818" transform="translate(0 9.395)" fill="#dde3e9"/>
          </g>
          <circle id="Avatar-6" data-name="Avatar" cx="10.737" cy="10.737" r="10.737" transform="translate(8.052 8.052)" fill="#c5cfd6"/>
        </g>
      </g>
    </g>
    <g id="Web" transform="translate(245.681 119.104)">
      <rect id="Container-5" data-name="Container" width="299.732" height="309.574" rx="8" fill="#f2f2f2"/>
      <rect id="Background-9" data-name="Background" width="62.631" height="72.472" rx="8" transform="translate(222.786 38.473)" fill="#fff"/>
      <g id="Profile-Info" transform="translate(231.733 51.894)">
        <circle id="Avatar-7" data-name="Avatar" cx="14.316" cy="14.316" r="14.316" transform="translate(8.052)" fill="#dde3e9"/>
        <rect id="Name-13" data-name="Name" width="44.736" height="5.368" rx="2.684" transform="translate(0 32.21)" fill="#dde3e9"/>
        <rect id="Name-14" data-name="Name" width="30.421" height="5.368" rx="2.684" transform="translate(7.158 41.157)" fill="#dde3e9"/>
      </g>
      <path id="Header" d="M7.158,0H292.574a7.158,7.158,0,0,1,7.158,7.158v17H0v-17A7.158,7.158,0,0,1,7.158,0Z" transform="translate(0 0)" fill="#c5cfd6" fill-rule="evenodd"/>
      <g id="Buttons" transform="translate(8.052 8.947)">
        <circle id="buttons-2" data-name="buttons" cx="3.579" cy="3.579" r="3.579" fill="#f2f2f2"/>
        <circle id="buttons-3" data-name="buttons" cx="3.579" cy="3.579" r="3.579" transform="translate(10.737)" fill="#f2f2f2"/>
        <circle id="buttons-4" data-name="buttons" cx="3.579" cy="3.579" r="3.579" transform="translate(21.473)" fill="#f2f2f2"/>
      </g>
      <g id="Components" transform="translate(222.786 118.103)">
        <rect id="Background-10" data-name="Background" width="62.631" height="173.576" rx="8" fill="#fff"/>
        <g id="Rows-3" data-name="Rows" transform="translate(16.105 16.105)">
          <rect id="Data" width="30.421" height="23.263" rx="4" fill="#dde3e9"/>
          <rect id="Data-2" data-name="Data" width="30.421" height="22.368" rx="4" transform="translate(0 30.421)" fill="#afb9c5"/>
          <rect id="Data-3" data-name="Data" width="30.421" height="22.368" rx="4" transform="translate(0 59.946)" fill="#dde3e9"/>
          <rect id="Data-4" data-name="Data" width="30.421" height="22.368" rx="4" transform="translate(0 118.998)" fill="#dde3e9"/>
          <rect id="Data-5" data-name="Data" width="30.421" height="22.368" rx="4" transform="translate(0 89.472)" fill="#c5cfd6"/>
        </g>
      </g>
      <g id="Rows-4" data-name="Rows" transform="translate(14.316 39.368)">
        <g id="Row-9" data-name="Row">
          <rect id="Container-6" data-name="Container" width="201.312" height="42.052" rx="4" fill="#fff"/>
          <g id="Text-Stuff-3" data-name="Text-Stuff" transform="translate(8.052 12.616)">
            <rect id="Label-5" data-name="Label" width="149.419" height="6.308" rx="3" fill="#dde3e9"/>
            <rect id="Label-6" data-name="Label" width="100.295" height="6.308" rx="3" transform="translate(0 10.513)" fill="#dde3e9"/>
          </g>
          <g id="Check-3" data-name="Check" transform="translate(173.535 14.763)">
            <circle id="Background-11" data-name="Background" cx="6.263" cy="6.263" r="6.263" fill="#dde3e9"/>
            <circle id="Indicator-3" data-name="Indicator" cx="2.684" cy="2.684" r="2.684" transform="translate(3.579 3.579)" fill="#f2f2f2"/>
          </g>
        </g>
        <g id="Row-10" data-name="Row" transform="translate(0 49.21)">
          <rect id="Container-7" data-name="Container" width="201.312" height="34.894" rx="4" fill="#fff"/>
          <g id="Text-Stuff-4" data-name="Text-Stuff" transform="translate(8.052 10.468)">
            <rect id="Label-7" data-name="Label" width="149.419" height="5.234" rx="2.617" fill="#dde3e9"/>
            <rect id="Label-8" data-name="Label" width="100.295" height="5.234" rx="2.617" transform="translate(0 8.724)" fill="#dde3e9"/>
          </g>
          <g id="Check-4" data-name="Check" transform="translate(173.535 11.184)">
            <circle id="Background-12" data-name="Background" cx="6.263" cy="6.263" r="6.263" fill="#dde3e9"/>
            <circle id="Indicator-4" data-name="Indicator" cx="2.684" cy="2.684" r="2.684" transform="translate(3.579 3.579)" fill="#f2f2f2"/>
          </g>
        </g>
        <g id="Row-11" data-name="Row" transform="translate(0 91.262)">
          <rect id="Container-8" data-name="Container" width="201.312" height="34.894" rx="4" fill="#fff"/>
          <g id="Text-Stuff-5" data-name="Text-Stuff" transform="translate(8.052 10.468)">
            <rect id="Label-9" data-name="Label" width="149.419" height="5.234" rx="2.617" fill="#dde3e9"/>
            <rect id="Label-10" data-name="Label" width="100.295" height="5.234" rx="2.617" transform="translate(0 8.724)" fill="#dde3e9"/>
          </g>
          <g id="Check-5" data-name="Check" transform="translate(173.535 11.184)">
            <circle id="Background-13" data-name="Background" cx="6.263" cy="6.263" r="6.263" fill="#dde3e9"/>
            <circle id="Indicator-5" data-name="Indicator" cx="2.684" cy="2.684" r="2.684" transform="translate(3.579 3.579)" fill="#afb9c5"/>
          </g>
        </g>
        <g id="Row-12" data-name="Row" transform="translate(0 217.417)">
          <rect id="Container-9" data-name="Container" width="201.312" height="34.894" rx="4" fill="#fff"/>
          <g id="Text-Stuff-6" data-name="Text-Stuff" transform="translate(8.052 10.468)">
            <rect id="Label-11" data-name="Label" width="149.419" height="5.234" rx="2.617" fill="#dde3e9"/>
            <rect id="Label-12" data-name="Label" width="100.295" height="5.234" rx="2.617" transform="translate(0 8.724)" fill="#dde3e9"/>
          </g>
          <g id="Check-6" data-name="Check" transform="translate(173.535 11.184)">
            <circle id="Background-14" data-name="Background" cx="6.263" cy="6.263" r="6.263" fill="#dde3e9"/>
            <circle id="Indicator-6" data-name="Indicator" cx="2.684" cy="2.684" r="2.684" transform="translate(3.579 3.579)" fill="#f2f2f2"/>
          </g>
        </g>
        <g id="Row-13" data-name="Row" transform="translate(0 175.365)">
          <rect id="Container-10" data-name="Container" width="201.312" height="34.894" rx="4" fill="#fff"/>
          <g id="Text-Stuff-7" data-name="Text-Stuff" transform="translate(8.052 10.468)">
            <rect id="Label-13" data-name="Label" width="149.419" height="5.234" rx="2.617" fill="#dde3e9"/>
            <rect id="Label-14" data-name="Label" width="100.295" height="5.234" rx="2.617" transform="translate(0 8.724)" fill="#dde3e9"/>
          </g>
          <g id="Check-7" data-name="Check" transform="translate(173.535 11.184)">
            <circle id="Background-15" data-name="Background" cx="6.263" cy="6.263" r="6.263" fill="#dde3e9"/>
            <circle id="Indicator-7" data-name="Indicator" cx="2.684" cy="2.684" r="2.684" transform="translate(3.579 3.579)" fill="#f2f2f2"/>
          </g>
        </g>
        <g id="Row-14" data-name="Row" transform="translate(0 133.314)">
          <rect id="Container-11" data-name="Container" width="201.312" height="34.894" rx="4" fill="#fff"/>
          <g id="Text-Stuff-8" data-name="Text-Stuff" transform="translate(8.052 10.468)">
            <rect id="Label-15" data-name="Label" width="149.419" height="5.234" rx="2.617" fill="#dde3e9"/>
            <rect id="Label-16" data-name="Label" width="100.295" height="5.234" rx="2.617" transform="translate(0 8.724)" fill="#dde3e9"/>
          </g>
          <g id="Check-8" data-name="Check" transform="translate(173.535 11.184)">
            <circle id="Background-16" data-name="Background" cx="6.263" cy="6.263" r="6.263" fill="#dde3e9"/>
            <circle id="Indicator-8" data-name="Indicator" cx="2.684" cy="2.684" r="2.684" transform="translate(3.579 3.579)" fill="#f2f2f2"/>
          </g>
        </g>
      </g>
    </g>
    <g id="Graph" transform="translate(469.361 52)">
      <rect id="Value" width="5.368" height="22.368" rx="2.684" transform="translate(0 28.631)" fill="#dde3e9"/>
      <rect id="Value-2" data-name="Value" width="5.368" height="36.684" rx="2.684" transform="translate(12.526 14.316)" fill="#dde3e9"/>
      <rect id="Value-3" data-name="Value" width="5.368" height="43.841" rx="2.684" transform="translate(25.052 7.158)" fill="#dde3e9"/>
      <rect id="Value-4" data-name="Value" width="5.368" height="36.684" rx="2.684" transform="translate(37.578 14.316)" fill="#dde3e9"/>
      <rect id="Value-5" data-name="Value" width="5.368" height="50.999" rx="2.684" transform="translate(50.104)" fill="#c5cfd6"/>
    </g>
    <g id="Chart" transform="translate(414.783 61.842)">
      <path id="Value-6" data-name="Value" d="M25.993,25.5a7.224,7.224,0,1,1-5.28-12.127V0A20.709,20.709,0,0,0,0,20.579,20.709,20.709,0,0,0,20.713,41.157a20.465,20.465,0,0,0,15.076-6.515Z" fill="#f2f2f2" fill-rule="evenodd"/>
      <path id="Value-7" data-name="Value" d="M23,0V13.376a7.2,7.2,0,0,1,7.2,7.2H43.579A20.642,20.642,0,0,0,23,0Z" transform="translate(-2.421)" fill="#afb9c5" fill-rule="evenodd"/>
      <path id="Value-8" data-name="Value" d="M30.749,23A7.14,7.14,0,0,1,28,28.631L36.228,39.1A20.408,20.408,0,0,0,44.1,23Z" transform="translate(-2.948 -2.421)" fill="#c5cfd6" fill-rule="evenodd"/>
    </g>
  </g>
</svg>
