<svg xmlns="http://www.w3.org/2000/svg" width="1070.257" height="908" viewBox="0 0 1070.257 908">
  <g id="Whiteboard" transform="translate(-44.536 -64.302)">
    <path id="Background-Shape" d="M54.333,626.507C81.122,488.551,352.192,567.143,529.9,524.493s387.957-241.275,527.1-143.978-8.9,332.492-328.042,385.568S27.544,764.462,54.333,626.507Z" transform="translate(5.441 186.232)" fill="#f2f2f2" fill-rule="evenodd"/>
    <g id="Cells" transform="translate(127.779 164.234)" opacity="0.5">
      <path id="Fill-5" d="M2.605,3.318C.021,5.9,1.025,15.067.971,18.461c-.083,5.283.246,10.518.687,15.782.3,3.524,1.964,37.157,6.606,34.574,2.617-1.455.976-11.185.972-14.262-.011-6.842-.3-13.666-.751-20.493a179.357,179.357,0,0,1-.446-18.951C8.1,13.562,9.548-3.637,2.605,3.318" transform="translate(0.191 0.858)" fill="#89c5cc" fill-rule="evenodd"/>
      <path id="Fill-7" d="M115.494.16C93.293.337,71.1,1.432,48.912,2.1c-10.678.323-21.349.733-32.015,1.325-3.635.2-11.43-.962-14.458.975-6.722,4.3,4.119,5.3,7.009,5.2C53.362,8.01,97.291,5.913,141.242,5.814c21.56-.048,43.109.566,64.671.428,8.242-.053,17.369-3.6,19.451,5.99,2.349,10.826-.35,22.879-1.085,33.758a190.857,190.857,0,0,0,.011,21.629c.21,4.648-.336,9.886.485,14.448.791,4.392,3.949,7.027,6.843,2.106,1.729-2.94.869-10.2.984-13.606.155-4.587.009-9.173.009-13.762,0-11.2,1.58-22.354,1.371-33.551-.134-7.22-.518-20.309-9.624-22.044C214.331-.7,202.005,1.221,191.743,1.1,166.315.814,140.93-.038,115.494.16" transform="translate(-0.16 -0.131)" fill="#89c5cc" fill-rule="evenodd"/>
      <path id="Fill-9" d="M54.367,42.84q-12.557,0-25.114.189c-7.179.119-18.466-1.378-25.148,1.191-4.574,1.758-5.789,6.865,0,8.225,6.314,1.484,15.83-.942,22.436-1.059,33.126-.585,66.571-1.347,99.651.748,31,1.962,62.591,3.866,93.633,1.794,2.612-.174,15.932-.7,9.854-5.7-3.546-2.914-17.919-1-22.527-1.137-16.255-.49-32.526-.6-48.776-1.215-16.038-.608-32-2.412-48.047-2.858-18.639-.519-37.318-.18-55.963-.18" transform="translate(-0.206 27.237)" fill="#89c5cc" fill-rule="evenodd"/>
      <path id="face" d="M38.256,16.872c13.048.57,25.956,19.492,12.755,28.637-12.385,8.581-35.6-.823-28.709-17.463-.99,2.406,1.252-2.614,1.28-2.647a35.8,35.8,0,0,1,5.275-4.467,20.841,20.841,0,0,1,6-3.622c1.462-.458,1.233,1.265,3.4-.439M31.9,10.047c-6.107,2.384-8.894,5.074-13.09,9.941-2.9,3.368-6.605,5.14-6.573,9.692.007,1.007,1.3,2.115,1.525,3.085.309,1.341-.049,3.059.2,4.484,2.526,14.7,20.068,19.659,32.908,16.883,11.185-2.418,19.55-13.155,16.959-24.83C61.218,17.55,43.79,5.4,31.9,10.047" transform="translate(7.529 5.591)" fill="#89c5cc" fill-rule="evenodd"/>
      <path id="Fill-13" d="M20.9,23.71c0,5.289,8.354,5.289,8.354,0,0-5.229-8.354-5.453-8.354,0" transform="translate(13.095 12.452)" fill="#89c5cc" fill-rule="evenodd"/>
      <path id="Fill-15" d="M27.258,22.737c0,4.2,6.638,4.2,6.638,0,0-4.155-6.638-4.332-6.638,0" transform="translate(17.185 12.355)" fill="#89c5cc" fill-rule="evenodd"/>
      <path id="Fill-17" d="M31.595,26.828c-2.126.817-4.822-.877-6.567.239-3.091,1.978.008,3.769,1.664,4.564,7.459,3.579,8.786-6.29,4.9-4.8" transform="translate(14.904 16.932)" fill="#89c5cc" fill-rule="evenodd"/>
      <path id="Fill-19" d="M128.005,21.63h0M95.523,16.883c-5.583,1.26-10.3,6.474-16.362,5.776-4.648-.535-7.8-5.02-12.384-5.672-5.87-.835-21.846,12.556-13.447,14.854,4.9,1.341,7.619-7.615,11.948-8.09,3.425-.376,8.082,3.824,11.631,4.421,6.621,1.116,11.167-2.531,16.98-4.883,6.316-2.556,9.909-.254,15.4,2.586,4.335,2.242,8.418,3.7,13.379,2.777,4.656-.867,10.5-5.655,15.191-5.164,4.59.481,7.866,5.271,12.588,5.716,1.947.183,4.844.846,4.517-2.157-.262-2.4-2.945-2-4.624-2.872-4.317-2.248-8.355-6.23-13.566-5.89-3.919.256-7.487,3.01-11.1,4.327-11.829,4.314-18.478-8.347-30.155-5.728" transform="translate(32.409 10.407)" fill="#89c5cc" fill-rule="evenodd"/>
      <path id="Fill-21" d="M134.505,63.146c-22.817.209-45.711.548-68.464,2.377-5.394.433-60.474,5.634-60.369,6.008.193.693,7.277,1.752,7.233,1.915q-.716-1.776-3.274-1.47c52.239,0,104.312-4.677,156.619-3.836,13.143.211,26.336.123,39.469.537,3.279.1,11.4,2.454,13.978.973,6.758-3.886-5.519-4.335-7.553-4.5-25.741-2.059-51.826-2.266-77.64-2.008" transform="translate(3.308 40.322)" fill="#69a1ac" fill-rule="evenodd"/>
      <path id="Fill-23" d="M2.175,70.527c-3.411,3.42-.27,15.723-.136,20.347.195,6.685.034,13.418.621,20.086a135.859,135.859,0,0,0,3.707,23.122c1.1,4.071,4.964,10.541,6.495,3.144,1.093-5.284-.567-12.293-1.144-17.675a208.335,208.335,0,0,1-.989-21.541c-.026-6.3-.147-12.635-.664-18.92-.268-3.263-1.91-14.51-7.89-8.562" transform="translate(0.042 44.026)" fill="#69a1ac" fill-rule="evenodd"/>
      <path id="Fill-25" d="M84.992,108.052c-16.192.278-32.418.66-48.583,1.671-6.625.415-13.245,1.033-19.846,1.733-1.347.142-16.256.748-9.594,6.25,3.007,2.484,15.376-.95,19.461-1.308,6.871-.6,13.74-.994,20.631-1.285,15.966-.678,31.981-1.276,47.963-1,29.187.506,58.187.733,87.383.081,4.148-.092,36.645.776,37.749-3.54.889-3.478-10.732-1.883-12.851-1.819-7.773.232-15.547.178-23.323.139-32.941-.169-66.073-1.479-98.989-.922" transform="translate(3.045 69.158)" fill="#69a1ac" fill-rule="evenodd"/>
      <path id="Fill-27" d="M132.72,67.932c.514,14.417,2.969,28.816,3.754,43.276.359,6.61.781,13.214,1.1,19.826.1,2.133-.755,7.273,1.767,8.5,3.46,1.683,3.926-1.708,4.573-4,1.871-6.625.606-15.231.436-22.036-.164-6.59-.175-13.192-.661-19.77-.5-6.72-1.851-13.314-2.479-20.011-.265-2.832.663-7.545-2.344-9.3-2.6-1.519-6.263.4-6.151,3.52" transform="translate(84.979 40.851)" fill="#69a1ac" fill-rule="evenodd"/>
      <path id="face-2" data-name="face" d="M50.449,85.186l.184.143-.184-.143m-13.76-4.271c5.131,1.466,9.345.919,14.247,4.654C55,88.666,59.166,93.2,60.514,98.2c3.114,11.57-7.442,17.91-17.338,18.035-10.136.127-25.14-2.224-24.62-15.216.4-9.982,7.687-19.722,18.133-20.11m.362-6.538c-13.305.663-24.038,15.6-23.923,28.182.139,15.244,17.411,19.171,29.681,19.277,13.848.119,27.657-9.443,23.946-25.015-2.973-12.477-16.909-23.108-29.7-22.443" transform="translate(8.1 47.579)" fill="#69a1ac" fill-rule="evenodd"/>
      <path id="Fill-31" d="M19.542,88.082c0,4.251,6.716,4.251,6.716,0,0-4.2-6.716-4.383-6.716,0" transform="translate(12.225 54.339)" fill="#69a1ac" fill-rule="evenodd"/>
      <path id="Fill-33" d="M28.117,86.957c0,4.284,6.769,4.284,6.769,0,0-4.236-6.769-4.418-6.769,0" transform="translate(17.737 53.599)" fill="#69a1ac" fill-rule="evenodd"/>
      <path id="Fill-35" d="M23.694,91.81c-4.371,4.364,10.985,12.015,14.607,5.944,2.975-4.986-3.5-3.333-5.8-3.6-2.495-.294-6.772-4.372-8.809-2.341" transform="translate(14.394 58.442)" fill="#69a1ac" fill-rule="evenodd"/>
      <path id="Fill-37" d="M128.185,88.607h0M70.517,81.5c-4.426.83-18.952,5.731-19.148,10.982-.358,9.545,13.868-.231,16.957-1.487,8.392-3.41,12.8,3.546,21.231,3.914,7.322.319,14.054-5.947,20.951-5.206,7.226.776,10.7,8.464,19.044,4.382,4.413-2.159,4.3-5.488-.652-5.8-2.995-.19-5.052,1.048-8.174-.241-4.882-2.013-6.849-5.293-12.691-4.772-4.409.393-8.393,2.878-12.7,3.84-9.854,2.2-15.32-7.39-24.821-5.61" transform="translate(32.68 52.037)" fill="#69a1ac" fill-rule="evenodd"/>
      <path id="point" d="M123.351,93.525h0m1.117-3.974c.049.021.383.484,0,0m-5.074-3.034h0m.111-.037c.984.589,8.894,6,3.149,7.272-2.917.647-5.33-5.223-3.149-7.272m-2.619-5.992c-12.672,5.778.964,26.453,10.909,18.053,4.184-3.535,4.735-10.68.664-14.362-2.439-2.207-8.262-5.2-11.573-3.69" transform="translate(71.511 51.263)" fill="#69a1ac" fill-rule="evenodd"/>
      <path id="Fill-41" d="M66.773,129.942c-15.812,0-31.762-.327-47.553.61-2.657.158-12.781-.348-14.15,2.43-2.5,5.081,7.911,2.559,9.425,2.406,31.441-3.147,64.283-1.336,95.828-.439,25.8.733,51.459,1.189,77.227,2.518q10.16.524,20.309,1.144c2.206.133,7.758,1.6,8.223-1.928.43-3.261-6.5-2.524-8.225-2.616q-20.638-1.086-41.263-2.257c-33.107-1.866-66.661-1.874-99.821-1.868" transform="translate(2.672 83.284)" fill="#89c5cc" fill-rule="evenodd"/>
      <path id="Fill-43" d="M5.5,134c-2.953,2.936-1.569,14.146-1.651,17.852-.144,6.481-.45,12.956-.587,19.435-.143,6.772.056,13.574.456,20.336.168,2.839,2.5,16.56,6.167,8.708,1.639-3.509-.04-13.283-.014-17.258.045-7.236.435-14.442.795-21.668.31-6.212.321-12.43.593-18.643.086-1.981.32-14.857-5.757-8.761" transform="translate(1.731 84.88)" fill="#89c5cc" fill-rule="evenodd"/>
      <path id="Fill-45" d="M219.812,168.6c-15.388,1.577-31.023.832-46.469,2-13.312,1-26.612,1.414-39.959,1.7-30.222.638-60.5,1.26-90.631,3.779-6.868.573-13.727,1.183-20.613,1.49-3.444.154-17.895-1.413-18.971,2.217-1.833,6.183,13.621,3.736,16.954,3.639,7.33-.212,14.626-.742,21.935-1.3,30.727-2.341,61.571-3.041,92.363-4.014,16.747-.528,33.377-1.754,50.087-2.869,8.328-.555,16.68-.573,25.008-1.112,2.179-.141,9.892.137,11.46-1.617,1.077-1.2,1.349-4.143-1.163-3.909" transform="translate(1.602 108.162)" fill="#89c5cc" fill-rule="evenodd"/>
      <path id="Fill-47" d="M131.806,135.764c.528,14.757,1.362,29.5,1.86,44.258.15,4.437-1.191,12.391,1.281,16.3,3.973,6.292,7.075-.367,7.8-4.288,2.3-12.376-.172-26.047-.814-38.5-.244-4.75,1.231-15.323-1.065-19.575-2.187-4.05-9.26-3.643-9.064,1.8" transform="translate(84.391 84.164)" fill="#89c5cc" fill-rule="evenodd"/>
      <path id="hola-:_" data-name="hola-:)" d="M120.564,148.865c5.9,1.6,6.756,14.414.1,15.362-9.9,1.411-5.571-12.72-.1-15.362m-1.651-5.1c-1.8-.056-5.949-.552-7.058.912-.927,1.225.01,3.809-.1,4.976-.39,4.17-3.78,6.578-2.265,11.5a12.028,12.028,0,0,0,7.142,7.642c17.719,6.124,17.5-28.111,2.279-25.031" transform="translate(69.799 92.08)" fill="#89c5cc" fill-rule="evenodd"/>
      <path id="Fill-51" d="M21.457,151.579l-.132.169.132-.169m13.916-7.4-.208-1.779c9.607,4.535,17.251,12.97,14.061,24.293-2.434,8.638-11.228,11.7-19.42,9.569-9.069-2.361-13.4-9.837-10.958-19.016,1.128-4.235,4.593-9.926,9.071-11.287,2.085-.634,6.695.982,7.454-1.78m-5.618-3.586a13.708,13.708,0,0,0-6.779,2.561,11.07,11.07,0,0,1,6.779-2.561m.069-5.579c-6,.184-9.936,3.818-13.5,8.182-1.117,1.37-4.9,5-4.428,6.848.37,1.459,1.338,3.593,3.376,1.966C4.6,173.28,32.178,191.426,49.013,176.631c15.711-13.807.124-42.269-19.188-41.622" transform="translate(7.286 86.569)" fill="#89c5cc" fill-rule="evenodd"/>
      <path id="Fill-53" d="M19.476,147.866c0,2.833,4.4,2.833,4.4,0s-4.4-2.833-4.4,0" transform="translate(12.182 93.475)" fill="#89c5cc" fill-rule="evenodd"/>
      <path id="Fill-55" d="M24.044,148.174c0,2.879,4.469,2.879,4.469,0s-4.469-2.879-4.469,0" transform="translate(15.119 93.651)" fill="#89c5cc" fill-rule="evenodd"/>
      <path id="Fill-57" d="M30.736,153.487c-2.091.17-9.743-.541-11.087,1.291-2.245,3.06,1.338,3.166,3.1,3.5,1.585.3,8.475.129,9.446-1.278.858-1.244.657-3.69-1.457-3.51" transform="translate(11.832 98.449)" fill="#89c5cc" fill-rule="evenodd"/>
      <path id="Fill-59" d="M109.775,149.5h0M80.86,147.38c-4.711.346-8.7,3.056-13.2,4.137-4.808,1.154-6.888-.969-11.26-2.358-4.548-1.445-7.782-.874-11.437,2.231-2.071,1.76-6.615,5.81-5.32,8.937,2.964,7.155,9.673-4.486,12.829-5.028,4.923-.845,9.3,3.46,14.979,2.228,5.144-1.115,9.708-4.647,15.081-4.685,4.493-.032,8.727,2.426,13.162,3.021,6.771.909,11.217-1.5,17.476-3.281,5.428-1.547,9.234.493,14.339,2.21,2.333.784,10.119,3.636,8.685-1.535-.405-1.461-10.665-4.073-12.255-4.575-5.609-1.772-9.161-1.081-14.5.956-4.456,1.7-8.2,2.528-12.982,1.592-5.264-1.03-10.051-4.271-15.588-3.85" transform="translate(24.996 94.505)" fill="#89c5cc" fill-rule="evenodd"/>
    </g>
    <g id="Big-Cards" transform="translate(443.079 64.302)" opacity="0.5">
      <path id="Fill-67" d="M7.433,104.968C8.193,88.611,9.239,72.277,9.79,55.91c.273-8.11.487-16.221.694-24.333q.069-2.709.133-5.418c.134-6.136-.594-6.638,5.582-7.183,27.549-2.432,55.207-3.238,82.79-5.438,33.265-2.653,66.7-4.486,100.063-5.307,14.824-.366,29.711-1.123,44.538-.662,3.285.1,9.734-.753,11.027,1.8.559,1.1-.613,4.9-.762,6.172-.465,3.977-.9,7.967-1.166,11.964-1.578,23.571-.637,47.735,3.927,70.949-10.707-6.037-24.234-11.231-36.713-10.2-12.723,1.051-22.24,8.4-32.423,15.167-5.761,3.827-7.7,4.833-13.448,1.126-4.952-3.2-9.638-6.848-14.31-10.433-7.21-5.533-14.015-11.532-21.007-17.333C125.857,66.116,108.146,50.935,90.389,55.4,77.7,58.6,65.989,65.571,54.978,72.394,38.62,82.532,23.812,94.946,7.433,104.968M227.909.305C164.7.305,101.972,6.432,38.945,9.747c-6.582.346-13.142.856-19.7,1.489-4.371.422-15.061-1.35-17.926,2.385-1.911,2.492-.269,2.866,0,5.234a73.073,73.073,0,0,1,.05,9.678c-.21,7.611-.431,15.22-.6,22.832C.11,80.13-.3,108.891.867,137.65c.254,6.272,2.539,14.956,1.289,21.051-.9,4.412-3.931,7.1,3.048,7.913,6.867.8,15.264-1.239,22.137-1.892,6.913-.658,13.825-1.372,20.747-1.943,30.092-2.48,60.476-2.1,90.648-2.929,30.444-.831,60.9-.884,91.351-.9,12.742-.007,27.3.709,39.735-2.8,4.374-1.234,5.082-1.842,4-6.182-.205-.824-1.526-1.128-1.914-2.616-.527-2.026-.256-4.488-.38-6.6-.4-6.887-.543-13.786-.867-20.677-.542-11.514-2.526-22.688-3.994-34.087-1.694-13.163-1.607-26.529-1.642-39.778-.02-7.349.169-14.674.759-22,.379-4.7,2.693-11.718,1.52-16.1-.585-2.183-1.542-3.913-3.814-4.853-1.439-.6-2.649-.13-4.072-.28A36.454,36.454,0,0,1,254.66,2.1C246,.139,236.736.305,227.909.305" transform="translate(-0.129 -0.302)" fill="#69a1ac" fill-rule="evenodd"/>
      <path id="Fill-69" d="M117.534,20.828c0,4.581-.719,11.34,1.392,15.654,2.679,5.471,6.03,3.761,6.918-1.38.508-2.946.5-11.664-.45-14.273-1.339-3.693-7.86-6.209-7.86,0" transform="translate(75.268 10.47)" fill="#89c5cc" fill-rule="evenodd"/>
      <path id="Fill-71" d="M130.478,20.442c-4.3.152-16.825-.881-19.735,2.577-4.991,5.931,3.7,6.981,7.428,6.649,4.317-.384,17.658.553,20.549-2.909,4.836-5.791-4.861-6.441-8.243-6.318" transform="translate(70.01 12.625)" fill="#89c5cc" fill-rule="evenodd"/>
      <path id="Fill-73" d="M30.527,117.243c18.906,3.284,13.024,32.11-4.865,25.433-6.233-2.327-15.418-9.049-11.973-16.969,2.574-5.918,10.961-9.028,16.838-8.464M22.7,108.28C10.4,110.35,2,123.656,6.214,135.262c4.067,11.2,19.492,19.4,30.868,15.373,10.86-3.842,16.278-18.291,12.617-28.861-3.826-11.044-16.288-15.3-27-13.493" transform="translate(3.075 68.855)" fill="#89c5cc" fill-rule="evenodd"/>
      <path id="Fill-75" d="M115.893,115.647c-4.707.391-8.775,3.686-13.511,4.27-4.429.545-8.1-.97-12.245-2.181-5.012-1.463-9.609-2.107-14.731-.807-3.914.994-7.775,3.657-11.841,3.979-8,.632-17.3-8.5-23.545,1.828-2.994,4.95,1.353,8.138,5.832,5.829,4.669-2.406,2.377-3.267,8.169-1.846,4.832,1.185,8.738,1.828,13.579.168,4.385-1.5,8.234-4.256,13-4.566,4.666-.3,8.726,1.823,13.187,2.74,5.486,1.127,10.339.274,15.537-1.445,4.944-1.636,6.916-2.53,11.9-1.071,3.159.924,10.06,3.859,13.134,1.494,5.316-4.089-1.8-4.687-4.6-5.269-4.512-.935-9.182-3.507-13.865-3.123" transform="translate(24.879 73.823)" fill="#89c5cc" fill-rule="evenodd"/>
      <path id="Fill-77" d="M158.343,118.39l.112.087-.112-.087m-4.621-.967c6.872.443,14.3,12.961,5.2,13.4-6.409.313-13.579-10.649-5.2-13.4m-.964-10.243c-21.73,6.068-11.8,36.7,9.164,33.164,9.519-1.607,12.746-12.637,9.6-20.8a17.98,17.98,0,0,0-7.136-8.481c-2.324-1.489-8.971-4.621-11.626-3.881" transform="translate(90.146 68.333)" fill="#89c5cc" fill-rule="evenodd"/>
      <path id="Image-Border" d="M7.964,278.5c-.642-2.851-.294-7.209-.33-8.216-.168-4.723-.226-9.447-.408-14.168-.433-11.251-.72-22.566-1.587-33.791-.828-10.73-2.921-21.135-2.981-31.945-.04-7.311-2.072-25.836,4.331-30.8,11-6.421,6.652,16.234,6.472,20.155a233.992,233.992,0,0,0,1.382,34.82c1.088,10.752-.163,21.454-.581,32.207-.222,5.708-.343,11.408-.773,17.107-.134,1.777.072,9.785-.86,14.05,2.4-.1,4.682,0,5.955-.034,8.914-.27,17.829-.506,26.742-.841,34.287-1.289,68.593-.706,102.873-2.334,32.424-1.541,64.966-1.868,97.414-2.266a3.29,3.29,0,0,1,2.286,5.517c-1.783,2.241-10.047,1.749-12.623,1.957-9.139.734-18.261,1.065-27.427,1.153-19.3.184-38.535,1.011-57.807,2.11-34.242,1.952-68.534,1.79-102.794,3.184-8.316.338-16.633.591-24.953.809-4.387.115-15.877,2.758-18.05-2.484C2.709,280.98,4.843,279.275,7.964,278.5ZM197.632,145.168c10.374-.1,20.69.085,31.049.68,4.594.264,9.186.518,13.783.712,2.656.113,8.723-.758,11.052.474,9.144,4.838-9.485,5.368-11.75,5.33-9.5-.16-18.988-.9-28.491-1.133-34.951-.859-70.163,1.268-105.084,2.7-16.8.689-33.587.788-50.379,1.731-9.178.516-18.351,1.105-27.531,1.589-4.232.223-8.465.44-12.7.546-2.61.066-7.926,1.147-10.339.161-2.055-.84-3.716-2.015-2.587-4.5,1.216-2.679,6.51-1.539,8.75-1.582,8.089-.157,16.16-.611,24.235-1.105,18.334-1.122,36.629-2.435,55-2.748C127.645,147.42,162.607,145.492,197.632,145.168ZM245.788,157.1c.006-4.8,5.762-5.765,8.315-2.5,2.442,3.123.87,12.577.93,16.313.2,12.311,1.36,24.551,2.466,36.806,1.1,12.154,1.874,24.313,2.721,36.486.392,5.626,4.716,28.081-1.568,31.359-8.02,4.183-6.507-17.1-6.732-20.98q-1.081-18.734-2.757-37.453C247.336,196.987,245.773,177.32,245.788,157.1Z" transform="translate(1.279 92.81)" fill="#69a1ac" fill-rule="evenodd"/>
      <path id="Image-X" d="M123.165,202.688q16.5,5.863,32.819,12.2c5.825,2.25,11.62,4.574,17.432,6.856,2.911,1.143,15.017,4.012,15.714,6.92.982,4.1-11.922-.937-13.975-1.594-5.8-1.854-11.527-3.929-17.254-5.992-12.815-4.617-25.575-9.38-38.44-13.856q-1.805-.628-3.612-1.252-20.483,9.2-40.868,18.617-10.925,5.06-21.753,10.323c-5.356,2.594-15.05,9.994-20.95,9.866-2.232-.049-3.737-.528-3.97-3.234-.3-3.46,5.277-4.882,7.529-6.008q11.582-5.792,23.283-11.343c15.475-7.381,31.1-14.468,46.771-21.413l.271-.12q-13.04-4.413-26.149-8.626c-4.993-1.607-40-10.246-38.726-14.884,1.434-5.2,32.441,7.059,37.21,8.579q17.612,5.613,35.1,11.612c27.952-12.557,56.2-25.938,85.355-35.075,1.836-.574,3,1.319,2.58,2.907-.558,2.126-7.1,3.847-8.912,4.658-7.18,3.206-14.4,6.334-21.578,9.543-15.643,6.99-31.315,13.914-46.956,20.908Z" transform="translate(17.979 105.032)" fill="#89c5cc" fill-rule="evenodd"/>
      <path id="Fill-117" d="M33.795,243.663A14.109,14.109,0,0,1,45.2,258.956c-1.06,9.7-10.732,14.152-19.667,12.885-10.138-1.437-12.271-10.007-7.359-18.252,1.088-1.825,2.338-4.009,4.315-4.971,1.359-.661,3.09-.076,4.185-.609,3.837-1.867,1.53-4.843,7.118-4.347m-3.255-6.339c-8.724,1.115-24.843,11.209-24.027,21.31a2.922,2.922,0,0,0,3.194,1.438,15.678,15.678,0,0,0,.335,6.494,13.955,13.955,0,0,0,4.7,6.869c4.562,3.728,10.8,4.643,16.479,3.99,10.608-1.22,18.968-8.469,19.564-19.5.581-10.769-8.819-22.04-20.241-20.6" transform="translate(3.956 151.987)" fill="#89c5cc" fill-rule="evenodd"/>
      <path id="Fill-119" d="M52.063,245.9c-3.914,2.074-10.106,5.261-12.4,9.2-2.425,4.161.086,8.714,5.2,6.745,4.056-1.562,6.636-6.528,10.962-8.119,3.818-1.4,5.357-.689,9.392.71,4.158,1.441,7.792,2.833,12.287,2.48,5.649-.444,10.542-3.72,16.072-4.465,4.656-.628,8.5,1.184,12.954,1.9,5.173.836,8.555-1.122,13.4-2.141,3.292-.694,9.095,2.129,11.5,1.073,5.4-2.374-.312-5.276-3.3-6.236-5.035-1.615-8.134-.19-12.923,1.15-5.2,1.454-7.446.361-12.416-.974-10.056-2.7-17.825,3.831-27.356,2.643-8.825-1.1-14.106-8.868-23.356-3.971" transform="translate(24.686 156.551)" fill="#89c5cc" fill-rule="evenodd"/>
      <path id="Fill-121" d="M155.553,245.311c9.679,9.075-1.194,21.986-11.867,14.734-3.756-2.553-3.816-6.653-.892-10.321C145.467,246.368,151.341,245.06,155.553,245.311Zm-3.588-7.333c-9.043,1.759-17.573,5.909-18.392,16.346-.8,10.183,9.646,14.913,18.421,14.244C171.694,267.067,170.27,234.439,151.965,237.977Z" transform="translate(85.628 152.316)" fill="#89c5cc" fill-rule="evenodd"/>
    </g>
    <path id="Fill-79" d="M573.157,96.009c-7.233.14-25.1,2.771-27.751,11.328-2.016,6.5,3.972,5.069,7.181,2.706a30.345,30.345,0,0,1,13.528-6.081c20.492-3.707,40.182,9.585,60.477,11.266,7.688.637,16.966,1.052,24.306-1.438,5.227-1.773,5.91-5.639-.056-6.228-5.069-.5-10.677,1.076-15.874,1.031-21.5-.184-40.617-12.988-61.812-12.584" transform="translate(321.723 20.377)" fill="#c1dee2" fill-rule="evenodd" opacity="0.5"/>
    <g id="Cards" transform="translate(44.536 522.703)" opacity="0.5">
      <path id="Fill-173" d="M89.777.382q-20.76.233-41.485,1.54c-13.135.832-27.387.2-40.308,2.747-3.669.722-8.625,4.067-3.747,7.745,3.429,2.586,15.975-.389,20.07-.64,15.08-.927,30.167-2.037,45.268-2.571,14.3-.505,28.591-.684,42.894-.826,2.184-.021,5.809-.722,7.983-.088,3.124.911,2.383,1.159,2.617,5.125.424,7.186.307,14.4.165,21.591-.138,6.96-.4,13.92-.37,20.883.018,4.968-1.571,14.841.922,19.155,3.588,6.21,7.311-.535,7.579-4.662.513-7.893.283-15.883.286-23.786,0-7.418.055-14.837-.206-22.251-.19-5.356.576-14.706-2.309-19.575C126.2-.19,119.121.879,113.959.643,105.905.272,97.838.3,89.777.382" transform="translate(0.534 -0.33)" fill="#89c5cc" fill-rule="evenodd"/>
      <path id="Fill-171" d="M2.792,7.458C2.808,21.4,1.2,35.242.743,49.164c-.207,6.4-.628,13.43.992,19.713,1.635,6.345,6.826,7.719,7.424.636,1.211-14.343.914-29.215,1.857-43.673.333-5.1,2.5-14.459.477-19.239-1.781-4.211-8.708-5.018-8.7.857" transform="translate(-0.536 1.546)" fill="#89c5cc" fill-rule="evenodd"/>
      <path id="Fill-175" d="M131.119,43.216c-24.035,3.182-49.161,2.022-73.367,2.522-11.613.24-23.224.255-34.839.376-4.054.042-14.348-1.5-17.855.779-5.582,3.628.475,6.427,4.17,6.507,22.921.5,46.1-.552,69.014-1.3,10.3-.338,20.626-.5,30.9-1.378,6.322-.539,13.23-1.061,19.37-2.76,1.308-.363,4.156-.287,4.449-2.071.181-1.1-.147-2.9-1.837-2.671" transform="translate(0.916 27.226)" fill="#89c5cc" fill-rule="evenodd"/>
      <path id="Fill-177" d="M31.878,55.816c-6.68.039-26.81-3.064-29.576,3.45-3.688,8.687,10.7,6.659,14.569,6.56,8.788-.226,17.57-.25,26.361-.246,8.625,0,17.25-.052,25.874-.257,2.5-.06,8.314.977,9.751-2.032,1.092-2.286.229-4.09-1.785-5.3-4.847-2.914-17.44-1.224-23.115-1.486-7.348-.338-14.72-.689-22.077-.689" transform="translate(0.213 34.886)" fill="#89c5cc" fill-rule="evenodd"/>
      <path id="Fill-179" d="M76.313,56.689c-3.818.227-11.539-1.347-14.959.4-3.887,1.986-2.517,5.1.839,6.462,2.324.946,11.857.45,14.121-.646,2.36-1.143,5.028-6.525,0-6.216" transform="translate(37.044 35.621)" fill="#89c5cc" fill-rule="evenodd"/>
      <path id="Fill-181" d="M96.328,6.648c-4.077,1.119-2.84,24.266-2.945,27.936-.288,10.054-1.418,22.7,1.922,32.381,2.13,6.172,6.222,5.336,5.525-1.163-.612-5.7-1.663-11.342-2.117-17.083-1.028-12.99-2.427-26.846-1.456-39.847.414.755,4.281,7.762,5.192,7.239-.275.163-4.461-9.9-6.12-9.464" transform="translate(58.882 3.723)" fill="#89c5cc" fill-rule="evenodd"/>
      <path id="Fill-183" d="M143.13,1.5c-8.251.122-16.5.268-24.752.5-6.559.183-16.865-.895-22.88,1.864-7.162,3.285-3.764,10.6,2.963,10.759,5.951.137,12.3-1.2,18.3-1.411,16.22-.556,32.469-.674,48.7-.812,14.676-.127,29.976,1.439,44.523-.765,2.158,19.16-3.678,38.4-1.693,57.781.308,3.008.17,7.258,4,7.943,4.834.865,5.033-3.923,5.217-7.352.523-9.79.24-19.588.957-29.391.664-9.084,1.972-18.369.867-27.468-1.359-11.2-6.724-10.3-16.209-10.765C183.091,1.4,163.183,1.209,143.13,1.5" transform="translate(57.945 0.343)" fill="#89c5cc" fill-rule="evenodd"/>
      <path id="Fill-185" d="M111.936,42.959c-4.2.106-11.188-1.19-13.882,2.842-2.8,4.195.523,7.854,4.6,8.715,4.825,1.019,11.115-.378,16.123-.393,5.214-.015,10.43.043,15.645.063,22.356.088,44.808.426,67.148-.5,3.12-.129,11.974.918,14.134-2.075,1.916-2.654.576-5.035-1.948-6.387-4.14-2.219-12.645-1.375-17.25-1.551-5.687-.216-11.382-.287-17.072-.376-22.46-.347-45.038-.895-67.5-.339" transform="translate(61.486 26.922)" fill="#89c5cc" fill-rule="evenodd"/>
      <path id="Fill-187" d="M129.906,54.67c-8.366.143-17.292-.225-25.576,1.044-7.283,1.116-8.18,8.156-.34,8.98,7.2.758,15.94-.658,23.179-1.123,2.571-.165,5.562.069,6.794-2.773,1.286-2.97-1.173-5.818-4.058-6.128" transform="translate(62.427 34.603)" fill="#89c5cc" fill-rule="evenodd"/>
      <path id="Fill-189" d="M164.022,55.347c-4.466.111-17.509-1.808-19.721,3.292-3.682,8.491,13.975,5.265,17.363,5.14,4.269-.157,20.908,2.336,20.912-4.461,0-6.665-14.465-4.073-18.554-3.971" transform="translate(91.56 34.665)" fill="#89c5cc" fill-rule="evenodd"/>
      <path id="Fill-191" d="M1.591,82.863C1.6,98.31.641,113.9,2.05,129.31c.583,6.373.483,18.58,4.174,23.983,2.62,3.835,6.254,3.566,7.685-1.039.957-3.078-.574-9.234-.744-12.528-.165-3.16-.356-6.319-.5-9.481-.376-8.144-.346-16.276-.234-24.424.1-6.989,1.779-16.237.192-22.958-1.479-6.265-11.029-7.729-11.029,0" transform="translate(-0.058 49.344)" fill="#69a1ac" fill-rule="evenodd"/>
      <path id="Fill-193" d="M155.706,72.736c-26.8.672-53.66.072-80.436,1.4-13.205.654-26.359,2.09-39.5,3.522-6.455.7-12.907,1.43-19.351,2.224-1.945.239-18.1.866-12.025,7.011,2.654,2.683,11.1-.12,14.44-.515,6.47-.764,12.952-1.43,19.431-2.115,12.329-1.3,24.672-2.539,37.054-3.224,29.159-1.616,58.439-1.131,87.628-2.208,7.9-.291,15.768-.5,23.666-.189,2.074.082,17.315.856,10.7-4.773-3.129-2.663-14.927-1.289-18.837-1.369-7.589-.157-15.183.047-22.77.238" transform="translate(1.071 45.881)" fill="#69a1ac" fill-rule="evenodd"/>
      <path id="Wireframy-Stuff" d="M195.94,154.752l-.013.019c-1.46,2.152-6.856,1.553-9.219,1.714-7.191.489-14.249,1.313-21.376,2.382a343.378,343.378,0,0,1-42.633,3.792c-28.39.7-56.9.046-85.245,1.991A155.406,155.406,0,0,0,18.818,167c-4.41.845-12.909,3.737-13.425-3.549-.622-8.779,21.406-8.764,27.7-9.35,27.043-2.516,54.532-1.985,81.658-1.607,13.118.182,26.211.583,39.318-.219s26.633-.591,39.631-2c-1.674-6.491-1.429-14.608-1.9-21.24-1.206-17.028-.884-34.114-1.66-51.16-.342-7.51,9.887-8.648,12.921-2.569,3.064,6.14,1.073,18.323,1.271,25.131.459,15.762,3.381,33.407.294,49C203.557,154.858,198.984,157.707,195.94,154.752Z" transform="translate(2.577 45.36)" fill="#69a1ac" fill-rule="evenodd"/>
      <path id="Fill-199" d="M133.549,79.118c-3.62.492-6.64,3.591-5.024,7.521,2.036,4.948,8.1,3.015,12.105,2.7,12.732-1,26.026.995,38.6-.508,3.435-.411,8.419-2.282,5.335-6.9-2.319-3.469-10.766-2.86-14.356-3.192a191.539,191.539,0,0,0-36.664.376" transform="translate(81.453 49.621)" fill="#c1dee2" fill-rule="evenodd"/>
      <path id="Fill-201" d="M151.969,91.9c-4.938.332-16.433.071-18.513,5.689-3.732,10.079,10.887,6.527,15.339,5.954,5.171-.666,17.361,1.117,20.114-3.9,4.924-8.967-12.61-8.045-16.94-7.746" transform="translate(84.523 58.424)" fill="#c1dee2" fill-rule="evenodd"/>
      <path id="Fill-203" d="M137.447,106.15a6.475,6.475,0,0,0,0,8.872c2.872,2.869,9.13,2.273,12.9,2.483,5.264.294,20.383,3.078,23-3.12,3.527-8.363-10.164-8.188-14.667-8.663-5.2-.548-16.921-3.887-21.234.428" transform="translate(86.346 66.297)" fill="#c1dee2" fill-rule="evenodd"/>
      <path id="Fill-205" d="M24.437,20.8c0,8.991,14.043,8.991,14.043,0,0-8.943-14.043-9.079-14.043,0" transform="translate(14.828 8.487)" fill="#89c5cc" fill-rule="evenodd"/>
      <path id="Fill-207" d="M40.651,21.242c0,10.279,16,10.259,16,0,0-10.243-16-10.348-16,0" transform="translate(25.251 8.15)" fill="#89c5cc" fill-rule="evenodd"/>
      <path id="Fill-209" d="M32.205,26.594c-7.775,2.147-.612,8.736,3,10.241,5.738,2.393,13.569,4.157,19.308.569,2.284-1.427,4.137-3.324,2.464-6.095-1.783-2.949-4.224-1.638-6.939-1.366a21.291,21.291,0,0,1-9.539-.81c-2.479-.823-5.588-3.284-8.292-2.54" transform="translate(17.583 16.465)" fill="#89c5cc" fill-rule="evenodd"/>
      <path id="Fill-211" d="M116.69,20.29c0,6.082,9.443,6.082,9.443,0s-9.443-6.082-9.443,0" transform="translate(74.133 9.569)" fill="#89c5cc" fill-rule="evenodd"/>
      <path id="Fill-213" d="M129.4,21.046c0,6.757,10.491,6.758,10.491,0s-10.491-6.757-10.491,0" transform="translate(82.305 9.729)" fill="#89c5cc" fill-rule="evenodd"/>
      <path id="Fill-215" d="M137.7,28.1c-5.511.71-21.449,2.326-22.341,9.119-1.376,10.48,16.088,2,20.074,1.175,5.077-1.048,9.61-.774,14.678-.571,2.782.111,6.483.562,6.192-3.676-.478-6.96-13.786-6.664-18.6-6.047" transform="translate(73.229 17.335)" fill="#89c5cc" fill-rule="evenodd"/>
      <path id="Fill-217" d="M47.424,86.868c-3.994,1.065-9.219,7.971-6.471,12.2,4.506,6.931,6.493-3.711,8.379-4.735,3.431-1.864,6.217,4.947,9.8,1.374,5.659-5.637-8.148-9.79-11.711-8.836" transform="translate(24.952 55.213)" fill="#69a1ac" fill-rule="evenodd"/>
      <path id="eye" d="M78.516,83.7c-4.737.043-14.737,6.75-15.445,11.7a4.9,4.9,0,0,0,4.7,5.809c4.319.053,5.691-5.563,9.435-6.737,4.038-1.267,3.439,1.65,6.927,3.162,2.552,1.107,5.745.644,6.631-2.494C92.438,89.218,83.383,83.6,78.516,83.7" transform="translate(39.627 53.261)" fill="#69a1ac" fill-rule="evenodd"/>
      <path id="Fill-221" d="M51.315,101.24c-7.576,4.44,4.89,13.956,9.212,15.147,6.525,1.8,19.656-1.556,21.2-9.526.615-3.172-1.369-6.045-4.869-5.477-2.882.468-4.731,4.083-7.4,5.378-3.6,1.748-6.807,1.629-9.869-1-2.495-2.143-3.83-7.111-8.275-4.519" transform="translate(30.57 64.07)" fill="#69a1ac" fill-rule="evenodd"/>
      <path id="Fill-223" d="M79.451,141.138c-6.769,1.443-13.65.475-20.452,1.832-6.936,1.385-11.081,4-17.525,1.365l-.908-.384c-4.987-2.148-10.215-2.784-15.435.64-3.089,2.026-12.468,9.033-11.338,13.309,2.45,9.27,13-5.266,15.694-6.683,5.131-2.7,8.65.75,13.933,1.724,6.328,1.167,11.42-2.177,17.381-3.509,6.972-1.558,14.815-2.1,21.907-2.934,2.8-.329,13.416,1.887,14.374-1.6,1.646-5.991-14.971-4.325-17.631-3.76" transform="translate(7.925 89.773)" fill="#c1dee2" fill-rule="evenodd"/>
      <path id="Fill-225" d="M87.242,162.043h0M106.2,143.01c5.795-.588,24.336-4.727,28.143,1.26,2.479,3.9-1.456,18.3-5.209,20.158-3,1.487-9.989-.157-13.281-.274-6.125-.216-12.264-.312-18.382-.694-2.052-.128-8.655.249-10.264-1.567-1.9-2.145-1.815-13.577-2.262-16.412,5.328,1.725,15.685-1.906,21.255-2.472m12.374-5.871c-7.422.322-14.842.879-22.208,1.875-4.106.555-8.267,2.03-12.059,2.729-1.222.226-3.207-.4-4.706.325-4.38,2.116-.545,16.424.512,20.247,1.622,5.872,5.706,6.823,11.427,7.376,7.536.73,15.227.5,22.786.408,7.287-.089,17.113,1.526,21.2-5.786,2.643-4.727,5.478-15.737,3.219-21.005-2.972-6.932-14.069-6.425-20.172-6.169" transform="translate(48.972 87.539)" fill="#c1dee2" fill-rule="evenodd"/>
      <path id="quare" d="M173.151,167.877h0m1.626-1.96c-.123.186-.692.787,0,0m-17.7-.539q4.907-.924,9.82-1.822c-3.1,4.342-6.368,2.547-11.666,2.169l1.846-.347m-15.608-1.536,2.488-.832a3.39,3.39,0,0,0,.407,1.773q-2.13-.23-4.255-.492l1.36-.448m-7.233-5.341c-.046-1.139,1.667-.357,2.648-.434q-2.839,2.5-2.648.434m25.867-12.92q.374-.477.989.048c-.448.15-2.173.882-.989-.048m16.775-1.973c.044,0,.975,1.257,0,0m-.471-.412h0m-2.094-.245c3.43.578,3.169,4.6,0,0m-40.3-.274c-.7.578-.459.018,0,0m13.117-8.57c-5.823.339-16.512,0-21.375,3.1-6.346,4.05-3.007,17.99-2.439,24.1.839,9.033,5.09,11.605,13.6,12.553a226.081,226.081,0,0,0,30.789,1.075c9.19-.242,14.425-3.4,16.108-13.079.516-2.961,1.824-7.541,1.783-10.377-.028-1.967-1.008-2.864-1.379-4.537-2.111-9.523-5.64-10.653-15.4-11.068-7.184-.306-14.633-2.138-21.682-1.769" transform="translate(77.506 85.637)" fill="#89c5cc" fill-rule="evenodd"/>
    </g>
    <g id="Profile" transform="translate(459.896 516.056)" opacity="0.5">
      <path id="face-3" data-name="face" d="M85.008,7.889c14.8.315,31.6,8.509,29.261,25.868A28.207,28.207,0,0,1,88.793,57.686c-13.7.956-28.194-9.562-30.056-23.515C56.642,18.475,70.53,7.576,85.008,7.889M77.747.823c-6,.9-11.737,4.048-17.022,6.871C58.708,8.772,48.48,15.345,56.5,16.978,37.174,48.149,82.661,77.1,108.235,56.844c11.484-9.1,17.53-26.345,10.107-39.847C110.664,3.033,92.456-1.386,77.747.823" transform="translate(32.73 -0.284)" fill="#89c5cc" fill-rule="evenodd"/>
      <path id="Fill-231" d="M65.459,18.47c0,5.822,9.036,5.822,9.036,0s-9.036-5.822-9.036,0" transform="translate(41.481 8.601)" fill="#89c5cc" fill-rule="evenodd"/>
      <path id="Fill-233" d="M75.657,19.182c0,6.312,9.8,6.312,9.8,0s-9.8-6.312-9.8,0" transform="translate(48.037 8.822)" fill="#89c5cc" fill-rule="evenodd"/>
      <path id="Fill-235" d="M68.807,25.567c-1.319,4.788,13.714,7.244,14.215,1.7.238-2.648-13.3-5.043-14.215-1.7" transform="translate(43.58 14.919)" fill="#89c5cc" fill-rule="evenodd"/>
      <path id="Fill-237" d="M96.268,26.992c17.3-2.076,35.133-1.116,52.515-.619,4.35.126,8.7.248,13.05.32,2.766.046,8.739,1.374,11.153.079,9.885-5.3-9.506-7.865-12.252-8.108a598.874,598.874,0,0,0-61.312-1.259c-5.128.2-6.237,9.956-3.155,9.587" transform="translate(60.188 10.535)" fill="#89c5cc" fill-rule="evenodd"/>
      <path id="Hola-:_2" data-name="Hola-:)" d="M234.66,111.166c.148-18.124.8-36.371,2.191-54.441.567-7.366,1.248-14.721,1.812-22.087.266-3.469,1.5-8.329-.541-11.373a6.214,6.214,0,0,0-9.489-1.009c-3.325,4.3-2.359,11.529-2.772,16.736-.636,8.006-1.4,16.007-1.786,24.03a368.588,368.588,0,0,0,.337,46.836,142.175,142.175,0,0,0,3.567,21.594c.774,3.248,6.931,17.72,5.637,19.715-2.006,3.094-16.833,1.925-20.049,2.011-8.253.222-16.51.366-24.765.524q-10.6.2-21.2.294c-2.807.025-19.3-.475-15.639,3.687-40.906,2.851-82.593-1.908-123.25-3.54-2.054-.083-5.414-.666-8.515-.834a27.078,27.078,0,0,1-.752-3.767c-.535-6.534-.674-13.09-1.253-19.623-1.06-11.952-3.115-23.784-4.338-35.715s-1.1-23.874-1.808-35.822c-.122-2.048-.41-18.818-4.642-22.892a19.211,19.211,0,0,0,7.105.709c15.082-1.217,30.054-3.837,45.006-6.087,4.278-.643,13.986-.187,17.534-2.326,3.071-1.852,4.286-8.342-1.056-7.817-14.91,1.6-29.739,4.076-44.532,6.517-3.956.652-7.9,1.35-11.849,2.064-2.635.476-9.591.44-11.635,2.028-2.482,1.929-2.746,3.241-1.9,4.113C4.9,34.37,3.5,34.875,1.815,36.56c-3.183,4.143-.19,14.346.189,19.2.456,5.827.68,11.664.946,17.5a290.115,290.115,0,0,0,3.513,33.6c2.037,12.5,3.769,25.057,5.811,37.556a86.9,86.9,0,0,0,2.109,9.572c-5.5,2.814-1.761,7.289,2.6,8.083l.1.015c1.36,3.317,3.262,6.39,4.748,1.945a4.394,4.394,0,0,0,.18-1.232c11.269,1.276,23.655.483,34.749.936,24.031.982,48.211,2.456,72.267,1.709a279.2,279.2,0,0,0,28.519-2.412c5.533-.744,11.087-1.632,16.531-2.867.39-.088.983-.181,1.668-.293l.331-.008q12.5-.189,25-.7c6.992-.29,14.014-.44,20.984-1.1,4.329-.41,13.478-.334,16.135-4.687,2.417-3.959-1.623-14.155-2.2-18.6a173.682,173.682,0,0,1-1.33-23.619" transform="translate(-0.365 12.352)" fill="#c1dee2" fill-rule="evenodd"/>
      <path id="Fill-241" d="M126.125,43.63c-6.661.571-12.82,3.7-19.543,3.738-5.642.032-11.2-1.654-16.871-1.405-6.655.29-10.317,4.594-16.146,6.034C68.923,53.143,66,49.59,61.917,48.018c-5.154-1.985-8.961-.96-13.379,2.041-3.246,2.206-10.816,7.156-10.758,11.617C37.954,75.191,53.72,56.523,56.9,56.3c4.223-.3,8.941,4.513,13.434,4.788,5.941.363,9.75-3.466,15.22-4.862,5.532-1.411,11.512.318,17.057.854,6.328.612,11.865-.8,17.986-2.309a36.335,36.335,0,0,1,17.015-.157c4.068.83,14.2,5.653,15.983-.549,2.424-8.446-22.811-10.829-27.468-10.433" transform="translate(23.687 27.555)" fill="#89c5cc" fill-rule="evenodd"/>
      <path id="Fill-243" d="M119.384,59.309C105.735,60.634,92,61.8,78.291,62.168c-5.939.162-28.768-2.384-26.744,5.163,1.735,6.47,32.8,2.4,39.13,1.9,6.986-.543,13.96-1.3,20.912-2.181,2.463-.312,8.412.011,10.151-2.055,1.657-1.971.84-6.008-2.357-5.688" transform="translate(32.456 37.65)" fill="#89c5cc" fill-rule="evenodd"/>
      <path id="have-a-nice-day-:_" data-name="have-a-nice-day-:)" d="M39.731,83.581h0m2.879-.039c3.4-.107,2.673-1.9,6.068-.967,1.566.431,1.726-.209,2.94,1.288,2.368,2.919.138,9.277-2.2,11.629-8.643,8.71-19.016-11.563-6.811-11.95m0-8.546c-23.662.795-13.762,37.346,6.832,29.885,8.505-3.082,13.851-16.964,8.849-24.765-2.434-3.795-5.536-4.47-9.613-4.733-.946-.061-2.137,1.314-2.728,1.252-1.4-.149-1.273-1.717-3.34-1.639" transform="translate(17.95 47.744)" fill="#89c5cc" fill-rule="evenodd"/>
      <path id="espero" d="M75.876,84.91c-.422-.13,7.471,2.165,6.608,1.266,1.843,1.916-.635,6.449-2.72,7.24-5.048,1.917-7.882-5.934-3.888-8.506M79.378,75c-7.409,1.05-13.127,4.135-14.139,12.374-.934,7.6,4.2,15.306,12.309,15.454,17.666.323,18.2-30.113,1.831-27.828" transform="translate(41.269 47.668)" fill="#89c5cc" fill-rule="evenodd"/>
      <path id="hola" d="M128.759,87.808c1.035,13.5-12.968,1.144,0,0M122.749,73.36c-1.224,2.094-.18,4.315,1.668,5.532-16.517,3.491-12.776,28.347,4.032,24.674C137,101.7,138.568,92.711,137.294,85.29c-.606-3.529-9.4-20.725-14.544-11.93" transform="translate(72.536 45.102)" fill="#89c5cc" fill-rule="evenodd"/>
    </g>
    <path id="Fill-251" d="M446.463,419.47c-4.924.876-16.564,6.314-16.462,12.154.158,9.117,10.051-.842,12.251-2.181,11.821-7.195,27.133,2.128,39.442,4.112,5.643.909,16.683,2.59,21.668-1.193,8.865-6.726-11.637-5.042-14.248-5.312-14.192-1.466-28.311-10.142-42.651-7.58" transform="translate(247.795 228.018)" fill="#c1dee2" fill-rule="evenodd" opacity="0.5"/>
    <g id="List" transform="translate(922.777 568.569)" opacity="0.5">
      <path id="Fill-253" d="M2.611,11.247c0,9.328-.476,18.85,1.243,28.067.521,2.79.931,8.135,3.875,9.583s5.823-.18,6.558-3.21c.857-3.526-1.023-8.8-1.213-12.506-.261-5.057-.279-10.121-.281-15.185,0-3.657,1.2-9.539-3.115-11.421a5.2,5.2,0,0,0-7.066,4.672" transform="translate(1.44 3.571)" fill="#c1dee2" fill-rule="evenodd"/>
      <path id="Fill-255" d="M149.267.312c-30.907,3.1-62.258,3.747-93.276,5.365-14.338.748-31.666-.206-45.175,5.344-2.507,1.031-11.492,6.767-4.2,9.1,2.273.729,4.583-1.721,6.449-2.541,3.109-1.365,6.708-1.788,10.023-2.321,28.185-4.526,57.666-3.738,86.141-5.853,7.3-.542,14.6-1.1,21.877-1.817,5.2-.512,16.136-4.261,20.936-2.343,8.2,3.277,8.011,24.568,8.173,31.89.084,3.787-3.591,17.38,3.715,16,5.848-1.1,3.73-15.225,3.275-19.088-1.2-10.126-3.236-35.232-17.941-33.742" transform="translate(2.258 -0.248)" fill="#c1dee2" fill-rule="evenodd"/>
      <path id="Fill-257" d="M159.018,32.151c-26.846,2.424-54.31.046-81.266,1-14.13.5-28.245,1.3-42.376,1.763-6.112.2-12.229.211-18.344.254-2.925.02-16.234,1.793-8,7.591,3.646,2.567,15.263.5,19.446.449,6.283-.074,12.563-.335,18.841-.581,14.543-.569,29.077-1.357,43.628-1.75,13.919-.377,27.844-.458,41.762-.834a175.858,175.858,0,0,0,20.809-1.411c1.549-.228,6.579-.41,7.655-2.137,1.017-1.633.3-4.579-2.155-4.343" transform="translate(3.904 20.251)" fill="#89c5cc" fill-rule="evenodd"/>
      <path id="Fill-259" d="M22.316,25.1h0m11.625-3.533h0m-.544-.1c6.265,6.386-3.37,14.008-9.238,7.776-6.229-6.614,5.2-7.755,9.238-7.776M26.752,11.81c-21.58,3.84-13.939,32.6,6.216,28.444a14.525,14.525,0,0,0,10.863-19.3c-1.19-3.345-3.783-7.017-7.4-8.072-1.8-.525-3.394.3-5.109.108-1.636-.184-2.544-1.545-4.574-1.179" transform="translate(8.666 7.144)" fill="#c1dee2" fill-rule="evenodd"/>
      <path id="Fill-261" d="M92.808,16.79c-13.013.041-26.029.594-39.039.84-3.991.075-14.248-1.711-14.264,4.581-.018,6.722,11.408,4.24,15.211,4.149,12.906-.308,25.845-.874,38.7-2.1,3.247-.311,14.487.225,14.476-4.19-.012-4.678-12.46-3.277-15.082-3.277" transform="translate(25.198 10.259)" fill="#c1dee2" fill-rule="evenodd"/>
      <path id="Fill-263" d="M147.246,43.434c-32.184.863-64.319,1.164-96.477,2.812-12.028.616-24.04,1.074-36.086,1.074-2.32,0-6.991-.9-9.175.563-5.926,3.963.822,7.364,4.684,7.578,26.418,1.466,53.218-2.183,79.62-3.006,15.457-.482,30.917-.624,46.365-1.411,4.214-.215,8.429-.464,12.637-.79,2.419-.187,8.818.327,10.774-1.089,8.539-6.18-9.463-5.808-12.342-5.73" transform="translate(1.84 27.493)" fill="#89c5cc" fill-rule="evenodd"/>
      <path id="Fill-265" d="M1.057,55.184a147.843,147.843,0,0,0,.758,24.841c.43,3.265.627,6.971,4.454,7.8,3.476.753,5.239-1.876,5.959-4.791,1.757-7.118.211-17.363.19-24.758-.009-3.656-.013-7.748-4.531-8.575a5.753,5.753,0,0,0-6.83,5.482" transform="translate(0.365 31.479)" fill="#89c5cc" fill-rule="evenodd"/>
      <path id="Fill-267" d="M183.32,65.25Q105.174,69.368,27.059,72.6c-4.066.172-35.651-.172-24.609,10.843,3.411,3.4,12.2,1.1,16.609.882,6.628-.326,13.26-.575,19.888-.912,26.28-1.338,52.629-1.7,78.889-3.2q21.677-1.239,43.246-3.8c6.838-.8,15.326-.717,21.73-3.4,3.295-1.379,6.85-8.1.508-7.759" transform="translate(-0.12 41.53)" fill="#89c5cc" fill-rule="evenodd"/>
      <path id="Fill-269" d="M94.345,40.35c-3.962,3.946-1.925,11.73-1.626,16.607.41,6.712.91,13.427,1.747,20.1.545,4.336.257,11.084,2.57,14.829a6.4,6.4,0,0,0,11.122-.336c2.166-3.747,1.07-11.632,1.014-15.785-.077-5.743-.435-11.494-.776-17.226-.285-4.79.8-12.467-1.835-16.566A7.873,7.873,0,0,0,94.345,40.35" transform="translate(58.9 24.101)" fill="#89c5cc" fill-rule="evenodd"/>
      <path id="Fill-271" d="M24.833,61.825h0m9.253-1.159c8.634,1.737-5.327,11.817-9.74,4.9-.689-1.081-1.047-2.41.059-3.349,1.01-.858,1.644.661,2.6.253,1.643-.7,5.33-1.868,7.082-1.8M32.9,52.39c-5.895.467-14,.831-16.918,6.74-3.92,7.937,2.784,15.71,10.539,16.917,7.463,1.163,18.606-2.971,19.2-11.676C46.2,57.353,39.527,51.851,32.9,52.39" transform="translate(9.332 33.247)" fill="#89c5cc" fill-rule="evenodd"/>
      <path id="Fill-273" d="M66.113,55.108c-6.1.1-18.1-1.706-23.414,1.268-5.261,2.943-2.915,8.184,1.884,9.438,3.172.828,8.357-.509,11.66-.643,4.344-.177,8.692-.215,13.04-.275,7.311-.1,14.619-.015,21.931-.015,7.468,0,15.063.2,22.518-.345,9.432-.694,9.178-7.757-.046-8.64-15.671-1.5-31.851-1.035-47.573-.788" transform="translate(25.329 34.726)" fill="#89c5cc" fill-rule="evenodd"/>
      <path id="Fill-275" d="M46.293,103.663c0,3.356,2.977,0,2.956,0,.021,0-2.956-3.356-2.956,0" transform="translate(29.562 65.273)" fill="#89c5cc" fill-rule="evenodd"/>
      <path id="Fill-277" d="M5.3,88.472c.192,9.754.318,19.517.735,29.264.132,3.082-.751,9.1,2.985,10.671,4.158,1.749,5.45-2.611,5.93-5.564,1.517-9.358.03-20.043-.116-29.513-.049-3.179.639-7.606-2.972-9.191A4.815,4.815,0,0,0,5.3,88.472" transform="translate(3.207 53.451)" fill="#89c5cc" fill-rule="evenodd"/>
      <path id="Fill-279" d="M166.644,89.926h0m.348-.1h0m-78.8-7.883c-14.974.234-29.958.413-44.922,1.054-6.387.274-12.847.495-19.212,1.1-4.508.426-15.707.6-18.631,4.288-6.034,7.6,6.761,5.53,9.517,4.913a91.492,91.492,0,0,1,15.259-1.755c11.118-.586,22.24-.9,33.372-1.124,30.186-.608,60.4-.515,90.588-.652,2.923-.013,8.206-1.188,10.906-.006s2.552,4.1,2.833,7.482c.374,4.5-2.6,13.079-.333,16.865,3.509,5.873,8.612.886,9.393-3.4,1.077-5.916-.631-13.02-2.3-18.675-2.359-7.979-5.635-8.3-13.352-8.92-9.016-.729-18-1.17-27.047-1.254-15.352-.141-30.715-.156-46.067.082" transform="translate(2.266 52.15)" fill="#89c5cc" fill-rule="evenodd"/>
      <path id="Fill-281" d="M146.46,107.516c-32.478,3.772-65.881,1.549-98.532,1.683-7.94.033-15.887.1-23.82.481-4.19.2-14.121-.952-16.992,2.279-6.05,6.814,4.849,7.805,8.828,7.523,8.045-.572,16.109-.833,24.174-.9,28.409-.219,56.979,1.106,85.365-.3,11.892-.587,23.519-2.621,35.191-4.895,2.586-.5,20.288-3.869,10.194-7.9-5.966-2.384-18.141,1.29-24.408,2.022" transform="translate(3.226 66.898)" fill="#89c5cc" fill-rule="evenodd"/>
      <path id="Fill-284" d="M40.981,103.756h0m-.218-.05c-.077.209-.316.724,0,0m-2.049-2.643h0m-.079-.02a7.48,7.48,0,0,1,1.579,3.124c-6.729,1.823-9.322-3.621-1.579-3.124m-.426-.255h0m-11.054-8.11c-4.355,5.424-7.95,11.744-2.52,17.939,4.855,5.539,14.623,6.253,20.784,2.556,6.347-3.81,5.8-11.832,1.371-17.067-2.851-3.371-5.161-3.277-9.3-3.828-2.816-.375-7.948-2.564-10.337.4" transform="translate(13.877 58.186)" fill="#89c5cc" fill-rule="evenodd"/>
      <path id="Fill-286" d="M52.5,100.023c0,7.222,31.183,4.113,36.731,4.106,4.647-.007,32.746,2.557,30.729-4.876-1.657-6.107-29.335-3.071-35.229-3.08-5.095-.007-32.231-3.505-32.231,3.85" transform="translate(33.552 60.878)" fill="#89c5cc" fill-rule="evenodd"/>
    </g>
    <g id="Checkmark_" data-name="Checkmark!" transform="translate(559.526 781.838)" opacity="0.5">
      <path id="Fill-292" d="M42.214,13.243c15.617,2.268,31.862,9.612,31.725,27.79-.114,15.284-12.933,31.55-29.393,30.637-14.813-.821-28.761-17.02-30.616-30.9A29.715,29.715,0,0,1,19,19.916c5.543-7.752,14.34-7.74,23.216-6.673m-7.377-9.88c-11.295.061-19.559,4.148-26.55,12.772C5.781,19.227,2.865,22.556.957,26.059-.826,29.331-.513,37.652,5.6,33.752,4.1,49.861,13.512,65.5,27.047,73.75c14.712,8.973,31.341,7.224,43.585-5.353,11.208-11.513,15.153-30.959,6.953-45.2S50.4,3.21,34.838,3.363" transform="translate(-0.01 2.053)" fill="#89c5cc" fill-rule="evenodd"/>
      <path id="Fill-294" d="M61.8,1.163A100.465,100.465,0,0,0,42.482,20.521c-5.361,6.919-8.9,15.559-15.344,21.592C23.887,38.571,20.076,29.005,13.59,32.8c-5.383,3.149-1.917,8.565.7,12.121C21.064,54.1,28.582,57.8,37.265,48.727,45.151,40.488,49.629,29.5,57,20.784c3.234-3.823,8.23-7.618,10.806-11.838,2.335-3.826-.553-11.79-6.006-7.782" transform="translate(6.897 -0.065)" fill="#89c5cc" fill-rule="evenodd"/>
    </g>
    <g id="Whiteboard-Stuff" transform="translate(755.009 184.23)" opacity="0.5">
      <path id="Wireframy-Stuff-2" data-name="Wireframy-Stuff" d="M46.728,72.128c.244-.037.481-.063.71-.078,6.03-.382,12.138-.224,18.18-.364,12.371-.287,25.229.389,37.528-1.059,2.5-.324,3.374,2.883,2.252,4.545-1.259,1.866-5.286,1.771-7.151,2.047a161.382,161.382,0,0,1-16.5,1.335c-5.785.256-11.575.448-17.364.609C59.37,79.3,48.244,81.4,43.6,79.3c-3.615-1.635-3.53-3.451-2.055-4.858-.894-1.966-.747-5.186-.939-6.731a159.013,159.013,0,0,1-1.3-19.4c-.023-12.792,0-26.077,3.541-38.459C41.438,9.233,40.583,8.318,40.587,7,40.606-.831,69.333,1.039,75.158.883,82.318.7,89.479.672,96.64.711c4.732.025,11.133-1,15.845.1,9.175,2.13,8.594,17.859,8.782,25.465a399.263,399.263,0,0,1-.967,41.6c-.382,4.7-3.8,10.656-7.7,4.178-2.175-3.612-1.205-12.05-1.208-16.04-.011-14.187,2.213-28.8.086-42.918-.7-4.627-.543-4.94-5.251-4.842-3.734.078-7.468.2-11.2.28-7.6.16-15.211.264-22.813.542-2.887.106-13.26,1.919-21.35,1.912,0,.065.011.129.012.2.111,5.47-2.571,12.108-2.935,17.863-.877,13.841.17,28.007-1.126,41.778C46.773,71.236,46.752,71.681,46.728,72.128Z" transform="translate(25.271 -0.302)" fill="#89c5cc" fill-rule="evenodd"/>
      <path id="Wireframy-Stuff-3" data-name="Wireframy-Stuff" d="M112.269,75.575a10.223,10.223,0,0,1-2.331-4.129c-1.951-6.315-2.136-13.129-2.28-19.677-.309-13.995-.155-28.015-.239-42.014-1.269-1.7-.516-3.655,1.068-5.015C112.766,1.066,125.1,2,130.529,1.71,138.347,1.3,146.171,1.2,154,1.173c8.289-.042,16.589.107,24.874.362,3.073.094,24.445.632,14.892,5.813a9.979,9.979,0,0,1-1.834.75,30.25,30.25,0,0,1,.381,5.956c-.406,7.451-.58,14.915-.911,22.37-.369,8.321-.72,16.64-1.007,24.965-.152,4.4,1.354,14.633-2.129,17.81-2.347,2.142-3.951,1.713-5.031.258-8.334,2.42-27.566.861-31.069.862-6.276,0-40.362,4.037-40.419-3.224A2.425,2.425,0,0,1,112.269,75.575Zm5.538-2.568c9.509-2.031,27.239-.674,30.969-.688,6.948-.027,13.9.069,20.841.347,2.164.086,7.457-.33,11.637.133-.037-.378-.063-.724-.078-1.023-.379-7.493.033-15.065.276-22.558.243-7.553.615-15.1.906-22.65.15-3.884-.831-11.991.232-17.581-5.047-.1-10.339-.706-13.744-.706-7.991,0-15.977-.091-23.967.067-8.63.171-17.353.272-25.922,1.411-.47.062-1.034.183-1.658.329,1.3,5.457-.279,14.232-.284,19.287-.016,14.165.506,28.254.823,42.344Q117.853,72.411,117.807,73.006Z" transform="translate(68.641 0.253)" fill="#89c5cc" fill-rule="evenodd"/>
      <path id="Fill-135" d="M62.438,48.435c-5.138,3-2.367,15.008-.587,19.16,2.926,6.828,8.864,12.171,15.27,15.715,12.949,7.163,31.615,5.261,41.409,17.68.1.129,3.487,3.48,4.257-.86.633-3.562-5.687-9-8.136-10.787-6.964-5.077-15.9-6.714-23.95-9.25-8.59-2.7-18.017-7.691-21.619-16.547-1.275-3.137,1.156-19.691-6.644-15.112" transform="translate(38.242 30.129)" fill="#c1dee2" fill-rule="evenodd"/>
      <path id="Fill-137" d="M155.054,51.7c-4.709,1.3-1.594,7.777-1.6,11.021a19.213,19.213,0,0,1-3.8,11.512c-6.325,8.191-18.71,9.418-28,11.766-6.742,1.706-22.874,5.365-23.5,14.483-.705,10.183,13.536-2.209,14.739-2.717,13.311-4.883,30.532-5.826,40.806-16.574a26.414,26.414,0,0,0,7.146-16.469c.225-3.441.263-14.676-5.791-13.022" transform="translate(63.082 32.634)" fill="#c1dee2" fill-rule="evenodd"/>
      <path id="Fill-139" d="M107.786,86.029c19.6-5.163,37.851,8.569,40.161,28.321,2.438,20.846-13.273,37.627-33.992,38.548-18.226.809-40.277-12.241-40.394-32.345C73.452,101.713,91.482,90.316,107.786,86.029Zm9.432,14.052c-3.352,1.954-3.966-3.115-6.339-3.784s-6.211,1.835-8.2,3.3c-3.369,2.481-12.7,16.923-17.226,9.08-13.728,23.7,20.5,41.445,39.957,32.474,21.374-9.852,17.213-45.871-8.078-46.059C118.4,96.529,119.353,98.828,117.218,100.081Z" transform="translate(47.288 54.104)" fill="#89c5cc" fill-rule="evenodd"/>
      <path id="Fill-141" d="M89.289,104.058c0,4.325,6.829,4.325,6.829,0,0-4.275-6.829-4.458-6.829,0" transform="translate(57.399 64.292)" fill="#89c5cc" fill-rule="evenodd"/>
      <path id="Fill-143" d="M96.6,103.852c0,5.3,8.369,5.3,8.369,0,0-5.237-8.369-5.461-8.369,0" transform="translate(62.101 63.686)" fill="#89c5cc" fill-rule="evenodd"/>
      <path id="Fill-145" d="M91.936,109.947c-6.844,4.026,12.729,12.025,13.5,3.851.334-3.527-3.082-2.576-5.359-2.835-2.178-.249-6.076-2.219-8.143-1.016" transform="translate(58.169 69.935)" fill="#89c5cc" fill-rule="evenodd"/>
      <path id="Fill-147" d="M89.563,128.53c.3,10.283.155,20.559,2.1,30.7.371,1.925.628,8.911,2.15,10.341,3.744,3.519,3.806-3.226,3.951-5.81.519-9.258-.452-18.8-.667-28.082-.046-2,.483-6.133-.46-8.066-1.5-3.068-7.224-3.979-7.079.919" transform="translate(57.574 79.914)" fill="#c1dee2" fill-rule="evenodd"/>
      <path id="Fill-149" d="M124.267,122.553c-15,16.84-35.666,15.6-56.482,17.075-11,.779-22.118,2.379-30.968,9.493A37.59,37.59,0,0,0,26.767,161.3c-1.042,2.065-5.987,13.981,1.439,11.154,2.634-1,5.226-8.883,6.93-11.213a33.094,33.094,0,0,1,12.375-10.486c9.606-4.6,21.076-4.517,31.491-5.1,10.887-.609,22.574-1.179,32.582-5.913a49.337,49.337,0,0,0,12.914-8.584c1.354-1.28,4.257-3.453,4.473-5.41.247-2.236-1.9-6.331-4.7-3.193" transform="translate(15.55 77.554)" fill="#c1dee2" fill-rule="evenodd"/>
      <path id="Fill-151" d="M59.618,153.975c-14.094.471-28.171,1.041-42.245,1.932-2.884.182-12.5-.4-10.051,5.51,1.963,4.737,13.691,1.6,17.57,1.374,14.666-.871,29.393-1.173,44.028-2.493,3.288-.3,18.148-.178,12.012-6-2.919-2.773-17.28-.457-21.313-.319" transform="translate(4.452 97.82)" fill="#89c5cc" fill-rule="evenodd"/>
      <path id="Fill-153" d="M2.825,158.233c-4.443,5.835-2.4,20.016-2.066,27.03.325,6.8-1,19.226,7.878,20.28-2.817-.37,2.139.171,2.945.214,1.8.1,3.611.128,5.415.148,4.167.046,8.337-.01,12.5-.094,9.438-.189,18.9-.463,28.328-.985,3.962-.22,25.458-.036,26.309-4.153,1.087-5.26-19.523-2.284-23.212-2.116-8.985.412-17.985.5-26.978.617-4.457.059-8.919.1-13.376.015-1.84-.036-9.129.72-10.248-.508-.954-1.046-.209-10.656-.23-12.126-.065-4.792-.06-9.6.11-14.386.115-3.225,1.859-9.361.438-12.39a4.907,4.907,0,0,0-7.817-1.547" transform="translate(0 100.36)" fill="#89c5cc" fill-rule="evenodd"/>
      <path id="Fill-155" d="M45.9,160.053c.257,10.674.337,21.564,2.858,32,.839,3.474,2.015,10.638,5.505,12.437,3.663,1.888,6.826-.807,7.065-4.436.3-4.563-2.142-10.554-2.643-15.236-.586-5.463-.926-10.931-1.126-16.421-.152-4.128,1.1-10.318-2.832-12.981-3.535-2.392-8.942.017-8.827,4.633" transform="translate(29.503 98.812)" fill="#89c5cc" fill-rule="evenodd"/>
      <path id="Fill-157" d="M64.059,156.96c-4.383,4.366-2.424,18.191-1.876,23.8.4,4.109,4.9,24.324,11.638,13.783,2.981-4.663-.806-16.993-.78-22.43.018-3.463,1.243-7.842.652-11.168-.782-4.4-5.658-7.957-9.634-3.986" transform="translate(39.388 99.299)" fill="#89c5cc" fill-rule="evenodd"/>
      <path id="Wireframy-Stuff-4" data-name="Wireframy-Stuff" d="M164.714,194.779a3.658,3.658,0,0,1,.766,3.991c-1.507,3.5-7.052,2.743-10.064,2.994-10.052.838-20.151,1.4-30.239,1.485-9.747.086-19.5-.164-29.243-.068-8.12.08-16.577,1.725-24.622,1.4-3.359-.138-6.945-1.238-6.094-5.578.755-3.851,4.629-3.881,7.788-4.2a272.307,272.307,0,0,1,28.6-1.277c20.094.07,40.171-.034,60.264-.139a4.351,4.351,0,0,1,2.245.865c-1.051-1.276-.546-3.165-.742-5.009-.528-4.971-.869-9.857-1.811-14.827-.754-3.976-1.322-10.728-5-13.229-4.022-2.731-12.95-1.827-17.75-1.951a334.169,334.169,0,0,0-38.76,1.753c-5.863.533-11.8.939-17.595,1.992-3.228.587-12.7,5.325-15.276,2.41-6.208-7.021,21.071-9.9,24.775-10.286,13.166-1.358,26.349-2.377,39.587-2.5,8.941-.07,24.24-.832,30.814,6.5,3.948,4.4,5.333,11.66,6.873,17.156,1.183,4.221,4.393,11.832,2.112,16.192-1.032,1.973-2.693,3.655-5.214,2.956A4.733,4.733,0,0,1,164.714,194.779Z" transform="translate(41.844 97.561)" fill="#89c5cc" fill-rule="evenodd"/>
      <path id="Line" d="M202.485,161.684h0m-89.1-43.5c-8,4.7,6.8,18.492,10.574,20.625,8.484,4.8,20.142,5.524,29.616,6.873,11.989,1.709,25.038,2.338,36.559,6.267,4.91,1.674,8.03,4.287,11.245,8.3,1.629,2.034,5.551,10.8,9.122,8.727,7.192-4.18-12.186-21.722-16.456-23.608-9.706-4.288-21.18-5.489-31.558-7.153-9.65-1.549-19.508-2.7-28.92-5.43-5.175-1.5-8.854-3.922-11.837-8.556-1.859-2.888-3.384-8.948-8.344-6.046" transform="translate(71.389 74.987)" fill="#c1dee2" fill-rule="evenodd"/>
      <path id="Wireframy-Stuff-5" data-name="Wireframy-Stuff" d="M140.392,198.373c-2.392-4.585-3.491-13.393-3.7-15.133a160.755,160.755,0,0,1-.863-22.442,4.917,4.917,0,0,1,7.883-3.792c4.106-1.719,11.054-1.978,14.788-2.355,6.135-.62,12.323-.85,18.476-1.218,14.365-.859,28.714-2.408,43.106-2.727,4.307-.09,10.074-.478,13.518,2.7,3.921,3.62,4.7,12.6,5.877,17.437,1.276,5.254,2.8,10.6,3.334,15.99a30.433,30.433,0,0,1,.311,5.382A3.371,3.371,0,0,1,245.8,196.1c-.336,3.525-5.219,4.005-8.076,4.563-9.5,1.855-19.656,1.433-29.287,1.706-20.149.567-41.7,3.822-61.771,1.884C143.232,203.916,139.541,202.7,140.392,198.373Zm7.254-4.147c.8-.006,1.587.008,2.322,0q15.2-.266,30.389-.874c10.329-.4,20.657-.839,30.993-.957,8.216-.093,16.677.616,24.952.3-1.779-4.657-1.51-11.989-2.458-16.811-.942-4.788-1.3-10.467-3.225-14.964-2.167-5.059-4.051-3.889-9.694-3.506-5.8.394-11.6.947-17.394,1.424-12.742,1.048-25.5,1.711-38.246,2.6-6.614.46-12.942,2.349-19.411,3.089-.1,2.309-.423,4.638-.386,6.323.108,4.969.6,9.9,1.029,14.853C146.691,187.706,147.522,191.18,147.646,194.225Z" transform="translate(87.284 96.345)" fill="#89c5cc" fill-rule="evenodd"/>
    </g>
  </g>
</svg>
