<svg xmlns="http://www.w3.org/2000/svg" width="699.999" height="610.458" viewBox="0 0 699.999 610.458">
  <path id="Intersection_1" data-name="Intersection 1" d="M28.122,759.459v-14.25h30.4v14.25Zm625.6-.208V745H700v14.25Zm-43.7,0V745h30.4v14.25Zm-291.659,0V745H596.718v14.25Zm-91.2,0V745h77.9v14.25Zm-112.1,0V745h98.8v14.25Zm-43.7,0V745h30.4v14.25Zm613.59-37V708H700v14.251Zm-45.6,0V708h30.4v14.251Zm-293.558,0V708H624.143v14.251Zm-93.1,0V708h77.9v14.251Zm-114,0V708h98.8v14.251Zm-93.1,0V708h77.9v14.251Zm629.993-37V671H700v14.251Zm-398.06,0V671H662.27v14.251Zm-91.2,0V671h77.9v14.251Zm-43.7,0V671h30.4v14.251Zm-112.1,0V671h98.8v14.251Zm567.291-37V634h98.8v14.25Zm-43.7,0V634h30.4v14.25Zm-291.657,0V634H540.793v14.25Zm-91.2,0V634h77.9v14.25Zm-112.1,0V634h98.8v14.25Zm-43.7,0V634h30.4v14.25Zm624.293-37V597H700v14.25Zm-45.6,0V597h30.4v14.25Zm-293.557,0V597H578.92v14.25Zm-93.1,0V597h77.9v14.25Zm-114,0V597h98.8v14.25Zm-93.1,0V597h77.9v14.25Zm.635-37.695V559.3h30.4v14.252Zm594.956-.306V559h98.8v14.25Zm-45.6,0V559h30.4v14.25Zm-293.558,0V559H535.143v14.25Zm-93.1,0V559h77.9v14.25Zm-114,0V559h98.8v14.25Zm610.816-37V522H700v14.25Zm-398.06,0V522H647.195v14.25Zm-91.2,0V522h77.9v14.25Zm-43.7,0V522h30.4v14.25Zm-112.1,0V522h98.8v14.25Zm679.395-37V485H700V499.25Zm-112.1,0V485h98.8V499.25Zm-43.7,0V485h30.4V499.25Zm-291.659,0V485H525.718V499.25Zm-91.2,0V485h77.9V499.25Zm-112.1,0V485h98.8V499.25Zm-43.7,0V485h30.4V499.25Zm.635-36.695v-14.25h30.4v14.25Zm594.956-.305V448h98.8V462.25Zm-45.6,0V448h30.4V462.25Zm-293.558,0V448H535.143V462.25Zm-93.1,0V448h77.9V462.25Zm-114,0V448h98.8V462.25Zm610.816-38V410H700v14.25Zm-398.06,0V410H647.195v14.25Zm-91.2,0V410h77.9v14.25Zm-43.7,0V410h30.4v14.25Zm-112.1,0V410h98.8v14.25Zm679.395-37V373H700v14.25Zm-112.1,0V373h98.8v14.25Zm-43.7,0V373h30.4v14.25Zm-291.659,0V373H525.718v14.25Zm-91.2,0V373h77.9v14.25Zm-112.1,0V373h98.8v14.25Zm-43.7,0V373h30.4v14.25ZM0,349.716V335.465H30.4v14.251Zm44.988-.208V335.257h30.4v14.251Zm594.955-.258V335H700v14.25Zm-45.6,0V335h30.4v14.25Zm-293.558,0V335H579.142v14.25Zm-93.1,0V335h77.9v14.25Zm-114,0V335h98.8v14.25ZM13.727,312.868v-14.25h30.4v14.25Zm304-.618V298H700V312.25Zm-95,0V298h77.9V312.25Zm-46,0V298h30.4V312.25Zm-116,0V298h98.8V312.25Zm-33-37.791V260.208h30.4v14.251Zm626-.208V260H700v14.251Zm-44,0V260h30.4v14.251Zm-291,0V260H597.084v14.251Zm-91,0V260h77.9v14.251Zm-112,0V260h98.8v14.251Zm-44,0V260h30.4v14.251Zm613-37V223H700v14.251Zm-45,0V223h30.4v14.251Zm-294,0V223H624.084v14.251Zm-93,0V223h77.9v14.251Zm-114,0V223h98.8v14.251Zm-93,0V223h77.9v14.251Zm630-37V186H700v14.25Zm-398,0V186H662.486v14.25Zm-91,0V186h77.9v14.25Zm-44,0V186h30.4v14.25Zm-112,0V186h98.8v14.25Zm567-37V149h98.8v14.25Zm-44,0V149h30.4v14.25Zm-291,0V149H541.085v14.25Zm-91,0V149h77.9v14.25Zm-113,0V149h98.8v14.25Zm-43,0V149h30.4v14.25Z" transform="translate(-0.001 -149)" fill="#f8f8f8"/>
</svg>
