<svg xmlns="http://www.w3.org/2000/svg" width="500.774" height="505.813" viewBox="0 0 500.774 505.813">
  <g id="Group_150" data-name="Group 150" transform="translate(-1150.488 -1313.188)">
    <g id="Whiteboard" transform="translate(1150.488 1313.188)">
      <path id="Background-Shape" d="M53.625,465.527c12.555-56.46,139.6-24.3,222.887-41.75s181.825-98.745,247.038-58.925-4.173,136.077-153.744,157.8S41.069,521.987,53.625,465.527Z" transform="translate(-47.309 -101.039)" fill="#f2f2f2" fill-rule="evenodd"/>
      <g id="Cells" transform="translate(34.068 40.899)" opacity="0.5">
        <path id="Fill-5" d="M1.553,2.343C.495,3.4.906,7.152.884,8.541c-.034,2.162.1,4.3.281,6.459.121,1.442.8,15.207,2.7,14.15,1.071-.6.4-4.577.4-5.837,0-2.8-.121-5.593-.307-8.387A73.4,73.4,0,0,1,3.776,7.17C3.8,6.536,4.394-.5,1.553,2.343" transform="translate(-0.408 -0.634)" fill="#89c5cc" fill-rule="evenodd"/>
        <path id="Fill-7" d="M47.431.143c-9.086.072-18.168.52-27.25.8-4.37.132-8.737.3-13.1.542-1.487.083-4.678-.394-5.917.4C-1.589,3.639,2.848,4.05,4.03,4.007,22,3.355,39.981,2.5,57.969,2.457c8.824-.02,17.643.232,26.468.175C87.81,2.61,91.545,1.157,92.4,5.083c.961,4.431-.143,9.364-.444,13.816a78.11,78.11,0,0,0,0,8.852,46.456,46.456,0,0,0,.2,5.913c.324,1.8,1.616,2.876,2.8.862.708-1.2.356-4.174.4-5.569.063-1.877,0-3.754,0-5.632,0-4.583.646-9.149.561-13.731-.055-2.955-.212-8.312-3.939-9.022-4.1-.782-9.149,0-13.349-.044C68.231.41,57.841.061,47.431.143" transform="translate(-0.229 -0.131)" fill="#89c5cc" fill-rule="evenodd"/>
        <path id="Fill-9" d="M22.372,42.759q-5.139,0-10.278.077c-2.938.049-7.558-.564-10.292.487-1.872.72-2.369,2.81,0,3.366,2.584.607,6.479-.386,9.182-.433,13.557-.239,27.245-.551,40.784.306,12.686.8,25.616,1.582,38.321.734,1.069-.071,6.521-.288,4.033-2.332-1.451-1.193-7.333-.408-9.22-.465-6.653-.2-13.312-.245-19.962-.5-6.564-.249-13.1-.987-19.664-1.17-7.628-.212-15.273-.074-22.9-.074" transform="translate(-0.206 -14.079)" fill="#89c5cc" fill-rule="evenodd"/>
        <path id="face" d="M22.886,12.24c5.34.233,10.623,7.977,5.22,11.72-5.069,3.512-14.568-.337-11.75-7.147-.405.985.512-1.07.524-1.083A14.65,14.65,0,0,1,19.04,13.9a8.529,8.529,0,0,1,2.455-1.482c.6-.187.5.518,1.392-.18m-2.6-2.793a12.008,12.008,0,0,0-5.357,4.068c-1.188,1.378-2.7,2.1-2.69,3.967,0,.412.533.865.624,1.263.126.549-.02,1.252.08,1.835,1.034,6.017,8.213,8.046,13.468,6.91,4.578-.99,8-5.384,6.941-10.162-1.068-4.81-8.2-9.784-13.066-7.88" transform="translate(-4.148 -3.047)" fill="#89c5cc" fill-rule="evenodd"/>
        <path id="Fill-13" d="M20.9,21.344c0,2.165,3.419,2.165,3.419,0,0-2.14-3.419-2.232-3.419,0" transform="translate(-6.985 -6.544)" fill="#89c5cc" fill-rule="evenodd"/>
        <path id="Fill-15" d="M27.258,20.856a1.36,1.36,0,0,0,2.717,0,1.36,1.36,0,0,0-2.717,0" transform="translate(-9.069 -6.494)" fill="#89c5cc" fill-rule="evenodd"/>
        <path id="Fill-17" d="M26.937,26.736c-.87.334-1.974-.359-2.688.1-1.265.81,0,1.542.681,1.868,3.053,1.465,3.6-2.574,2.007-1.966" transform="translate(-7.907 -8.827)" fill="#89c5cc" fill-rule="evenodd"/>
        <path id="Fill-19" d="M82.48,18.613h0M69.186,16.67c-2.285.516-4.214,2.649-6.7,2.364-1.9-.219-3.19-2.055-5.068-2.321-2.4-.342-8.941,5.139-5.5,6.079,2.006.549,3.118-3.116,4.89-3.311,1.4-.154,3.308,1.565,4.76,1.81,2.71.457,4.57-1.036,6.949-2,2.585-1.046,4.055-.1,6.3,1.058A8.138,8.138,0,0,0,80.3,21.487c1.905-.355,4.3-2.314,6.217-2.113,1.879.2,3.219,2.157,5.152,2.339.8.075,1.983.346,1.849-.883-.107-.984-1.205-.817-1.892-1.175-1.767-.92-3.419-2.55-5.552-2.411-1.6.1-3.064,1.232-4.542,1.771C76.687,20.78,73.965,15.6,69.186,16.67" transform="translate(-16.828 -5.501)" fill="#89c5cc" fill-rule="evenodd"/>
        <path id="Fill-21" d="M58.4,63.094c-9.338.086-18.708.224-28.02.973-2.208.177-24.75,2.306-24.707,2.459.079.284,2.978.717,2.96.784q-.293-.727-1.34-.6c21.379,0,42.691-1.914,64.1-1.57,5.379.086,10.778.05,16.153.22,1.342.042,4.667,1,5.721.4,2.766-1.59-2.259-1.774-3.091-1.841-10.535-.843-21.21-.927-31.775-.822" transform="translate(-1.997 -20.748)" fill="#69a1ac" fill-rule="evenodd"/>
        <path id="Fill-23" d="M1.24,69.519c-1.4,1.4-.111,6.435-.056,8.327.08,2.736.014,5.492.254,8.22a55.6,55.6,0,0,0,1.517,9.463c.45,1.666,2.032,4.314,2.658,1.287.447-2.162-.232-5.031-.468-7.234a85.264,85.264,0,0,1-.4-8.816c-.011-2.58-.06-5.171-.272-7.743-.11-1.335-.782-5.938-3.229-3.5" transform="translate(-0.332 -22.636)" fill="#69a1ac" fill-rule="evenodd"/>
        <path id="Fill-25" d="M37.893,107.971c-6.627.114-13.268.27-19.883.684-2.711.17-5.421.423-8.122.709-.551.058-6.653.306-3.926,2.558,1.231,1.017,6.293-.389,7.965-.535,2.812-.247,5.623-.407,8.443-.526,6.534-.277,13.089-.522,19.629-.409,11.945.207,23.814.3,35.763.033,1.7-.038,15,.318,15.449-1.449.364-1.423-4.392-.77-5.259-.745-3.181.1-6.363.073-9.545.057-13.482-.069-27.041-.605-40.513-.377" transform="translate(-1.863 -35.445)" fill="#69a1ac" fill-rule="evenodd"/>
        <path id="Fill-27" d="M132.718,65.539c.21,5.9,1.215,11.793,1.536,17.711.147,2.705.32,5.408.452,8.114.043.873-.309,2.976.723,3.479,1.416.689,1.607-.7,1.872-1.638.766-2.711.248-6.234.178-9.019-.067-2.7-.072-5.4-.271-8.091-.2-2.75-.758-5.449-1.015-8.19-.109-1.159.271-3.088-.959-3.807a1.687,1.687,0,0,0-2.517,1.441" transform="translate(-43.622 -21.018)" fill="#69a1ac" fill-rule="evenodd"/>
        <path id="face-2" data-name="face" d="M28.4,78.782l.075.059-.075-.059M22.77,77.034c2.1.6,3.825.376,5.831,1.9a10.591,10.591,0,0,1,3.92,5.171c1.274,4.735-3.046,7.33-7.1,7.381-4.148.052-10.289-.91-10.076-6.227.163-4.085,3.146-8.072,7.421-8.23m.148-2.676c-5.445.271-9.838,6.386-9.791,11.534.057,6.239,7.126,7.846,12.147,7.889,5.667.049,11.319-3.865,9.8-10.238-1.217-5.106-6.92-9.457-12.157-9.185" transform="translate(-4.439 -24.447)" fill="#69a1ac" fill-rule="evenodd"/>
        <path id="Fill-31" d="M19.542,86.18a1.376,1.376,0,0,0,2.749,0,1.376,1.376,0,0,0-2.749,0" transform="translate(-6.541 -27.892)" fill="#69a1ac" fill-rule="evenodd"/>
        <path id="Fill-33" d="M28.117,85.04a1.387,1.387,0,0,0,2.77,0,1.387,1.387,0,0,0-2.77,0" transform="translate(-9.351 -27.515)" fill="#69a1ac" fill-rule="evenodd"/>
        <path id="Fill-35" d="M23.235,91.476c-1.789,1.786,4.5,4.917,5.978,2.433,1.217-2.041-1.433-1.364-2.373-1.474-1.021-.12-2.772-1.789-3.605-.958" transform="translate(-7.647 -29.983)" fill="#69a1ac" fill-rule="evenodd"/>
        <path id="Fill-37" d="M82.8,84.279h0M59.2,81.371c-1.812.34-7.756,2.345-7.837,4.495-.147,3.906,5.676-.095,6.94-.609,3.434-1.4,5.239,1.451,8.689,1.6,3,.131,5.752-2.434,8.574-2.131,2.957.318,4.38,3.464,7.794,1.793,1.806-.884,1.761-2.246-.267-2.374-1.226-.078-2.067.429-3.345-.1-2-.824-2.8-2.166-5.194-1.953-1.8.161-3.435,1.178-5.2,1.571-4.033.9-6.27-3.024-10.158-2.3" transform="translate(-16.967 -26.719)" fill="#69a1ac" fill-rule="evenodd"/>
        <path id="point" d="M116.507,85.581h0m.457-1.627c.02.009.157.2,0,0m-2.077-1.242h0m.045-.015c.4.241,3.64,2.455,1.289,2.976-1.194.265-2.181-2.137-1.289-2.976m-1.072-2.453c-5.186,2.365.395,10.826,4.465,7.388a4.05,4.05,0,0,0,.272-5.878c-1-.9-3.381-2.129-4.737-1.51" transform="translate(-36.758 -26.324)" fill="#69a1ac" fill-rule="evenodd"/>
        <path id="Fill-41" d="M30.094,129.91c-6.471,0-13-.134-19.462.25-1.088.065-5.231-.142-5.791.995-1.025,2.079,3.238,1.047,3.857.985,12.867-1.288,26.309-.547,39.219-.18,10.558.3,21.06.487,31.606,1.031q4.158.215,8.312.468c.9.055,3.175.653,3.365-.789.176-1.335-2.658-1.033-3.366-1.071q-8.446-.445-16.887-.924c-13.55-.764-27.282-.767-40.853-.765" transform="translate(-1.673 -42.645)" fill="#89c5cc" fill-rule="evenodd"/>
        <path id="Fill-43" d="M4.154,133.036c-1.209,1.2-.642,5.79-.676,7.306-.059,2.652-.184,5.3-.24,7.954-.058,2.771.023,5.555.187,8.323.069,1.162,1.022,6.777,2.524,3.564.671-1.436-.016-5.436-.006-7.063.018-2.961.178-5.91.325-8.868.127-2.542.131-5.087.243-7.63.035-.811.131-6.081-2.356-3.586" transform="translate(-1.193 -43.458)" fill="#89c5cc" fill-rule="evenodd"/>
        <path id="Fill-45" d="M91.744,168.593c-6.3.645-12.7.34-19.018.817-5.448.411-10.891.579-16.354.694-12.369.261-24.759.516-37.092,1.546-2.811.235-5.618.484-8.436.61-1.409.063-7.324-.578-7.764.907-.75,2.53,5.575,1.529,6.939,1.489,3-.087,5.986-.3,8.977-.531,12.575-.958,25.2-1.244,37.8-1.643,6.854-.216,13.66-.718,20.5-1.174,3.409-.227,6.826-.235,10.235-.455.892-.058,4.048.056,4.69-.662.441-.493.552-1.7-.476-1.6" transform="translate(-1.127 -55.324)" fill="#89c5cc" fill-rule="evenodd"/>
        <path id="Fill-47" d="M131.8,133.1c.216,6.04.557,12.074.761,18.113.061,1.816-.487,5.071.524,6.673,1.626,2.575,2.9-.15,3.193-1.755.94-5.065-.071-10.66-.333-15.756-.1-1.944.5-6.271-.436-8.011-.895-1.657-3.79-1.491-3.709.736" transform="translate(-43.322 -43.093)" fill="#89c5cc" fill-rule="evenodd"/>
        <path id="hola-:_" data-name="hola-:)" d="M113.794,145.738c2.413.654,2.765,5.9.043,6.287-4.052.578-2.28-5.206-.043-6.287m-.676-2.086c-.736-.023-2.435-.226-2.888.373-.38.5,0,1.559-.04,2.036-.16,1.707-1.547,2.692-.927,4.707a4.923,4.923,0,0,0,2.923,3.128c7.252,2.506,7.163-11.5.933-10.244" transform="translate(-35.885 -47.128)" fill="#89c5cc" fill-rule="evenodd"/>
        <path id="Fill-51" d="M15.788,141.784l-.054.069.054-.069m5.7-3.03-.085-.728c3.932,1.856,7.06,5.308,5.755,9.942-1,3.535-4.6,4.789-7.948,3.916-3.712-.966-5.485-4.026-4.485-7.783.462-1.733,1.88-4.062,3.712-4.62.853-.259,2.74.4,3.051-.728m-2.3-1.468a5.61,5.61,0,0,0-2.774,1.048,4.531,4.531,0,0,1,2.774-1.048M19.213,135c-2.457.075-4.067,1.562-5.524,3.349-.457.561-2,2.047-1.812,2.8.151.6.548,1.47,1.382.8-4.369,8.707,6.917,16.133,13.807,10.079,6.43-5.651.051-17.3-7.853-17.034" transform="translate(-4.024 -44.319)" fill="#89c5cc" fill-rule="evenodd"/>
        <path id="Fill-53" d="M19.476,146.611a.9.9,0,0,0,1.8,0,.9.9,0,0,0-1.8,0" transform="translate(-6.519 -47.839)" fill="#89c5cc" fill-rule="evenodd"/>
        <path id="Fill-55" d="M24.044,146.9a.915.915,0,0,0,1.829,0,.915.915,0,0,0-1.829,0" transform="translate(-8.016 -47.928)" fill="#89c5cc" fill-rule="evenodd"/>
        <path id="Fill-57" d="M23.763,153.482c-.856.069-3.988-.221-4.537.528-.919,1.252.548,1.3,1.268,1.431.649.122,3.468.053,3.866-.523.351-.509.269-1.51-.6-1.436" transform="translate(-6.341 -50.374)" fill="#89c5cc" fill-rule="evenodd"/>
        <path id="Fill-59" d="M68.208,148.224h0m-11.834-.866c-1.928.142-3.561,1.251-5.4,1.693-1.968.473-2.819-.4-4.608-.965A4.35,4.35,0,0,0,41.68,149c-.848.72-2.707,2.378-2.177,3.657,1.213,2.928,3.959-1.836,5.25-2.058,2.015-.346,3.807,1.416,6.13.912,2.105-.456,3.973-1.9,6.172-1.917,1.839-.013,3.571.993,5.387,1.236,2.771.372,4.591-.612,7.152-1.343,2.221-.633,3.779.2,5.868.9.955.321,4.141,1.488,3.555-.628-.166-.6-4.365-1.667-5.016-1.873a7.842,7.842,0,0,0-5.936.391,9,9,0,0,1-5.313.652c-2.154-.422-4.113-1.748-6.379-1.576" transform="translate(-13.051 -48.364)" fill="#89c5cc" fill-rule="evenodd"/>
      </g>
      <g id="Big-Cards" transform="translate(194.526 0)" opacity="0.5">
        <path id="Fill-67" d="M3.118,43.138c.311-6.694.739-13.379.965-20.078.112-3.319.2-6.639.284-9.959q.028-1.109.055-2.217c.055-2.511-.243-2.717,2.284-2.94,11.275-1,22.594-1.325,33.883-2.226C54.2,4.633,67.888,3.883,81.54,3.547c6.067-.15,12.16-.46,18.228-.271,1.345.042,3.984-.308,4.513.737.229.451-.251,2.005-.312,2.526-.19,1.628-.368,3.261-.477,4.9A112.435,112.435,0,0,0,105.1,40.472c-4.382-2.471-9.918-4.6-15.025-4.174-5.207.43-9.1,3.438-13.269,6.207-2.358,1.566-3.152,1.978-5.5.461-2.027-1.308-3.944-2.8-5.857-4.27-2.951-2.264-5.736-4.72-8.6-7.094-5.261-4.365-12.51-10.578-19.777-8.749-5.192,1.307-9.986,4.16-14.492,6.953-6.695,4.149-12.755,9.23-19.459,13.331M93.351.3C67.483.3,41.809,2.811,16.015,4.167c-2.694.142-5.379.35-8.063.609-1.789.173-6.164-.552-7.337.976-.782,1.02-.11,1.173,0,2.142a29.906,29.906,0,0,1,.021,3.961C.55,14.97.459,18.085.388,21.2.121,32.973-.046,44.743.431,56.513c.1,2.567,1.039,6.121.527,8.615-.37,1.806-1.609,2.9,1.247,3.238,2.811.329,6.247-.507,9.06-.774,2.829-.269,5.658-.562,8.491-.8,12.316-1.015,24.751-.861,37.1-1.2,12.459-.34,24.923-.362,37.387-.369,5.215,0,11.174.29,16.262-1.145,1.79-.505,2.08-.754,1.638-2.53-.084-.337-.624-.461-.783-1.071a14.656,14.656,0,0,1-.155-2.7c-.165-2.819-.222-5.642-.355-8.462-.222-4.712-1.034-9.286-1.635-13.95a130.229,130.229,0,0,1-.672-16.28c-.008-3.008.069-6.006.311-9,.155-1.924,1.1-4.8.622-6.59a2.641,2.641,0,0,0-1.561-1.986,5.167,5.167,0,0,0-1.666-.115,14.918,14.918,0,0,1-1.949-.358A49.932,49.932,0,0,0,93.351.3" transform="translate(-0.129 -0.302)" fill="#69a1ac" fill-rule="evenodd"/>
        <path id="Fill-69" d="M117.463,18.6c0,1.875-.294,4.641.57,6.407,1.1,2.239,2.468,1.539,2.831-.565a19.1,19.1,0,0,0-.184-5.842c-.548-1.512-3.217-2.541-3.217,0" transform="translate(-38.556 -5.791)" fill="#89c5cc" fill-rule="evenodd"/>
        <path id="Fill-71" d="M117.929,20.423c-1.76.062-6.886-.36-8.077,1.055-2.043,2.427,1.513,2.857,3.04,2.721,1.767-.157,7.227.226,8.41-1.19,1.979-2.37-1.99-2.636-3.373-2.586" transform="translate(-35.877 -6.89)" fill="#89c5cc" fill-rule="evenodd"/>
        <path id="Fill-73" d="M15.514,111.712c7.738,1.344,5.33,13.141-1.991,10.409-2.551-.952-6.31-3.7-4.9-6.945,1.053-2.422,4.486-3.695,6.891-3.464m-3.2-3.668c-5.032.847-8.472,6.293-6.747,11.043,1.664,4.583,7.977,7.938,12.633,6.291,4.445-1.572,6.662-7.486,5.163-11.812-1.566-4.52-6.666-6.26-11.05-5.522" transform="translate(-1.762 -35.549)" fill="#89c5cc" fill-rule="evenodd"/>
        <path id="Fill-75" d="M70.487,115.624c-1.926.16-3.591,1.509-5.53,1.748-1.812.223-3.315-.4-5.012-.893a10.949,10.949,0,0,0-6.029-.33c-1.6.407-3.182,1.5-4.846,1.628-3.274.258-7.08-3.477-9.636.748-1.225,2.026.554,3.33,2.387,2.386,1.911-.985.973-1.337,3.343-.755a9.06,9.06,0,0,0,5.557.069c1.795-.615,3.37-1.742,5.32-1.869,1.91-.124,3.571.746,5.4,1.121a11.828,11.828,0,0,0,6.359-.591c2.023-.669,2.83-1.035,4.872-.438,1.293.378,4.117,1.579,5.375.611,2.176-1.674-.737-1.918-1.884-2.156-1.847-.383-3.758-1.435-5.674-1.278" transform="translate(-12.875 -38.081)" fill="#89c5cc" fill-rule="evenodd"/>
        <path id="Fill-77" d="M147.837,111.7l.046.036-.046-.036m-1.891-.4c2.812.181,5.854,5.3,2.127,5.486-2.623.128-5.557-4.358-2.127-5.486m-.395-4.192c-8.893,2.483-4.828,15.021,3.75,13.573,3.9-.658,5.216-5.172,3.928-8.513a7.359,7.359,0,0,0-2.921-3.471c-.951-.609-3.671-1.891-4.758-1.589" transform="translate(-46.139 -35.283)" fill="#89c5cc" fill-rule="evenodd"/>
        <path id="Image-Border" d="M4.63,199.721a16.9,16.9,0,0,1-.135-3.363c-.069-1.933-.093-3.866-.167-5.8-.177-4.6-.295-9.235-.65-13.829-.339-4.391-1.2-8.65-1.22-13.074-.017-2.992-.848-10.574,1.773-12.606,4.5-2.628,2.723,6.644,2.649,8.249a95.764,95.764,0,0,0,.565,14.251c.445,4.4-.067,8.78-.238,13.181-.091,2.336-.14,4.669-.316,7a41.192,41.192,0,0,1-.352,5.75c.982-.042,1.916,0,2.437-.014,3.648-.11,7.3-.207,10.945-.344,14.032-.528,28.073-.289,42.1-.955,13.27-.631,26.588-.764,39.868-.928a1.347,1.347,0,0,1,.936,2.258c-.73.917-4.112.716-5.166.8-3.74.3-7.473.436-11.225.472-7.9.075-15.771.414-23.658.864-14.014.8-28.048.733-42.07,1.3-3.4.138-6.807.242-10.212.331-1.8.047-6.5,1.129-7.387-1.017C2.479,200.736,3.352,200.038,4.63,199.721Zm77.624-54.568c4.246-.039,8.468.035,12.707.278,1.88.108,3.759.212,5.641.292,1.087.046,3.57-.31,4.523.194,3.742,1.98-3.882,2.2-4.809,2.181-3.889-.065-7.771-.368-11.66-.464-14.3-.351-28.715.519-43.007,1.105-6.875.282-13.746.322-20.618.708-3.756.211-7.511.452-11.267.65-1.732.091-3.465.18-5.2.224-1.068.027-3.244.47-4.231.066-.841-.344-1.521-.825-1.059-1.844.5-1.1,2.664-.63,3.581-.648,3.311-.064,6.614-.25,9.918-.452,7.5-.459,14.991-1,22.509-1.125C53.611,146.075,67.919,145.286,82.254,145.153Zm19.709,4.883a1.865,1.865,0,0,1,3.4-1.024c1,1.278.356,5.147.381,6.676.08,5.038.557,10.048,1.009,15.063.449,4.974.767,9.951,1.113,14.933.161,2.3,1.93,11.492-.642,12.834-3.282,1.712-2.663-7-2.755-8.587q-.443-7.667-1.128-15.328C102.6,166.361,101.956,158.312,101.962,150.036Z" transform="translate(-0.847 -47.758)" fill="#69a1ac" fill-rule="evenodd"/>
        <path id="Image-X" d="M67.123,179.925q6.751,2.4,13.432,4.992c2.384.921,4.756,1.872,7.134,2.806,1.191.468,6.146,1.642,6.431,2.832.4,1.68-4.879-.383-5.72-.652-2.374-.759-4.717-1.608-7.061-2.452-5.245-1.889-10.467-3.839-15.732-5.671l-1.478-.512q-8.383,3.765-16.726,7.619-4.471,2.071-8.9,4.225c-2.192,1.062-6.159,4.09-8.574,4.038-.914-.02-1.529-.216-1.625-1.324-.122-1.416,2.16-2,3.081-2.459q4.74-2.371,9.529-4.642c6.333-3.021,12.726-5.921,19.142-8.764l.111-.049q-5.337-1.806-10.7-3.53c-2.044-.658-16.372-4.193-15.849-6.092.587-2.128,13.277,2.889,15.229,3.511q7.208,2.3,14.364,4.752c11.44-5.139,23-10.615,34.933-14.355.751-.235,1.226.54,1.056,1.19-.228.87-2.9,1.574-3.647,1.906-2.939,1.312-5.892,2.592-8.831,3.905-6.4,2.861-12.816,5.694-19.217,8.557Z" transform="translate(-9.358 -53.987)" fill="#89c5cc" fill-rule="evenodd"/>
        <path id="Fill-117" d="M17.661,239.844A5.774,5.774,0,0,1,22.33,246.1c-.434,3.972-4.392,5.792-8.049,5.274-4.149-.588-5.022-4.1-3.012-7.47a4.87,4.87,0,0,1,1.766-2.034c.556-.27,1.265-.031,1.713-.249,1.57-.764.626-1.982,2.913-1.779m-1.332-2.594c-3.57.456-10.167,4.588-9.833,8.721a1.2,1.2,0,0,0,1.307.588,6.416,6.416,0,0,0,.137,2.658,5.711,5.711,0,0,0,1.922,2.811,9.019,9.019,0,0,0,6.744,1.633c4.341-.5,7.763-3.466,8.007-7.981.238-4.407-3.609-9.02-8.284-8.43" transform="translate(-2.211 -77.919)" fill="#89c5cc" fill-rule="evenodd"/>
        <path id="Fill-119" d="M44.187,244.955c-1.6.849-4.136,2.153-5.076,3.766-.992,1.7.035,3.566,2.126,2.761,1.66-.639,2.716-2.672,4.486-3.323,1.563-.575,2.192-.282,3.844.291a11.884,11.884,0,0,0,5.029,1.015c2.312-.182,4.315-1.522,6.578-1.827,1.905-.257,3.477.484,5.3.779,2.117.342,3.5-.459,5.482-.876,1.347-.284,3.722.871,4.705.439,2.21-.971-.128-2.159-1.351-2.552-2.061-.661-3.329-.078-5.289.47-2.128.6-3.047.148-5.081-.4-4.116-1.106-7.3,1.568-11.2,1.082-3.612-.45-5.773-3.63-9.559-1.625" transform="translate(-12.776 -80.245)" fill="#89c5cc" fill-rule="evenodd"/>
        <path id="Fill-121" d="M142.543,240.82c3.961,3.714-.489,9-4.857,6.03-1.537-1.045-1.562-2.723-.365-4.224C138.415,241.253,140.819,240.718,142.543,240.82Zm-1.468-3c-3.7.72-7.192,2.418-7.527,6.69-.327,4.168,3.948,6.1,7.539,5.83C149.149,249.724,148.566,236.371,141.075,237.819Z" transform="translate(-43.837 -78.086)" fill="#89c5cc" fill-rule="evenodd"/>
      </g>
      <path id="Fill-79" d="M556.524,96c-2.96.057-10.271,1.134-11.357,4.636-.825,2.658,1.626,2.075,2.939,1.107a12.419,12.419,0,0,1,5.536-2.489c8.387-1.517,16.445,3.923,24.751,4.611,3.146.261,6.944.43,9.948-.589,2.139-.726,2.419-2.308-.023-2.549-2.074-.2-4.37.44-6.5.422-8.8-.075-16.623-5.316-25.3-5.15" transform="translate(-145.752 -74.687)" fill="#c1dee2" fill-rule="evenodd" opacity="0.5"/>
      <g id="Cards" transform="translate(0 228.807)" opacity="0.5">
        <path id="Fill-173" d="M38.043.351q-8.5.1-16.978.63c-5.376.341-11.209.082-16.5,1.124-1.5.3-3.53,1.664-1.533,3.17,1.4,1.058,6.538-.159,8.214-.262C17.42,4.634,23.6,4.18,29.775,3.961c5.851-.207,11.7-.28,17.555-.338A13.32,13.32,0,0,1,50.6,3.587c1.279.373.975.474,1.071,2.1.174,2.941.126,5.892.067,8.836-.056,2.849-.162,5.7-.151,8.547.007,2.033-.643,6.074.378,7.839,1.469,2.542,2.992-.219,3.1-1.908.21-3.23.116-6.5.117-9.735,0-3.036.022-6.072-.084-9.107-.078-2.192.236-6.018-.945-8.011C52.948.117,50.053.555,47.94.458c-3.3-.152-6.6-.141-9.9-.107" transform="translate(-1.082 -0.33)" fill="#89c5cc" fill-rule="evenodd"/>
        <path id="Fill-171" d="M1.46,4.971c.006,5.7-.654,11.371-.839,17.069a29.183,29.183,0,0,0,.406,8.068c.669,2.6,2.794,3.159,3.038.26.5-5.87.374-11.957.76-17.874.136-2.089,1.023-5.918.2-7.874C4.292,2.9,1.457,2.566,1.46,4.971" transform="translate(-0.536 -1.286)" fill="#89c5cc" fill-rule="evenodd"/>
        <path id="Fill-175" d="M55.314,43.2c-9.837,1.3-20.12.827-30.027,1.032-4.753.1-9.5.1-14.258.154-1.659.017-5.872-.614-7.307.319-2.285,1.485.194,2.63,1.707,2.663,9.381.206,18.866-.226,28.245-.534,4.214-.138,8.442-.206,12.644-.564a44.567,44.567,0,0,0,7.927-1.129c.535-.148,1.7-.118,1.821-.848.074-.452-.06-1.189-.752-1.093" transform="translate(-1.277 -14.374)" fill="#89c5cc" fill-rule="evenodd"/>
        <path id="Fill-177" d="M14.052,55.4c-2.734.016-10.972-1.254-12.1,1.412C.438,60.367,6.327,59.537,7.91,59.5c3.6-.092,7.191-.1,10.789-.1,3.53,0,7.06-.021,10.589-.105,1.022-.025,3.4.4,3.991-.832a1.55,1.55,0,0,0-.731-2.169c-1.984-1.192-7.138-.5-9.46-.608-3.007-.138-6.024-.282-9.035-.282" transform="translate(-0.918 -18.279)" fill="#89c5cc" fill-rule="evenodd"/>
        <path id="Fill-179" d="M66.083,56.433c-1.562.093-4.723-.551-6.122.164-1.591.813-1.03,2.085.343,2.645a13.5,13.5,0,0,0,5.779-.264c.966-.468,2.058-2.671,0-2.544" transform="translate(-19.69 -18.653)" fill="#89c5cc" fill-rule="evenodd"/>
        <path id="Fill-181" d="M94.342,6.64c-1.669.458-1.162,9.931-1.205,11.433-.118,4.115-.58,9.29.787,13.252.872,2.526,2.547,2.184,2.261-.476-.251-2.334-.68-4.642-.867-6.991-.421-5.316-.993-10.987-.6-16.308.169.309,1.752,3.177,2.125,2.963-.113.067-1.826-4.052-2.5-3.873" transform="translate(-30.82 -2.396)" fill="#89c5cc" fill-rule="evenodd"/>
        <path id="Fill-183" d="M112.635,1.428c-3.377.05-6.754.11-10.13.2-2.684.075-6.9-.366-9.364.763C90.21,3.739,91.6,6.734,94.354,6.8c2.436.056,5.033-.493,7.491-.577,6.638-.227,13.288-.276,19.93-.332,6.006-.052,12.268.589,18.222-.313.883,7.842-1.505,15.716-.693,23.648.126,1.231.07,2.971,1.637,3.251,1.979.354,2.06-1.606,2.135-3.009.214-4.007.1-8.017.392-12.029.272-3.718.807-7.518.355-11.242-.556-4.582-2.752-4.215-6.634-4.406-8.2-.4-16.345-.481-24.553-.361" transform="translate(-30.342 -0.673)" fill="#89c5cc" fill-rule="evenodd"/>
        <path id="Fill-185" d="M103.122,42.819c-1.721.043-4.579-.487-5.681,1.163-1.147,1.717.214,3.214,1.882,3.567,1.975.417,4.549-.155,6.6-.161,2.134-.006,4.269.017,6.4.026,9.15.036,18.338.174,27.481-.2,1.277-.053,4.9.376,5.784-.849.784-1.086.236-2.061-.8-2.614-1.695-.908-5.175-.563-7.06-.635-2.328-.089-4.658-.118-6.987-.154-9.192-.142-18.433-.366-27.624-.139" transform="translate(-32.147 -14.219)" fill="#89c5cc" fill-rule="evenodd"/>
        <path id="Fill-187" d="M111.342,54.67a79.269,79.269,0,0,0-10.467.427c-2.981.457-3.348,3.338-.139,3.675,2.949.31,6.524-.269,9.487-.459,1.052-.068,2.276.028,2.781-1.135a1.869,1.869,0,0,0-1.661-2.508" transform="translate(-32.627 -18.134)" fill="#89c5cc" fill-rule="evenodd"/>
        <path id="Fill-189" d="M152.075,55c-1.828.046-7.166-.74-8.071,1.347-1.507,3.475,5.72,2.155,7.106,2.1,1.747-.064,8.557.956,8.559-1.826,0-2.728-5.92-1.667-7.593-1.625" transform="translate(-47.475 -18.166)" fill="#89c5cc" fill-rule="evenodd"/>
        <path id="Fill-191" d="M1.408,79.754c0,6.322-.389,12.7.188,19.009.238,2.608.2,7.6,1.708,9.815,1.072,1.569,2.56,1.459,3.145-.425.392-1.26-.235-3.779-.3-5.127-.067-1.293-.146-2.586-.206-3.88-.154-3.333-.142-6.661-.1-10,.039-2.86.728-6.645.079-9.4-.605-2.564-4.514-3.163-4.514,0" transform="translate(-0.78 -25.647)" fill="#69a1ac" fill-rule="evenodd"/>
        <path id="Fill-193" d="M65.519,72.428C54.551,72.7,43.558,72.457,32.6,73c-5.4.268-10.788.856-16.165,1.442-2.642.288-5.282.585-7.919.91-.8.1-7.409.354-4.922,2.869,1.086,1.1,4.542-.049,5.91-.211,2.648-.313,5.3-.585,7.952-.866,5.046-.534,10.1-1.039,15.165-1.32,11.934-.661,23.917-.463,35.863-.9,3.231-.119,6.453-.2,9.686-.077.849.033,7.087.35,4.378-1.953-1.281-1.09-6.109-.527-7.709-.56-3.106-.064-6.214.019-9.319.1" transform="translate(-1.356 -23.882)" fill="#69a1ac" fill-rule="evenodd"/>
        <path id="Wireframy-Stuff" d="M83.369,105.515l-.005.008c-.6.881-2.806.636-3.773.7-2.943.2-5.832.537-8.748.975A140.533,140.533,0,0,1,53.4,108.751c-11.619.287-23.286.019-34.888.815a63.6,63.6,0,0,0-7.628.963c-1.8.346-5.283,1.529-5.494-1.453-.255-3.593,8.761-3.587,11.338-3.827,11.068-1.03,22.318-.813,33.42-.658,5.369.075,10.727.239,16.091-.09s10.9-.242,16.219-.818c-.685-2.657-.585-5.978-.777-8.693-.494-6.969-.362-13.962-.68-20.938-.14-3.073,4.047-3.539,5.288-1.051,1.254,2.513.439,7.5.52,10.285.188,6.451,1.384,13.672.12,20.052C86.487,105.558,84.615,106.724,83.369,105.515Z" transform="translate(-2.123 -23.617)" fill="#69a1ac" fill-rule="evenodd"/>
        <path id="Fill-199" d="M130.317,78.476c-1.482.2-2.718,1.47-2.056,3.078.833,2.025,3.315,1.234,4.954,1.106,5.211-.408,10.651.407,15.8-.208,1.406-.168,3.446-.934,2.183-2.823-.949-1.42-4.406-1.171-5.875-1.307a78.391,78.391,0,0,0-15.005.154" transform="translate(-42.324 -25.788)" fill="#c1dee2" fill-rule="evenodd"/>
        <path id="Fill-201" d="M140.676,91.8c-2.021.136-6.725.029-7.577,2.328-1.527,4.125,4.456,2.671,6.278,2.437,2.116-.273,7.105.457,8.232-1.6,2.015-3.67-5.161-3.292-6.933-3.17" transform="translate(-43.888 -30.275)" fill="#c1dee2" fill-rule="evenodd"/>
        <path id="Fill-203" d="M136.408,104.864a2.65,2.65,0,0,0,0,3.631c1.176,1.174,3.737.93,5.281,1.016,2.154.12,8.342,1.26,9.412-1.277,1.443-3.423-4.16-3.351-6-3.545-2.13-.224-6.925-1.591-8.69.175" transform="translate(-44.818 -34.288)" fill="#c1dee2" fill-rule="evenodd"/>
        <path id="Fill-205" d="M24.437,16.811c0,3.68,5.747,3.68,5.747,0,0-3.66-5.747-3.716-5.747,0" transform="translate(-8.367 -4.824)" fill="#89c5cc" fill-rule="evenodd"/>
        <path id="Fill-207" d="M40.651,16.681c0,4.207,6.546,4.2,6.546,0s-6.546-4.235-6.546,0" transform="translate(-13.68 -4.652)" fill="#89c5cc" fill-rule="evenodd"/>
        <path id="Fill-209" d="M30.148,26.512c-3.182.879-.251,3.575,1.227,4.191,2.348.979,5.553,1.7,7.9.233.935-.584,1.693-1.361,1.008-2.494-.73-1.207-1.729-.67-2.84-.559a8.714,8.714,0,0,1-3.9-.332c-1.014-.337-2.287-1.344-3.393-1.04" transform="translate(-9.771 -8.89)" fill="#89c5cc" fill-rule="evenodd"/>
        <path id="Fill-211" d="M116.69,17.6a1.934,1.934,0,0,0,3.865,0,1.934,1.934,0,0,0-3.865,0" transform="translate(-38.593 -5.375)" fill="#89c5cc" fill-rule="evenodd"/>
        <path id="Fill-213" d="M129.4,18.052c0,2.765,4.293,2.766,4.293,0s-4.293-2.765-4.293,0" transform="translate(-42.758 -5.457)" fill="#89c5cc" fill-rule="evenodd"/>
        <path id="Fill-215" d="M124.458,27.93c-2.255.291-8.778.952-9.143,3.732-.563,4.289,6.584.818,8.216.481a23.643,23.643,0,0,1,6.007-.234c1.139.046,2.653.23,2.534-1.5-.2-2.849-5.642-2.727-7.614-2.475" transform="translate(-38.132 -9.333)" fill="#89c5cc" fill-rule="evenodd"/>
        <path id="Fill-217" d="M43.148,86.787c-1.635.436-3.773,3.262-2.648,4.992,1.844,2.837,2.657-1.519,3.429-1.938,1.4-.763,2.544,2.025,4.012.562,2.316-2.307-3.335-4.007-4.793-3.616" transform="translate(-13.527 -28.639)" fill="#69a1ac" fill-rule="evenodd"/>
        <path id="eye" d="M69.359,83.7c-1.939.018-6.031,2.763-6.321,4.789a2,2,0,0,0,1.924,2.377c1.767.022,2.329-2.277,3.861-2.757,1.653-.518,1.407.675,2.835,1.294a1.851,1.851,0,0,0,2.714-1.021c.685-2.423-3.021-4.72-5.013-4.682" transform="translate(-21.007 -27.644)" fill="#69a1ac" fill-rule="evenodd"/>
        <path id="Fill-221" d="M49.9,100.808c-3.1,1.817,2,5.712,3.77,6.2,2.67.735,8.044-.637,8.677-3.9a1.744,1.744,0,0,0-1.993-2.242c-1.18.192-1.936,1.671-3.029,2.2a3.382,3.382,0,0,1-4.039-.41c-1.021-.877-1.568-2.91-3.387-1.85" transform="translate(-16.39 -33.153)" fill="#69a1ac" fill-rule="evenodd"/>
        <path id="Fill-223" d="M40.609,140.756c-2.77.591-5.586.194-8.37.75-2.839.567-4.535,1.639-7.172.559l-.372-.157a6.283,6.283,0,0,0-6.317.262c-1.264.829-5.1,3.7-4.64,5.447,1,3.794,5.322-2.155,6.423-2.735,2.1-1.106,3.54.307,5.7.706,2.59.478,4.674-.891,7.113-1.436,2.853-.638,6.063-.86,8.966-1.2,1.147-.135,5.491.772,5.883-.655.674-2.452-6.127-1.77-7.216-1.539" transform="translate(-4.849 -46.253)" fill="#c1dee2" fill-rule="evenodd"/>
        <path id="Fill-225" d="M81.516,147.259h0m7.759-7.789c2.372-.24,9.96-1.935,11.518.516,1.015,1.6-.6,7.488-2.132,8.25-1.228.609-4.088-.064-5.435-.112-2.507-.088-5.019-.128-7.523-.284-.84-.052-3.542.1-4.2-.641-.777-.878-.743-5.557-.926-6.717,2.181.706,6.419-.78,8.7-1.012m5.064-2.4c-3.037.132-6.074.36-9.089.767-1.681.227-3.383.831-4.935,1.117-.5.092-1.312-.163-1.926.133-1.793.866-.223,6.722.209,8.286.664,2.4,2.335,2.792,4.677,3.019a86.124,86.124,0,0,0,9.326.167c2.982-.037,7,.624,8.677-2.368,1.082-1.935,2.242-6.441,1.317-8.6-1.216-2.837-5.758-2.629-8.256-2.525" transform="translate(-25.769 -45.114)" fill="#c1dee2" fill-rule="evenodd"/>
        <path id="quare" d="M142.9,147.9h0m.666-.8c-.05.076-.283.322,0,0m-7.244-.22q2.008-.378,4.019-.746c-1.269,1.777-2.606,1.042-4.774.888l.756-.142m-6.388-.629,1.018-.341a1.387,1.387,0,0,0,.166.725q-.872-.094-1.741-.2l.557-.183m-2.96-2.186c-.019-.466.682-.146,1.084-.177q-1.162,1.023-1.084.177m10.587-5.288q.153-.2.4.02c-.183.061-.889.361-.4-.02m6.866-.808c.018,0,.4.514,0,0m-.193-.168h0m-.857-.1c1.4.237,1.3,1.884,0,0m-16.492-.112c-.285.237-.188.007,0,0m5.368-3.507c-2.383.139-6.758,0-8.748,1.269-2.6,1.657-1.231,7.363-1,9.864.344,3.7,2.083,4.75,5.565,5.138a92.521,92.521,0,0,0,12.6.44c3.761-.1,5.9-1.393,6.592-5.353a28.7,28.7,0,0,0,.73-4.247c-.012-.805-.413-1.172-.565-1.857-.864-3.9-2.308-4.36-6.3-4.53-2.94-.125-5.989-.875-8.874-.724" transform="translate(-40.312 -44.145)" fill="#89c5cc" fill-rule="evenodd"/>
      </g>
      <g id="Profile" transform="translate(201.346 220.92)" opacity="0.5">
        <path id="face-3" data-name="face" d="M65.419,3.4c6.059.129,12.934,3.483,11.975,10.587a11.544,11.544,0,0,1-10.426,9.793c-5.609.391-11.539-3.913-12.3-9.624C53.81,7.729,59.493,3.268,65.419,3.4M62.447.5a22.525,22.525,0,0,0-6.967,2.812c-.826.441-5.011,3.131-1.728,3.8-7.91,12.757,10.706,24.607,21.172,16.316,4.7-3.723,7.174-10.782,4.136-16.308C75.919,1.409,68.467-.4,62.447.5" transform="translate(-17.233 -0.284)" fill="#89c5cc" fill-rule="evenodd"/>
        <path id="Fill-231" d="M65.459,15.891a1.85,1.85,0,0,0,3.7,0,1.85,1.85,0,0,0-3.7,0" transform="translate(-21.693 -4.812)" fill="#89c5cc" fill-rule="evenodd"/>
        <path id="Fill-233" d="M75.657,16.385c0,2.583,4.009,2.583,4.009,0s-4.009-2.583-4.009,0" transform="translate(-25.034 -4.924)" fill="#89c5cc" fill-rule="evenodd"/>
        <path id="Fill-235" d="M68.759,24.6c-.54,1.96,5.613,2.965,5.818.7.1-1.084-5.442-2.064-5.818-.7" transform="translate(-22.763 -8.032)" fill="#89c5cc" fill-rule="evenodd"/>
        <path id="Fill-237" d="M95.259,21.156c7.079-.85,14.379-.457,21.492-.253,1.78.051,3.56.1,5.341.131,1.132.019,3.577.562,4.564.032,4.046-2.17-3.89-3.219-5.014-3.318a245.1,245.1,0,0,0-25.093-.515c-2.1.081-2.553,4.075-1.291,3.924" transform="translate(-31.227 -5.797)" fill="#89c5cc" fill-rule="evenodd"/>
        <path id="Hola-:_2" data-name="Hola-:)" d="M96.253,57.275c.061-7.418.327-14.885.9-22.281.232-3.014.511-6.025.742-9.039.109-1.42.613-3.409-.221-4.655a2.543,2.543,0,0,0-3.884-.413c-1.361,1.762-.965,4.718-1.135,6.849-.26,3.277-.575,6.551-.731,9.835A150.849,150.849,0,0,0,92.06,56.74a58.188,58.188,0,0,0,1.46,8.838c.317,1.329,2.836,7.252,2.307,8.069-.821,1.266-6.889.788-8.205.823-3.378.091-6.757.15-10.135.214q-4.339.083-8.678.12c-1.149.01-7.9-.194-6.4,1.509-16.741,1.167-33.8-.781-50.442-1.449-.84-.034-2.216-.273-3.485-.341a11.082,11.082,0,0,1-.308-1.542c-.219-2.674-.276-5.357-.513-8.031-.434-4.892-1.275-9.734-1.775-14.617s-.449-9.771-.74-14.661c-.05-.838-.168-7.7-1.9-9.369a7.863,7.863,0,0,0,2.908.29c6.173-.5,12.3-1.571,18.419-2.491,1.751-.263,5.724-.077,7.176-.952,1.257-.758,1.754-3.414-.432-3.2-6.1.654-12.171,1.668-18.225,2.667-1.619.267-3.234.553-4.849.845-1.079.195-3.925.18-4.762.83-1.016.789-1.124,1.326-.779,1.683-.479-.132-1.052.075-1.741.765-1.3,1.7-.078,5.871.077,7.859.187,2.385.278,4.774.387,7.163A118.734,118.734,0,0,0,2.86,55.514c.834,5.117,1.543,10.255,2.378,15.37A35.567,35.567,0,0,0,6.1,74.8c-2.252,1.152-.721,2.983,1.065,3.308l.039.006c.557,1.358,1.335,2.615,1.943.8a1.8,1.8,0,0,0,.074-.5c4.612.522,9.681.2,14.222.383,9.835.4,19.731,1.005,29.576.7A114.266,114.266,0,0,0,64.692,78.5c2.264-.3,4.537-.668,6.766-1.173.16-.036.4-.074.682-.12l.136,0q5.118-.077,10.23-.285c2.861-.119,5.736-.18,8.588-.45,1.772-.168,5.516-.137,6.6-1.918.989-1.62-.664-5.793-.9-7.613a71.079,71.079,0,0,1-.544-9.666" transform="translate(-0.365 -6.724)" fill="#c1dee2" fill-rule="evenodd"/>
        <path id="Fill-241" d="M73.936,43.606c-2.726.234-5.247,1.514-8,1.53-2.309.013-4.583-.677-6.9-.575-2.724.119-4.222,1.88-6.608,2.47-1.9.469-3.1-.985-4.767-1.628a5.344,5.344,0,0,0-5.476.835c-1.328.9-4.427,2.929-4.4,4.755.071,5.531,6.524-2.109,7.824-2.2,1.728-.123,3.659,1.847,5.5,1.959,2.431.149,3.99-1.419,6.229-1.99,2.264-.578,4.711.13,6.981.35a21.213,21.213,0,0,0,7.361-.945,14.871,14.871,0,0,1,6.964-.064c1.665.34,5.813,2.314,6.541-.225.992-3.457-9.336-4.432-11.242-4.27" transform="translate(-12.624 -14.472)" fill="#89c5cc" fill-rule="evenodd"/>
        <path id="Fill-243" d="M79.236,59.3c-5.586.542-11.206,1.018-16.818,1.17-2.43.066-11.774-.975-10.945,2.113.71,2.648,13.425.981,16.014.779,2.859-.222,5.713-.533,8.558-.893,1.008-.128,3.443,0,4.154-.841.678-.807.344-2.459-.965-2.328" transform="translate(-17.093 -19.617)" fill="#89c5cc" fill-rule="evenodd"/>
        <path id="have-a-nice-day-:_" data-name="have-a-nice-day-:)" d="M33.306,78.508h0m1.178-.016c1.393-.044,1.094-.778,2.483-.4.641.177.706-.085,1.2.527.969,1.195.056,3.8-.9,4.759-3.537,3.565-7.782-4.732-2.788-4.891m0-3.5c-9.684.325-5.632,15.285,2.8,12.231,3.481-1.261,5.669-6.943,3.621-10.135-1-1.553-2.266-1.829-3.934-1.937-.387-.025-.875.538-1.117.512-.575-.061-.521-.7-1.367-.671" transform="translate(-9.7 -24.762)" fill="#89c5cc" fill-rule="evenodd"/>
        <path id="espero" d="M69.528,78.982c-.173-.053,3.058.886,2.7.518.754.784-.26,2.639-1.113,2.963-2.066.785-3.226-2.428-1.591-3.481m1.434-4.056c-3.032.43-5.372,1.692-5.787,5.064-.382,3.112,1.721,6.264,5.038,6.325,7.23.132,7.45-12.324.749-11.389" transform="translate(-21.585 -24.723)" fill="#89c5cc" fill-rule="evenodd"/>
        <path id="hola" d="M119.9,77.811c.423,5.527-5.307.468,0,0M117.443,71.9a1.671,1.671,0,0,0,.682,2.264c-6.76,1.429-5.229,11.6,1.65,10.1,3.5-.764,4.141-4.443,3.62-7.48-.248-1.444-3.847-8.482-5.952-4.882" transform="translate(-37.52 -23.416)" fill="#89c5cc" fill-rule="evenodd"/>
      </g>
      <path id="Fill-251" d="M436.738,419.192c-2.015.358-6.779,2.584-6.737,4.974.064,3.731,4.113-.345,5.014-.892,4.838-2.945,11.1.871,16.142,1.683,2.31.372,6.828,1.06,8.868-.488,3.628-2.753-4.763-2.064-5.831-2.174-5.808-.6-11.587-4.151-17.456-3.1" transform="translate(-130.877 -142.49)" fill="#c1dee2" fill-rule="evenodd" opacity="0.5"/>
      <g id="List" transform="translate(422.189 247.037)" opacity="0.5">
        <path id="Fill-253" d="M2.574,8.259c0,3.818-.195,7.715.509,11.487.213,1.142.381,3.329,1.586,3.922a1.837,1.837,0,0,0,2.684-1.314c.351-1.443-.419-3.6-.5-5.118-.107-2.07-.114-4.142-.115-6.214,0-1.5.492-3.9-1.275-4.674A2.126,2.126,0,0,0,2.574,8.259" transform="translate(-0.916 -2.195)" fill="#c1dee2" fill-rule="evenodd"/>
        <path id="Fill-255" d="M63.346.274C50.7,1.544,37.866,1.808,25.172,2.47c-5.868.306-12.96-.084-18.488,2.187-1.026.422-4.7,2.77-1.718,3.726.93.3,1.876-.7,2.64-1.04a16.911,16.911,0,0,1,4.1-.95c11.535-1.852,23.6-1.53,35.254-2.4,2.986-.222,5.974-.45,8.954-.743,2.129-.209,6.6-1.744,8.568-.959,3.357,1.341,3.279,10.055,3.345,13.051.034,1.55-1.47,7.113,1.52,6.549,2.393-.451,1.527-6.231,1.34-7.812C70.2,9.94,69.365-.335,63.346.274" transform="translate(-1.333 -0.248)" fill="#c1dee2" fill-rule="evenodd"/>
        <path id="Fill-257" d="M68.85,32.143c-10.987.992-22.227.019-33.259.409-5.783.205-11.56.531-17.343.722-2.5.083-5.005.086-7.508.1-1.2.008-6.644.734-3.274,3.107,1.492,1.051,6.247.2,7.959.184,2.571-.03,5.141-.137,7.711-.238,5.952-.233,11.9-.555,17.855-.716,5.7-.154,11.4-.187,17.092-.341a71.972,71.972,0,0,0,8.516-.578c.634-.093,2.693-.168,3.133-.875.416-.668.124-1.874-.882-1.777" transform="translate(-2.172 -10.697)" fill="#89c5cc" fill-rule="evenodd"/>
        <path id="Fill-259" d="M17.278,17.213h0m4.758-1.446h0m-.223-.04c2.564,2.614-1.379,5.733-3.781,3.182-2.549-2.707,2.13-3.174,3.781-3.182m-2.719-3.954c-8.832,1.572-5.7,13.342,2.544,11.641a5.944,5.944,0,0,0,4.446-7.9,5.161,5.161,0,0,0-3.027-3.3c-.737-.215-1.389.123-2.091.044-.67-.075-1.041-.633-1.872-.483" transform="translate(-4.598 -4.016)" fill="#c1dee2" fill-rule="evenodd"/>
        <path id="Fill-261" d="M61.32,16.674c-5.326.017-10.653.243-15.977.344-1.633.031-5.831-.7-5.838,1.875-.007,2.751,4.669,1.735,6.225,1.7,5.282-.126,10.577-.358,15.838-.861,1.329-.127,5.929.092,5.924-1.715,0-1.915-5.1-1.341-6.173-1.341" transform="translate(-13.024 -5.604)" fill="#c1dee2" fill-rule="evenodd"/>
        <path id="Fill-263" d="M62.135,43.415c-13.172.353-26.323.476-39.484,1.151-4.923.252-9.839.44-14.769.44-.95,0-2.861-.368-3.755.23-2.425,1.622.336,3.014,1.917,3.1,10.812.6,21.78-.893,32.586-1.23,6.326-.2,12.653-.255,18.975-.577,1.725-.088,3.45-.19,5.172-.323.99-.077,3.609.134,4.409-.446,3.495-2.529-3.873-2.377-5.051-2.345" transform="translate(-1.119 -14.387)" fill="#89c5cc" fill-rule="evenodd"/>
        <path id="Fill-265" d="M.949,51.887a60.507,60.507,0,0,0,.31,10.167c.176,1.336.257,2.853,1.823,3.192,1.423.308,2.144-.768,2.439-1.961.719-2.913.086-7.106.078-10.133,0-1.5-.005-3.171-1.854-3.509a2.354,2.354,0,0,0-2.8,2.244" transform="translate(-0.368 -16.419)" fill="#89c5cc" fill-rule="evenodd"/>
        <path id="Fill-267" d="M75.1,65.242q-31.982,1.685-63.952,3.006c-1.664.07-14.591-.07-10.072,4.438,1.4,1.392,4.992.449,6.8.361,2.713-.133,5.427-.235,8.139-.373,10.756-.547,21.539-.7,32.286-1.31q8.872-.507,17.7-1.556c2.8-.327,6.272-.294,8.893-1.39,1.348-.564,2.8-3.313.208-3.176" transform="translate(-0.12 -21.542)" fill="#89c5cc" fill-rule="evenodd"/>
        <path id="Fill-269" d="M92.918,39.036c-1.622,1.615-.788,4.8-.665,6.8.168,2.747.372,5.5.715,8.227.223,1.774.105,4.536,1.052,6.069a2.62,2.62,0,0,0,4.552-.138c.887-1.534.438-4.761.415-6.46-.032-2.35-.178-4.7-.318-7.05-.117-1.96.328-5.1-.751-6.78a3.222,3.222,0,0,0-5-.665" transform="translate(-30.201 -12.658)" fill="#89c5cc" fill-rule="evenodd"/>
        <path id="Fill-271" d="M18.921,56.23h0m3.787-.475c3.534.711-2.18,4.836-3.986,2-.282-.442-.429-.986.024-1.371.413-.351.673.27,1.063.1a9.493,9.493,0,0,1,2.9-.738m-.487-3.387c-2.412.191-5.73.34-6.924,2.758-1.6,3.248,1.139,6.429,4.313,6.924,3.054.476,7.615-1.216,7.859-4.778a4.846,4.846,0,0,0-5.249-4.9" transform="translate(-4.938 -17.32)" fill="#89c5cc" fill-rule="evenodd"/>
        <path id="Fill-273" d="M50.515,54.84c-2.5.04-7.406-.7-9.582.519-2.153,1.2-1.193,3.349.771,3.863,1.3.339,3.42-.208,4.772-.263,1.778-.072,3.557-.088,5.337-.112,2.992-.04,5.983-.006,8.975-.006,3.056,0,6.165.083,9.216-.141,3.86-.284,3.756-3.175-.019-3.536a176.826,176.826,0,0,0-19.47-.322" transform="translate(-13.091 -18.074)" fill="#89c5cc" fill-rule="evenodd"/>
        <path id="Fill-275" d="M46.293,102.782c0,1.373,1.219,0,1.21,0,.009,0-1.21-1.373-1.21,0" transform="translate(-15.248 -33.643)" fill="#89c5cc" fill-rule="evenodd"/>
        <path id="Fill-277" d="M5.3,85.7c.079,3.992.13,7.988.3,11.977.054,1.261-.307,3.724,1.222,4.367,1.7.716,2.231-1.068,2.427-2.277.621-3.83.012-8.2-.048-12.078-.02-1.3.262-3.113-1.216-3.761A1.971,1.971,0,0,0,5.3,85.7" transform="translate(-1.816 -27.618)" fill="#89c5cc" fill-rule="evenodd"/>
        <path id="Fill-279" d="M70.465,85.1h0m.142-.041h0M38.358,81.834c-6.128.1-12.261.169-18.385.431-2.614.112-5.258.2-7.863.449-1.845.174-6.428.247-7.625,1.755-2.469,3.112,2.767,2.263,3.9,2.011a37.446,37.446,0,0,1,6.245-.718c4.55-.24,9.1-.368,13.658-.46,12.354-.249,24.718-.211,37.074-.267,1.2-.005,3.358-.486,4.463,0s1.044,1.678,1.159,3.062c.153,1.842-1.062,5.353-.136,6.9,1.436,2.4,3.525.363,3.844-1.39.441-2.421-.258-5.329-.943-7.643-.965-3.265-2.306-3.4-5.465-3.65-3.69-.3-7.367-.479-11.069-.513-6.283-.058-12.571-.064-18.853.034" transform="translate(-1.336 -26.955)" fill="#89c5cc" fill-rule="evenodd"/>
        <path id="Fill-281" d="M63.087,105.852c-13.292,1.544-26.963.634-40.326.689-3.25.013-6.5.039-9.748.2-1.715.083-5.779-.39-6.954.933-2.476,2.789,1.984,3.194,3.613,3.079,3.292-.234,6.593-.341,9.894-.366,11.627-.09,23.319.453,34.937-.121a101.4,101.4,0,0,0,14.4-2c1.058-.206,8.3-1.583,4.172-3.234-2.441-.976-7.425.528-9.989.828" transform="translate(-1.826 -34.471)" fill="#89c5cc" fill-rule="evenodd"/>
        <path id="Fill-284" d="M29.706,96.308h0m-.089-.021c-.032.085-.129.3,0,0m-.838-1.081h0m-.032-.008a3.061,3.061,0,0,1,.646,1.278c-2.754.746-3.815-1.482-.646-1.278m-.174-.1h0m-4.524-3.319c-1.782,2.22-3.254,4.806-1.031,7.342,1.987,2.267,5.985,2.559,8.506,1.046,2.6-1.559,2.373-4.842.561-6.985-1.167-1.38-2.112-1.341-3.805-1.567-1.153-.153-3.253-1.049-4.231.164" transform="translate(-7.254 -30.031)" fill="#89c5cc" fill-rule="evenodd"/>
        <path id="Fill-286" d="M52.5,97.254c0,2.956,12.762,1.683,15.033,1.68,1.9,0,13.4,1.046,12.576-2-.678-2.5-12.006-1.257-14.418-1.261-2.085,0-13.191-1.435-13.191,1.576" transform="translate(-17.282 -31.403)" fill="#89c5cc" fill-rule="evenodd"/>
      </g>
      <g id="Checkmark_" data-name="Checkmark!" transform="translate(243.467 351.841)" opacity="0.5">
        <path id="Fill-292" d="M17.283,7.4c6.391.928,13.04,3.934,12.984,11.374-.047,6.255-5.293,12.912-12.03,12.539-6.063-.336-11.771-6.966-12.53-12.647a12.161,12.161,0,0,1,2.074-8.534c2.269-3.173,5.869-3.168,9.5-2.731M14.264,3.361A13.093,13.093,0,0,0,3.4,8.588a28.66,28.66,0,0,0-3,4.062c-.73,1.339-.6,4.745,1.9,3.148-.616,6.593,3.237,12.992,8.776,16.37C17.1,35.841,23.9,35.125,28.912,29.977c4.587-4.712,6.2-12.67,2.846-18.5S20.633,3.3,14.264,3.361" transform="translate(-0.01 -1.144)" fill="#89c5cc" fill-rule="evenodd"/>
        <path id="Fill-294" d="M31.646.514a41.117,41.117,0,0,0-7.906,7.923c-2.194,2.832-3.644,6.368-6.28,8.837-1.331-1.45-2.89-5.365-5.545-3.811-2.2,1.289-.785,3.505.288,4.961,2.771,3.758,5.848,5.27,9.4,1.557,3.227-3.372,5.06-7.87,8.077-11.436C31.005,6.98,33.05,5.427,34.1,3.7c.955-1.566-.226-4.825-2.458-3.185" transform="translate(-3.53 -0.065)" fill="#89c5cc" fill-rule="evenodd"/>
      </g>
      <g id="Whiteboard-Stuff" transform="translate(353.527 49.082)" opacity="0.5">
        <path id="Wireframy-Stuff-2" data-name="Wireframy-Stuff" d="M42.346,29.7c.1-.015.2-.026.29-.032,2.468-.157,4.968-.092,7.441-.149,5.063-.117,10.325.159,15.359-.434,1.023-.133,1.381,1.18.922,1.86-.515.764-2.164.725-2.927.838a66.047,66.047,0,0,1-6.752.546c-2.368.1-4.737.183-7.106.249-2.052.057-6.606.915-8.5.056-1.479-.669-1.445-1.413-.841-1.988a9.9,9.9,0,0,1-.384-2.755,65.079,65.079,0,0,1-.531-7.939c-.009-5.235,0-10.673,1.449-15.74a1.286,1.286,0,0,1-.928-1.168C39.841-.162,51.6.6,53.982.54c2.93-.077,5.861-.087,8.792-.071C64.71.48,67.33.062,69.258.51c3.755.872,3.517,7.309,3.594,10.422a163.4,163.4,0,0,1-.4,17.024c-.156,1.923-1.556,4.361-3.152,1.71-.89-1.478-.493-4.932-.495-6.565,0-5.806.906-11.788.035-17.565-.285-1.894-.222-2.022-2.149-1.982-1.528.032-3.056.082-4.585.115-3.112.065-6.225.108-9.336.222-1.181.044-5.427.785-8.738.782,0,.026,0,.053,0,.08.045,2.239-1.052,4.955-1.2,7.311-.359,5.665.069,11.462-.461,17.1C42.365,29.333,42.356,29.515,42.346,29.7Z" transform="translate(-12.88 -0.302)" fill="#89c5cc" fill-rule="evenodd"/>
        <path id="Wireframy-Stuff-3" data-name="Wireframy-Stuff" d="M109.025,31.619a4.184,4.184,0,0,1-.954-1.69,29.524,29.524,0,0,1-.933-8.053c-.126-5.728-.064-11.465-.1-17.195a1.472,1.472,0,0,1,.437-2.053c1.752-1.5,6.8-1.122,9.021-1.24,3.2-.169,6.4-.208,9.605-.22,3.392-.017,6.789.044,10.18.148,1.258.039,10,.259,6.095,2.379a4.083,4.083,0,0,1-.751.307,12.376,12.376,0,0,1,.156,2.438c-.166,3.049-.237,6.1-.373,9.155-.151,3.405-.295,6.81-.412,10.217-.062,1.8.554,5.989-.871,7.289-.96.877-1.617.7-2.059.106-3.411.991-11.282.352-12.715.353-2.569,0-16.519,1.652-16.542-1.32A.992.992,0,0,1,109.025,31.619Zm2.266-1.051c3.892-.831,11.148-.276,12.674-.281,2.844-.011,5.688.028,8.529.142.886.035,3.052-.135,4.763.055-.015-.155-.026-.3-.032-.419-.155-3.067.014-6.165.113-9.232.1-3.091.252-6.179.371-9.27.061-1.59-.34-4.908.095-7.2-2.066-.039-4.232-.289-5.625-.289-3.27,0-6.539-.037-9.809.027a94.938,94.938,0,0,0-10.609.577c-.192.026-.423.075-.679.135.534,2.233-.114,5.825-.116,7.894-.007,5.8.207,11.563.337,17.33Q111.31,30.324,111.291,30.568Z" transform="translate(-34.985 -0.585)" fill="#89c5cc" fill-rule="evenodd"/>
        <path id="Fill-135" d="M60.7,47.965c-2.1,1.228-.969,6.142-.24,7.842a14.058,14.058,0,0,0,6.25,6.432c5.3,2.932,12.939,2.153,16.947,7.236.041.053,1.427,1.424,1.742-.352.259-1.458-2.327-3.684-3.33-4.415-2.85-2.078-6.505-2.748-9.8-3.786-3.516-1.107-7.374-3.148-8.848-6.772-.522-1.284.473-8.059-2.719-6.185" transform="translate(-19.491 -15.812)" fill="#c1dee2" fill-rule="evenodd"/>
        <path id="Fill-137" d="M121.427,51.6c-1.927.531-.653,3.183-.656,4.51a7.863,7.863,0,0,1-1.554,4.711c-2.589,3.352-7.657,3.854-11.458,4.815-2.759.7-9.361,2.2-9.62,5.927-.289,4.167,5.54-.9,6.032-1.112,5.448-2,12.5-2.384,16.7-6.783a10.81,10.81,0,0,0,2.925-6.74c.092-1.408.108-6.006-2.37-5.33" transform="translate(-32.151 -17.089)" fill="#c1dee2" fill-rule="evenodd"/>
        <path id="Fill-139" d="M87.568,85.383C95.588,83.27,103.059,88.89,104,96.974c1,8.531-5.432,15.4-13.912,15.776-7.459.331-16.484-5.01-16.532-13.238C73.516,91.8,80.9,87.137,87.568,85.383Zm3.86,5.751c-1.372.8-1.623-1.275-2.594-1.549s-2.542.751-3.354,1.349c-1.379,1.016-5.2,6.926-7.05,3.716-5.618,9.7,8.388,16.962,16.353,13.29,8.747-4.032,7.045-18.773-3.306-18.85C91.911,89.68,92.3,90.621,91.428,91.134Z" transform="translate(-24.102 -28.031)" fill="#89c5cc" fill-rule="evenodd"/>
        <path id="Fill-141" d="M89.289,102.123a1.4,1.4,0,0,0,2.795,0,1.4,1.4,0,0,0-2.795,0" transform="translate(-29.255 -33.224)" fill="#89c5cc" fill-rule="evenodd"/>
        <path id="Fill-143" d="M96.6,101.482c0,2.168,3.425,2.168,3.425,0,0-2.143-3.425-2.235-3.425,0" transform="translate(-31.651 -32.915)" fill="#89c5cc" fill-rule="evenodd"/>
        <path id="Fill-145" d="M91.08,109.719c-2.8,1.648,5.209,4.921,5.526,1.576.137-1.443-1.261-1.054-2.193-1.16-.892-.1-2.487-.908-3.332-.416" transform="translate(-29.647 -36.1)" fill="#89c5cc" fill-rule="evenodd"/>
        <path id="Fill-147" d="M89.561,126.494c.122,4.208.063,8.414.861,12.564.152.788.257,3.647.88,4.232,1.532,1.44,1.557-1.32,1.617-2.378.213-3.789-.185-7.7-.273-11.493-.019-.817.2-2.51-.188-3.3-.612-1.256-2.957-1.629-2.9.376" transform="translate(-29.344 -41.186)" fill="#c1dee2" fill-rule="evenodd"/>
        <path id="Fill-149" d="M65.147,121.879c-6.141,6.892-14.6,6.385-23.116,6.988-4.5.319-9.052.974-12.674,3.885a15.384,15.384,0,0,0-4.113,4.984c-.427.845-2.45,5.722.589,4.565,1.078-.41,2.139-3.635,2.836-4.589a13.544,13.544,0,0,1,5.065-4.292c3.931-1.881,8.626-1.849,12.888-2.087,4.456-.249,9.239-.482,13.334-2.42a20.191,20.191,0,0,0,5.285-3.513c.554-.524,1.742-1.413,1.831-2.214.1-.915-.778-2.591-1.925-1.307" transform="translate(-7.925 -39.983)" fill="#c1dee2" fill-rule="evenodd"/>
        <path id="Fill-151" d="M28.491,153.363c-5.768.193-11.529.426-17.29.791-1.18.075-5.116-.164-4.114,2.255.8,1.939,5.6.656,7.191.562,6-.356,12.029-.48,18.019-1.02,1.346-.121,7.427-.073,4.916-2.457-1.195-1.135-7.072-.187-8.723-.131" transform="translate(-2.269 -50.312)" fill="#89c5cc" fill-rule="evenodd"/>
        <path id="Fill-153" d="M1.156,157.439C-.662,159.827.173,165.631.311,168.5c.133,2.782-.407,7.868,3.224,8.3-1.153-.151.875.07,1.205.088.737.04,1.478.052,2.216.06,1.705.019,3.412,0,5.117-.038,3.863-.077,7.736-.19,11.593-.4,1.622-.09,10.419-.015,10.767-1.7.445-2.153-7.99-.935-9.5-.866-3.677.169-7.36.2-11.041.252-1.824.024-3.65.042-5.475.006-.753-.015-3.736.295-4.194-.208-.39-.428-.086-4.361-.094-4.963-.027-1.961-.025-3.927.045-5.888.047-1.32.761-3.831.179-5.071a2.008,2.008,0,0,0-3.2-.633" transform="translate(0 -51.606)" fill="#89c5cc" fill-rule="evenodd"/>
        <path id="Fill-155" d="M45.895,156.762c.105,4.368.138,8.825,1.17,13.1.343,1.422.825,4.354,2.253,5.09a1.96,1.96,0,0,0,2.892-1.816c.123-1.868-.877-4.319-1.082-6.236-.24-2.236-.379-4.474-.461-6.72-.062-1.69.452-4.223-1.159-5.312a2.322,2.322,0,0,0-3.613,1.9" transform="translate(-15.037 -50.818)" fill="#89c5cc" fill-rule="evenodd"/>
        <path id="Fill-157" d="M62.412,155.943c-1.794,1.787-.992,7.445-.768,9.741.164,1.682,2,9.955,4.763,5.641,1.22-1.908-.33-6.954-.319-9.18.007-1.417.509-3.209.267-4.571-.32-1.8-2.316-3.257-3.943-1.631" transform="translate(-20.075 -51.066)" fill="#89c5cc" fill-rule="evenodd"/>
        <path id="Wireframy-Stuff-4" data-name="Wireframy-Stuff" d="M105.863,169.824a1.5,1.5,0,0,1,.314,1.633c-.617,1.432-2.886,1.123-4.119,1.225-4.114.343-8.247.572-12.376.608-3.989.035-7.979-.067-11.968-.028-3.323.033-6.785.706-10.077.571-1.375-.057-2.842-.507-2.494-2.283.309-1.576,1.895-1.588,3.188-1.72a111.44,111.44,0,0,1,11.706-.523c8.224.029,16.441-.014,24.664-.057a1.781,1.781,0,0,1,.919.354c-.43-.522-.223-1.3-.3-2.05-.216-2.034-.356-4.034-.741-6.068-.309-1.627-.541-4.391-2.048-5.414-1.646-1.118-5.3-.748-7.264-.8a136.765,136.765,0,0,0-15.863.717c-2.4.218-4.829.384-7.2.815-1.321.24-5.2,2.179-6.252.986-2.541-2.873,8.624-4.053,10.139-4.21,5.389-.556,10.784-.973,16.2-1.025,3.659-.029,9.921-.34,12.611,2.662,1.616,1.8,2.183,4.772,2.813,7.021.484,1.728,1.8,4.843.864,6.627a1.837,1.837,0,0,1-2.134,1.21A1.938,1.938,0,0,1,105.863,169.824Z" transform="translate(-21.327 -50.18)" fill="#89c5cc" fill-rule="evenodd"/>
        <path id="Line" d="M148.472,135.535h0m-36.465-17.8c-3.273,1.924,2.785,7.568,4.327,8.441,3.472,1.964,8.244,2.261,12.121,2.813,4.907.7,10.247.957,14.962,2.565a9.443,9.443,0,0,1,4.6,3.4c.667.833,2.272,4.421,3.733,3.572,2.943-1.711-4.987-8.89-6.735-9.662-3.973-1.755-8.668-2.246-12.916-2.928a98.143,98.143,0,0,1-11.836-2.222,7.9,7.9,0,0,1-4.844-3.5c-.761-1.182-1.385-3.662-3.415-2.474" transform="translate(-36.385 -38.675)" fill="#c1dee2" fill-rule="evenodd"/>
        <path id="Wireframy-Stuff-5" data-name="Wireframy-Stuff" d="M137.666,170.177a22.547,22.547,0,0,1-1.516-6.193,65.787,65.787,0,0,1-.353-9.185,2.012,2.012,0,0,1,3.226-1.552c1.681-.7,4.524-.809,6.052-.964,2.511-.254,5.043-.348,7.562-.5,5.879-.351,11.752-.985,17.642-1.116,1.763-.037,4.123-.2,5.532,1.105,1.6,1.481,1.925,5.156,2.405,7.136a48.287,48.287,0,0,1,1.365,6.544,12.452,12.452,0,0,1,.127,2.2,1.38,1.38,0,0,1,1.1,1.588c-.137,1.442-2.136,1.639-3.305,1.867-3.888.759-8.044.587-11.986.7-8.246.232-17.065,1.564-25.281.771C138.828,172.446,137.318,171.949,137.666,170.177Zm2.969-1.7c.327,0,.649,0,.95,0q6.221-.109,12.437-.358c4.227-.162,8.454-.343,12.684-.392,3.363-.038,6.825.252,10.212.121-.728-1.906-.618-4.906-1.006-6.88s-.532-4.284-1.32-6.124c-.887-2.071-1.658-1.592-3.967-1.435-2.375.161-4.747.388-7.119.583-5.215.429-10.434.7-15.653,1.064-2.707.188-5.3.961-7.944,1.264-.04.945-.173,1.9-.158,2.588.044,2.034.245,4.053.421,6.079C140.243,165.812,140.584,167.233,140.634,168.48Z" transform="translate(-44.486 -49.56)" fill="#89c5cc" fill-rule="evenodd"/>
      </g>
    </g>
    <g id="Group_148" data-name="Group 148" transform="translate(-2844 787)">
      <g id="Short_Beard" data-name="Short Beard" transform="matrix(0.995, -0.105, 0.105, 0.995, 4041.894, 601.282)">
        <g id="Head" transform="translate(54.02 31.354)">
          <path id="Path_264" data-name="Path 264" d="M9.739,40.655C4.308,34.28.631,26.466,1.246,17.711,3.016-7.515,38.131-1.965,44.961,10.767s6.019,45.027-2.809,47.3c-3.521.907-11.02-1.315-18.654-5.916l4.791,33.9H0Z" fill="#d8ba9f" fill-rule="evenodd"/>
        </g>
        <path id="Hair" d="M78.933,51.851q1.624,22.627,8.594,22.627c6.97,0,12.883-4.425,15.941-4.425,2.229,0,1.732,2.79.254,4.858-1.219,1.706-7.156,3.351-7.156,6s4.691.6,4.691,2.168c0,2.6.824,7.475-3.68,7.475-4.559,0-17.63-1.661-19.87-8.427q-2.168-6.55-2.8-27.146a7.145,7.145,0,0,0-.843-.05,7.072,7.072,0,0,0-4.942,12.132c-1.636,2.31-3.47,4.723-5.572,7.213-7.9-4.737-13.754-18.6-6.035-31.924,2.134-6.526,6.963-10.011,12.668-11.63a20.518,20.518,0,0,1,13.467-.992c7.938.681,15.025,3.1,17.034,4.539,0,7.515-1.456,9.744-13.893,9.548C83.729,45.428,81.38,48.207,78.933,51.851Z" fill="#473718" fill-rule="evenodd"/>
      </g>
      <g id="Sweatpants" transform="translate(3983 793)">
        <path id="Leg" d="M128,0l36.631,126.227L181.86,221h17.293L181.891,0Z" fill="#bf9f82" fill-rule="evenodd"/>
        <path id="Leg-2" data-name="Leg" d="M111.538,0c2.556,65.574,1.548,101.34.976,107.3s-3.82,45.858-25.95,115.7H104.55c29.308-67,39.539-106.9,42.9-115.7S160.739,62.734,175.233,0Z" fill="#d8ba9f" fill-rule="evenodd"/>
        <path id="Pant" d="M127.214,0q14.292,65.153,49.439,208h25.293c1.868-97.746-6.079-162.08-19.841-208Z" fill="#69a1ac" fill-rule="evenodd"/>
        <path id="Pant-2" data-name="Pant" d="M111.41,0c2.5,65.574-3.984,130.177-24.079,209.021h26.986c29.362-66,50.406-130.287,64.789-209.021Z" fill="#89c5cc" fill-rule="evenodd"/>
        <g id="Accessories_Shoe_Flat-Simple" data-name="Accessories/Shoe/Flat-Simple" transform="translate(84 199)">
          <path id="Shoe" d="M0,37,.992,21q8.716,2.549,21.833-2,14.1,9.991,35.512,13.644h0a2,2,0,0,1,1.588,2.517L58.553,40H1.985Z" fill="#191847" fill-rule="evenodd"/>
        </g>
        <g id="Accessories_Shoe_Flat-Simple-2" data-name="Accessories/Shoe/Flat-Simple" transform="translate(178 199)">
          <path id="Shoe-2" data-name="Shoe" d="M0,37,.992,21q8.716,2.549,21.833-2,14.1,9.991,35.512,13.644h0a2,2,0,0,1,1.588,2.517L58.553,40H1.985Z" fill="#191847" fill-rule="evenodd"/>
        </g>
      </g>
      <g id="Hoodie" transform="translate(3998.837 682.513)">
        <path id="Skin" d="M190.781,92.211l31.9,23.424a85.863,85.863,0,0,1,21.684,8.713c1.371,1.249,3.028,3.78-2.658,3.342s-11.687-.642-12.472,1.3,2.657,4.259,1.07,6.876q-1.586,2.617-14.986-13.124l-31.588-13.1ZM68.308,93.02l20.9.082q-19.355,62.48-20.9,66.3c-2.314,5.735,2.583,14.468,4.677,19.162-6.82,3.052-6.093-8.25-14.7-4.248-7.853,3.653-13.826,10.273-22.9,4.675-1.115-.688-2.338-3.28.616-5.3,7.358-5.045,17.961-13.875,19.393-16.781Q58.328,150.963,68.308,93.02Z" fill="#d8ba9f" fill-rule="evenodd"/>
        <path id="Coat-Back" d="M122.732,9.58l8.485-2.231C165.594,32.163,183.362,84.056,225,108.727l-8.407,12.513C147.889,118.772,125.383,55.547,122.732,9.58Z" transform="translate(6.265 -14.909) rotate(5)" fill="#90a9ad" fill-rule="evenodd"/>
        <path id="Shirt" d="M90,114h76.511c3.5,0,2.837-5.048,2.332-7.6-5.833-29.4-28.6-61.093-28.6-102.943L118.172,0C99.917,29.358,93.6,65.5,90,114Z" fill="#dde3e9" fill-rule="evenodd"/>
        <path id="Coat-Front" d="M90.615,28.858A12.622,12.622,0,0,1,83,22.411C74.934,7.856,77.847-.158,86.467-2.792S102.775,0,116.51,0a13.823,13.823,0,0,1,2.053.14l6.909.394Q155.205,101.305,141.872,135H81.652a205.405,205.405,0,0,1-10.243,21H55Q52.684,81.1,90.615,28.858Z" fill="#afccd1" fill-rule="evenodd"/>
        <path id="Shade" d="M94.765,100.5Q97.606,124.267,104,135H81.652Q87.895,120.443,94.765,100.5Z" fill="rgba(0,0,0,0.1)" fill-rule="evenodd"/>
      </g>
    </g>
  </g>
</svg>
