<?xml version="1.0" encoding="utf-8"?>
<!-- Generator: Adobe Illustrator 23.0.3, SVG Export Plug-In . SVG Version: 6.00 Build 0)  -->
<svg version="1.1" id="Layer_1" xmlns="http://www.w3.org/2000/svg" xmlns:xlink="http://www.w3.org/1999/xlink" x="0px" y="0px"
	 viewBox="0 0 592.3 483.1" style="enable-background:new 0 0 592.3 483.1;" xml:space="preserve">
<style type="text/css">
	.st0{fill-rule:evenodd;clip-rule:evenodd;fill:#DCEAEA;}
	.st1{opacity:0.3;fill:#0078AD;enable-background:new    ;}
	.st2{fill:#FFFFFF;}
	.st3{fill:#89C5CC;}
	.st4{fill:#318993;}
	.st5{fill:#0078AD;}
	.st6{fill-rule:evenodd;clip-rule:evenodd;fill:#318993;}
	.st7{opacity:0.3;fill-rule:evenodd;clip-rule:evenodd;fill:#0078AD;enable-background:new    ;}
	.st8{fill-rule:evenodd;clip-rule:evenodd;fill:#0078AD;}
</style>
<g>
	<path id="Background-Shape" class="st0" d="M592,404.6c8.6,58.4-200.8,96.6-381,70C30.8,447.9-51.8,344,34.2,288.7
		S583.4,346.1,592,404.6z"/>
	<path id="Container" class="st1" d="M96.6,21.5h126.3c4.4,0,8,3.6,8,8v254.2c0,4.4-3.6,8-8,8H96.6c-4.4,0-8-3.6-8-8V29.5
		C88.6,25.1,92.2,21.5,96.6,21.5z"/>
	<circle id="Touch" class="st2" cx="159.3" cy="261.3" r="13.4"/>
	<circle id="Lens" class="st2" cx="147.6" cy="37.6" r="1.8"/>
	<path id="Sensor" class="st2" d="M155.7,35.8h15.2c1,0,1.8,0.8,1.8,1.8v0c0,1-0.8,1.8-1.8,1.8h-15.2c-1,0-1.8-0.8-1.8-1.8v0
		C153.9,36.6,154.7,35.8,155.7,35.8z"/>
	<path id="Background" class="st2" d="M105.1,46.5h109.2c2.2,0,4,1.8,4,4v40.3c0,2.2-1.8,4-4,4H105.1c-2.2,0-4-1.8-4-4V50.5
		C101.1,48.3,102.9,46.5,105.1,46.5z"/>
	<path id="Name" class="st3" d="M139,61h59.3c1.7,0,3,1.3,3,3v1.2c0,1.7-1.3,3-3,3H139c-1.7,0-3-1.3-3-3V64
		C136,62.4,137.3,61,139,61z"/>
	<path id="Name-2" class="st3" d="M139,73.1h37.8c1.7,0,3,1.3,3,3v1.2c0,1.7-1.3,3-3,3H139c-1.7,0-3-1.3-3-3v-1.2
		C136,74.4,137.3,73.1,139,73.1z"/>
	<circle id="Avatar" class="st4" cx="119.9" cy="70.7" r="10.7"/>
	<path id="Background-2" class="st2" d="M105.1,102h109.2c2.2,0,4,1.8,4,4v29.6c0,2.2-1.8,4-4,4H105.1c-2.2,0-4-1.8-4-4V106
		C101.1,103.8,102.9,102,105.1,102z"/>
	<path id="Name-3" class="st3" d="M138.8,113.3h59.7c1.6,0,2.8,1.3,2.8,2.8v0c0,1.6-1.3,2.8-2.8,2.8h-59.7c-1.6,0-2.8-1.3-2.8-2.8v0
		C136,114.5,137.3,113.3,138.8,113.3z"/>
	<path id="Name-4" class="st3" d="M138.8,122.7H177c1.6,0,2.8,1.3,2.8,2.8v0c0,1.6-1.3,2.8-2.8,2.8h-38.2c-1.6,0-2.8-1.3-2.8-2.8v0
		C136,123.9,137.3,122.7,138.8,122.7z"/>
	<circle id="Avatar-2" class="st4" cx="119.9" cy="120.8" r="10.7"/>
	<path id="Background-3" class="st2" d="M105.1,146.7h109.2c2.2,0,4,1.8,4,4v29.6c0,2.2-1.8,4-4,4H105.1c-2.2,0-4-1.8-4-4v-29.6
		C101.1,148.5,102.9,146.7,105.1,146.7z"/>
	<path id="Name-5" class="st3" d="M138.8,158h59.7c1.6,0,2.8,1.3,2.8,2.8v0c0,1.6-1.3,2.8-2.8,2.8h-59.7c-1.6,0-2.8-1.3-2.8-2.8v0
		C136,159.3,137.3,158,138.8,158z"/>
	<path id="Name-6" class="st3" d="M138.8,167.4H177c1.6,0,2.8,1.3,2.8,2.8v0c0,1.6-1.3,2.8-2.8,2.8h-38.2c-1.6,0-2.8-1.3-2.8-2.8v0
		C136,168.7,137.3,167.4,138.8,167.4z"/>
	<circle id="Avatar-3" class="st5" cx="119.9" cy="165.5" r="10.7"/>
	<path id="Background-4" class="st2" d="M105.1,191.5h109.2c2.2,0,4,1.8,4,4V225c0,2.2-1.8,4-4,4H105.1c-2.2,0-4-1.8-4-4v-29.6
		C101.1,193.3,102.9,191.5,105.1,191.5z"/>
	<path id="Name-7" class="st3" d="M138.8,202.7h59.7c1.6,0,2.8,1.3,2.8,2.8v0c0,1.6-1.3,2.8-2.8,2.8h-59.7c-1.6,0-2.8-1.3-2.8-2.8v0
		C136,204,137.3,202.7,138.8,202.7z"/>
	<path id="Name-8" class="st3" d="M138.8,212.1H177c1.6,0,2.8,1.3,2.8,2.8v0c0,1.6-1.3,2.8-2.8,2.8h-38.2c-1.6,0-2.8-1.3-2.8-2.8v0
		C136,213.4,137.3,212.1,138.8,212.1z"/>
	<circle id="Avatar-4" class="st4" cx="119.9" cy="210.3" r="10.7"/>
	<path id="Container-2" class="st3" d="M155.6,44.7h126.3c4.4,0,8,3.6,8,8v254.2c0,4.4-3.6,8-8,8H155.6c-4.4,0-8-3.6-8-8V52.7
		C147.6,48.3,151.2,44.7,155.6,44.7z"/>
	<circle id="Touch-2" class="st2" cx="218.3" cy="284.5" r="13.4"/>
	<circle id="Lens-2" class="st2" cx="206.7" cy="60.8" r="1.8"/>
	<path id="Sensor-2" class="st2" d="M214.7,59.1h15.2c1,0,1.8,0.8,1.8,1.8v0c0,1-0.8,1.8-1.8,1.8h-15.2c-1,0-1.8-0.8-1.8-1.8v0
		C212.9,59.9,213.7,59.1,214.7,59.1z"/>
	<path id="Container-3" class="st2" d="M164.2,69.8h109.2c2.2,0,4,1.8,4,4v40.3c0,2.2-1.8,4-4,4H164.2c-2.2,0-4-1.8-4-4V73.8
		C160.2,71.6,161.9,69.8,164.2,69.8z"/>
	<path id="Label" class="st3" d="M171.2,84.3h59.3c1.7,0,3,1.3,3,3v1.2c0,1.7-1.3,3-3,3h-59.3c-1.7,0-3-1.3-3-3v-1.2
		C168.2,85.6,169.6,84.3,171.2,84.3z"/>
	<path id="Label-2" class="st3" d="M171.2,96.4H209c1.7,0,3,1.3,3,3v1.2c0,1.7-1.3,3-3,3h-37.8c-1.7,0-3-1.3-3-3v-1.2
		C168.2,97.7,169.6,96.4,171.2,96.4z"/>
	<circle id="Background-5" class="st3" cx="264.8" cy="93.9" r="6.3"/>
	<circle id="Indicator" class="st1" cx="264.8" cy="93.9" r="2.7"/>
	<path id="Background-6" class="st2" d="M164.2,125.3h109.2c2.2,0,4,1.8,4,4v29.6c0,2.2-1.8,4-4,4H164.2c-2.2,0-4-1.8-4-4v-29.6
		C160.2,127.1,161.9,125.3,164.2,125.3z"/>
	<path id="Name-9" class="st3" d="M197.9,136.5h59.7c1.6,0,2.8,1.3,2.8,2.8v0c0,1.6-1.3,2.8-2.8,2.8h-59.7c-1.6,0-2.8-1.3-2.8-2.8v0
		C195,137.8,196.3,136.5,197.9,136.5z"/>
	<path id="Name-10" class="st3" d="M197.9,145.9h38.2c1.6,0,2.8,1.3,2.8,2.8v0c0,1.6-1.3,2.8-2.8,2.8h-38.2c-1.6,0-2.8-1.3-2.8-2.8
		v0C195,147.2,196.3,145.9,197.9,145.9z"/>
	<circle id="Avatar-5" class="st4" cx="178.9" cy="144.1" r="10.7"/>
	<path id="Container-4" class="st2" d="M164.2,170h109.2c2.2,0,4,1.8,4,4v29.6c0,2.2-1.8,4-4,4H164.2c-2.2,0-4-1.8-4-4V174
		C160.2,171.8,161.9,170,164.2,170z"/>
	<path id="Label-3" class="st3" d="M171,181.3h59.7c1.6,0,2.8,1.3,2.8,2.8v0c0,1.6-1.3,2.8-2.8,2.8H171c-1.6,0-2.8-1.3-2.8-2.8v0
		C168.2,182.5,169.5,181.3,171,181.3z"/>
	<path id="Label-4" class="st5" d="M171,190.7h38.2c1.6,0,2.8,1.3,2.8,2.8v0c0,1.6-1.3,2.8-2.8,2.8H171c-1.6,0-2.8-1.3-2.8-2.8v0
		C168.2,191.9,169.5,190.7,171,190.7z"/>
	<circle id="Background-7" class="st3" cx="264.8" cy="188.8" r="6.3"/>
	<circle id="Indicator-2" class="st1" cx="264.8" cy="188.8" r="2.7"/>
	<path id="Background-8" class="st2" d="M164.2,214.7h109.2c2.2,0,4,1.8,4,4v29.6c0,2.2-1.8,4-4,4H164.2c-2.2,0-4-1.8-4-4v-29.6
		C160.2,216.5,161.9,214.7,164.2,214.7z"/>
	<path id="Name-11" class="st3" d="M197.9,226h59.7c1.6,0,2.8,1.3,2.8,2.8v0c0,1.6-1.3,2.8-2.8,2.8h-59.7c-1.6,0-2.8-1.3-2.8-2.8v0
		C195,227.3,196.3,226,197.9,226z"/>
	<path id="Name-12" class="st3" d="M197.9,235.4h38.2c1.6,0,2.8,1.3,2.8,2.8v0c0,1.6-1.3,2.8-2.8,2.8h-38.2c-1.6,0-2.8-1.3-2.8-2.8
		v0C195,236.7,196.3,235.4,197.9,235.4z"/>
	<circle id="Avatar-6" class="st4" cx="178.9" cy="233.5" r="10.7"/>
	<path id="Container-5" class="st1" d="M214.7,67.1h283.7c4.4,0,8,3.6,8,8v293.6c0,4.4-3.6,8-8,8H214.7c-4.4,0-8-3.6-8-8V75.1
		C206.7,70.7,210.3,67.1,214.7,67.1z"/>
	<path id="Background-9" class="st2" d="M437.5,105.6h46.6c4.4,0,8,3.6,8,8V170c0,4.4-3.6,8-8,8h-46.6c-4.4,0-8-3.6-8-8v-56.5
		C429.5,109.2,433,105.6,437.5,105.6z"/>
	<circle id="Avatar-7" class="st3" cx="460.8" cy="133.3" r="14.3"/>
	<path id="Name-13" class="st3" d="M441.1,151.2h39.4c1.5,0,2.7,1.2,2.7,2.7l0,0c0,1.5-1.2,2.7-2.7,2.7h-39.4
		c-1.5,0-2.7-1.2-2.7-2.7l0,0C438.4,152.4,439.6,151.2,441.1,151.2z"/>
	<path id="Name-14" class="st3" d="M448.3,160.2h25.1c1.5,0,2.7,1.2,2.7,2.7l0,0c0,1.5-1.2,2.7-2.7,2.7h-25.1
		c-1.5,0-2.7-1.2-2.7-2.7l0,0C445.6,161.4,446.8,160.2,448.3,160.2z"/>
	<path id="Header" class="st6" d="M213.8,67.1h285.4c4,0,7.2,3.2,7.2,7.2v17H206.7v-17C206.7,70.3,209.9,67.1,213.8,67.1
		C213.8,67.1,213.8,67.1,213.8,67.1z"/>
	<circle id="buttons-2" class="st1" cx="218.3" cy="79.6" r="3.6"/>
	<circle id="buttons-3" class="st1" cx="229" cy="79.6" r="3.6"/>
	<circle id="buttons-4" class="st1" cx="239.8" cy="79.6" r="3.6"/>
	<path id="Background-10" class="st2" d="M437.5,185.2h46.6c4.4,0,8,3.6,8,8v157.6c0,4.4-3.6,8-8,8h-46.6c-4.4,0-8-3.6-8-8V193.2
		C429.5,188.8,433,185.2,437.5,185.2z"/>
	<path id="Data" class="st3" d="M449.6,201.3H472c2.2,0,4,1.8,4,4v15.3c0,2.2-1.8,4-4,4h-22.4c-2.2,0-4-1.8-4-4v-15.3
		C445.6,203.1,447.4,201.3,449.6,201.3z"/>
	<path id="Data-2" class="st5" d="M449.6,231.7H472c2.2,0,4,1.8,4,4v14.4c0,2.2-1.8,4-4,4h-22.4c-2.2,0-4-1.8-4-4v-14.4
		C445.6,233.5,447.4,231.7,449.6,231.7z"/>
	<path id="Data-3" class="st3" d="M449.6,261.3H472c2.2,0,4,1.8,4,4v14.4c0,2.2-1.8,4-4,4h-22.4c-2.2,0-4-1.8-4-4v-14.4
		C445.6,263,447.4,261.3,449.6,261.3z"/>
	<path id="Data-4" class="st3" d="M449.6,320.3H472c2.2,0,4,1.8,4,4v14.4c0,2.2-1.8,4-4,4h-22.4c-2.2,0-4-1.8-4-4v-14.4
		C445.6,322.1,447.4,320.3,449.6,320.3z"/>
	<path id="Data-5" class="st4" d="M449.6,290.8H472c2.2,0,4,1.8,4,4v14.4c0,2.2-1.8,4-4,4h-22.4c-2.2,0-4-1.8-4-4v-14.4
		C445.6,292.6,447.4,290.8,449.6,290.8z"/>
	<path id="Container-6" class="st2" d="M225,106.5h193.3c2.2,0,4,1.8,4,4v34.1c0,2.2-1.8,4-4,4H225c-2.2,0-4-1.8-4-4v-34.1
		C221,108.3,222.8,106.5,225,106.5z"/>
	<path id="Label-5" class="st3" d="M232,119.1h143.4c1.7,0,3,1.3,3,3v0.3c0,1.7-1.3,3-3,3H232c-1.7,0-3-1.3-3-3v-0.3
		C229,120.4,230.4,119.1,232,119.1z"/>
	<path id="Label-6" class="st3" d="M232,129.6h94.3c1.7,0,3,1.3,3,3v0.3c0,1.7-1.3,3-3,3H232c-1.7,0-3-1.3-3-3v-0.3
		C229,130.9,230.4,129.6,232,129.6z"/>
	<circle id="Background-11" class="st3" cx="400.8" cy="127.5" r="6.3"/>
	<circle id="Indicator-3" class="st1" cx="400.8" cy="127.5" r="2.7"/>
	<path id="Container-7" class="st2" d="M225,155.7h193.3c2.2,0,4,1.8,4,4v26.9c0,2.2-1.8,4-4,4H225c-2.2,0-4-1.8-4-4v-26.9
		C221,157.5,222.8,155.7,225,155.7z"/>
	<path id="Label-7" class="st3" d="M231.7,166.1h144.2c1.4,0,2.6,1.2,2.6,2.6l0,0c0,1.4-1.2,2.6-2.6,2.6H231.7
		c-1.4,0-2.6-1.2-2.6-2.6l0,0C229,167.3,230.2,166.1,231.7,166.1z"/>
	<path id="Label-8" class="st3" d="M231.7,174.9h95.1c1.4,0,2.6,1.2,2.6,2.6l0,0c0,1.4-1.2,2.6-2.6,2.6h-95.1
		c-1.4,0-2.6-1.2-2.6-2.6l0,0C229,176,230.2,174.9,231.7,174.9z"/>
	<circle id="Background-12" class="st3" cx="400.8" cy="173.1" r="6.3"/>
	<circle id="Indicator-4" class="st1" cx="400.8" cy="173.1" r="2.7"/>
	<path id="Container-8" class="st2" d="M225,197.7h193.3c2.2,0,4,1.8,4,4v26.9c0,2.2-1.8,4-4,4H225c-2.2,0-4-1.8-4-4v-26.9
		C221,199.5,222.8,197.7,225,197.7z"/>
	<path id="Label-9" class="st3" d="M231.7,208.2h144.2c1.4,0,2.6,1.2,2.6,2.6l0,0c0,1.4-1.2,2.6-2.6,2.6H231.7
		c-1.4,0-2.6-1.2-2.6-2.6l0,0C229,209.4,230.2,208.2,231.7,208.2z"/>
	<path id="Label-10" class="st3" d="M231.7,216.9h95.1c1.4,0,2.6,1.2,2.6,2.6l0,0c0,1.4-1.2,2.6-2.6,2.6h-95.1
		c-1.4,0-2.6-1.2-2.6-2.6l0,0C229,218.1,230.2,216.9,231.7,216.9z"/>
	<circle id="Background-13" class="st3" cx="400.8" cy="215.2" r="6.3"/>
	<circle id="Indicator-5" class="st5" cx="400.8" cy="215.2" r="2.7"/>
	<path id="Container-9" class="st2" d="M225,323.9h193.3c2.2,0,4,1.8,4,4v26.9c0,2.2-1.8,4-4,4H225c-2.2,0-4-1.8-4-4v-26.9
		C221,325.7,222.8,323.9,225,323.9z"/>
	<path id="Label-11" class="st3" d="M231.7,334.4h144.2c1.4,0,2.6,1.2,2.6,2.6l0,0c0,1.4-1.2,2.6-2.6,2.6H231.7
		c-1.4,0-2.6-1.2-2.6-2.6l0,0C229,335.5,230.2,334.4,231.7,334.4z"/>
	<path id="Label-12" class="st3" d="M231.7,343.1h95.1c1.4,0,2.6,1.2,2.6,2.6l0,0c0,1.4-1.2,2.6-2.6,2.6h-95.1
		c-1.4,0-2.6-1.2-2.6-2.6l0,0C229,344.3,230.2,343.1,231.7,343.1z"/>
	<circle id="Background-14" class="st3" cx="400.8" cy="341.3" r="6.3"/>
	<circle id="Indicator-6" class="st1" cx="400.8" cy="341.3" r="2.7"/>
	<path id="Container-10" class="st2" d="M225,281.8h193.3c2.2,0,4,1.8,4,4v26.9c0,2.2-1.8,4-4,4H225c-2.2,0-4-1.8-4-4v-26.9
		C221,283.6,222.8,281.8,225,281.8z"/>
	<path id="Label-13" class="st3" d="M231.7,292.3h144.2c1.4,0,2.6,1.2,2.6,2.6l0,0c0,1.4-1.2,2.6-2.6,2.6H231.7
		c-1.4,0-2.6-1.2-2.6-2.6l0,0C229,293.5,230.2,292.3,231.7,292.3z"/>
	<path id="Label-14" class="st3" d="M231.7,301h95.1c1.4,0,2.6,1.2,2.6,2.6l0,0c0,1.4-1.2,2.6-2.6,2.6h-95.1c-1.4,0-2.6-1.2-2.6-2.6
		l0,0C229,302.2,230.2,301,231.7,301z"/>
	<circle id="Background-15" class="st3" cx="400.8" cy="299.3" r="6.3"/>
	<circle id="Indicator-7" class="st1" cx="400.8" cy="299.3" r="2.7"/>
	<path id="Container-11" class="st2" d="M225,239.8h193.3c2.2,0,4,1.8,4,4v26.9c0,2.2-1.8,4-4,4H225c-2.2,0-4-1.8-4-4v-26.9
		C221,241.6,222.8,239.8,225,239.8z"/>
	<path id="Label-15" class="st3" d="M231.7,250.3h144.2c1.4,0,2.6,1.2,2.6,2.6l0,0c0,1.4-1.2,2.6-2.6,2.6H231.7
		c-1.4,0-2.6-1.2-2.6-2.6l0,0C229,251.4,230.2,250.3,231.7,250.3z"/>
	<path id="Label-16" class="st3" d="M231.7,259h95.1c1.4,0,2.6,1.2,2.6,2.6l0,0c0,1.4-1.2,2.6-2.6,2.6h-95.1c-1.4,0-2.6-1.2-2.6-2.6
		l0,0C229,260.1,230.2,259,231.7,259z"/>
	<circle id="Background-16" class="st3" cx="400.8" cy="257.2" r="6.3"/>
	<circle id="Indicator-8" class="st1" cx="400.8" cy="257.2" r="2.7"/>
	<path id="Value" class="st3" d="M433,28.6L433,28.6c1.5,0,2.7,1.2,2.7,2.7v17c0,1.5-1.2,2.7-2.7,2.7l0,0c-1.5,0-2.7-1.2-2.7-2.7
		v-17C430.4,29.8,431.6,28.6,433,28.6z"/>
	<path id="Value-2" class="st3" d="M445.6,14.3L445.6,14.3c1.5,0,2.7,1.2,2.7,2.7v31.3c0,1.5-1.2,2.7-2.7,2.7l0,0
		c-1.5,0-2.7-1.2-2.7-2.7V17C442.9,15.5,444.1,14.3,445.6,14.3z"/>
	<path id="Value-3" class="st3" d="M458.1,7.2L458.1,7.2c1.5,0,2.7,1.2,2.7,2.7v38.5c0,1.5-1.2,2.7-2.7,2.7l0,0
		c-1.5,0-2.7-1.2-2.7-2.7V9.8C455.4,8.4,456.6,7.2,458.1,7.2z"/>
	<path id="Value-4" class="st3" d="M470.6,14.3L470.6,14.3c1.5,0,2.7,1.2,2.7,2.7v31.3c0,1.5-1.2,2.7-2.7,2.7l0,0
		c-1.5,0-2.7-1.2-2.7-2.7V17C467.9,15.5,469.1,14.3,470.6,14.3z"/>
	<path id="Value-5" class="st4" d="M483.1,0L483.1,0c1.5,0,2.7,1.2,2.7,2.7v45.6c0,1.5-1.2,2.7-2.7,2.7l0,0c-1.5,0-2.7-1.2-2.7-2.7
		V2.7C480.5,1.2,481.7,0,483.1,0z"/>
	<path id="Value-6" class="st7" d="M401.8,35.3c-2.7,2.9-7.3,3.1-10.2,0.4c-2.9-2.7-3.1-7.3-0.4-10.2c1.4-1.5,3.3-2.3,5.3-2.3V9.8
		c-11.4,0-20.6,9.2-20.7,20.6c0.1,11.4,9.3,20.6,20.7,20.6c5.7,0,11.2-2.3,15.1-6.5L401.8,35.3z"/>
	<path id="Value-7" class="st8" d="M396.4,9.8v13.4c4,0,7.2,3.2,7.2,7.2l0,0h13.4C416.9,19.1,407.7,9.9,396.4,9.8z"/>
	<path id="Value-8" class="st6" d="M403.6,30.4c0,2.2-1,4.3-2.7,5.6l8.2,10.5c5-3.9,7.9-9.8,7.9-16.1H403.6z"/>
</g>
</svg>
