<svg xmlns="http://www.w3.org/2000/svg" width="69.025" height="20.021" viewBox="0 0 69.025 20.021">
  <g id="craft-cms-logo" transform="translate(0 0)">
    <g id="craft-cms-logo-2" data-name="craft-cms-logo">
      <path id="Shape" d="M113.12,4.907h-.01l-2.267,1.778-.17.9h-2.348l.686-3.6c.162-1.359,2.232-.948,2.54-.871l.331-1.736c-3.723-1.431-4.81,2.607-4.81,2.607l-.686,3.6h-.012l-2.332,1.828h2l-2.193,11.509h1.939l2.192-11.509h2.348l-.858,4.505c-.546,3.28,2.739,2.921,3.788,2.71l.328-1.718c-2.508.566-2.177-.992-2.177-.992l.859-4.505h2.989l.348-1.828h-2.989l.51-2.674Z" transform="translate(-77.488 -0.897)" fill="#343434" fill-rule="evenodd"/>
      <path id="Shape-2" data-name="Shape" d="M72.991,25.857l-.35,1.939c4.737-2.065,3.939,1.532,3.939,1.532l-.1.541s-2.777-1.426-4.722.162a2.847,2.847,0,0,0-1.139,2.278,2.944,2.944,0,0,0,1.392,2.335,3.176,3.176,0,0,0,3.733-.661l-.181.822H77.4l1.152-5.466c.865-5.393-5.561-3.482-5.561-3.482Zm3.046,6.508c-2.017,2.07-3.309.714-3.309.714a1.164,1.164,0,0,1,.092-1.726c1.334-1.22,3.376.121,3.376.121l-.159.891Z" transform="translate(-52.729 -19.129)" fill="#343434" fill-rule="evenodd"/>
      <path id="Shape-3" data-name="Shape" d="M55.6,26.669a6.339,6.339,0,0,0-2.854.85l.174-.818H51.122l-1.637,8.971h1.834l1.11-5.9a2.534,2.534,0,0,1,2.849-1.149l.319-1.952Z" transform="translate(-36.976 -19.979)" fill="#343434" fill-rule="evenodd"/>
      <path id="Shape-4" data-name="Shape" d="M12.008,3.255c.093.07.181.144.267.22l1.391-1.092.043-.057a6.359,6.359,0,0,0-.69-.606C9.827-.69,5,.319,2.243,3.975s-2.406,8.571.788,10.982c2.608,1.968,6.3,1.656,9.072-.514l0-.006L10.775,13.4a5.609,5.609,0,0,1-6.441.025C1.881,11.571,1.61,7.794,3.729,4.987S9.555,1.4,12.008,3.255Z" transform="translate(-0.384 -0.41)" fill="#343434" fill-rule="evenodd"/>
      <path id="Shape-5" data-name="Shape" d="M158.835,28.834a3.668,3.668,0,0,1,1.186-.818,3.765,3.765,0,0,1,1.532-.3,3.832,3.832,0,0,1,1.332.22,5.794,5.794,0,0,1,1.122.556l.356-.525a5.952,5.952,0,0,0-1.29-.619,4.665,4.665,0,0,0-1.521-.241,4.392,4.392,0,0,0-3.2,1.333,4.361,4.361,0,0,0-.923,1.447,4.809,4.809,0,0,0-.325,1.773,4.59,4.59,0,0,0,.336,1.762,4.475,4.475,0,0,0,.923,1.427,4.2,4.2,0,0,0,1.406.954,4.525,4.525,0,0,0,1.783.346,4.665,4.665,0,0,0,1.521-.241,5.912,5.912,0,0,0,1.29-.619l-.356-.525a5.793,5.793,0,0,1-1.122.556,3.833,3.833,0,0,1-1.332.22,3.765,3.765,0,0,1-1.532-.3,3.515,3.515,0,0,1-1.186-.839,3.824,3.824,0,0,1-.765-1.259,4.334,4.334,0,0,1-.273-1.542,4.248,4.248,0,0,1,.273-1.531,3.62,3.62,0,0,1,.765-1.228Z" transform="translate(-117.179 -20.303)" fill="#343434" fill-rule="evenodd"/>
      <path id="Shape-6" data-name="Shape" d="M204.2,27.806a2.247,2.247,0,0,0-.839-.535,2.957,2.957,0,0,0-1-.168,3.783,3.783,0,0,0-2.035.587,6.062,6.062,0,0,0-1.574,1.385,2.412,2.412,0,0,0-.9-1.49A2.594,2.594,0,0,0,196.3,27.1a3.491,3.491,0,0,0-1.049.157,4.5,4.5,0,0,0-.934.409,5.437,5.437,0,0,0-.808.577,6.7,6.7,0,0,0-.672.661V27.271h-.65v8.707h.671V29.621a7.9,7.9,0,0,1,1.543-1.343,3.2,3.2,0,0,1,1.793-.545q2.056,0,2.056,2.392v5.853h.671V29.726a5.77,5.77,0,0,1,1.531-1.448,3.321,3.321,0,0,1,1.8-.545q2.056,0,2.056,2.392v5.853h.671V30.061a3.785,3.785,0,0,0-.21-1.332,2.566,2.566,0,0,0-.577-.923Z" transform="translate(-143.324 -20.303)" fill="#343434" fill-rule="evenodd"/>
      <path id="Shape-7" data-name="Shape" d="M254.362,32.556a2.677,2.677,0,0,0-.85-.724,7.574,7.574,0,0,0-1.1-.493,10.518,10.518,0,0,1-1.1-.462,2.8,2.8,0,0,1-.85-.619,1.42,1.42,0,0,1-.336-1,1.524,1.524,0,0,1,.493-1.1,2.041,2.041,0,0,1,1.5-.493,3.227,3.227,0,0,1,1.122.189,4.382,4.382,0,0,1,1.08.609l.315-.525a4.659,4.659,0,0,0-1.206-.629,4.064,4.064,0,0,0-1.311-.21,3.039,3.039,0,0,0-1.112.189,2.519,2.519,0,0,0-.818.5,2.211,2.211,0,0,0-.514.714,1.981,1.981,0,0,0-.178.818,1.888,1.888,0,0,0,.336,1.175,2.8,2.8,0,0,0,.85.734,6.823,6.823,0,0,0,1.1.5,9.45,9.45,0,0,1,1.1.472,2.962,2.962,0,0,1,.85.629,1.422,1.422,0,0,1,.336,1,1.591,1.591,0,0,1-.567,1.238,2.19,2.19,0,0,1-1.511.5,3.6,3.6,0,0,1-1.406-.273,6.9,6.9,0,0,1-1.258-.693l-.315.5a6.778,6.778,0,0,0,1.405.745,4.342,4.342,0,0,0,1.574.283,2.982,2.982,0,0,0,1.123-.2,2.8,2.8,0,0,0,.849-.525,2.2,2.2,0,0,0,.545-.766,2.314,2.314,0,0,0,.189-.923,1.894,1.894,0,0,0-.336-1.175Z" transform="translate(-185.673 -20.301)" fill="#343434" fill-rule="evenodd"/>
    </g>
  </g>
</svg>
