<svg xmlns="http://www.w3.org/2000/svg" width="20.407" height="23.206" viewBox="0 0 20.407 23.206">
  <g id="shopify_monotone_black" transform="translate(0 0)">
    <g id="Group_159" data-name="Group 159">
      <path id="Path_270" data-name="Path 270" d="M72,35.307,78.977,33.8S76.458,16.765,76.44,16.653a.217.217,0,0,0-.205-.187c-.093,0-1.865-.131-1.865-.131s-1.231-1.231-1.38-1.362a.39.39,0,0,0-.112-.075Z" transform="translate(-58.569 -12.121)" fill="#343434"/>
      <path id="Path_271" data-name="Path 271" d="M14.009,2.742c-.019,0-.056.019-.075.019s-.28.075-.69.205C12.834,1.772,12.106.672,10.819.672h-.112A1.6,1.6,0,0,0,9.495,0c-3,0-4.44,3.749-4.887,5.652-1.157.354-2,.616-2.089.653-.653.205-.672.224-.746.839C1.7,7.592,0,20.743,0,20.743l13.114,2.462ZM10.6,3.656v.131c-.728.224-1.53.466-2.313.709A4.009,4.009,0,0,1,10.3,1.623,5.7,5.7,0,0,1,10.6,3.656ZM9.4.8a.657.657,0,0,1,.392.131c-.951.448-2,1.586-2.425,3.861-.634.205-1.25.392-1.828.56C6.044,3.619,7.256.8,9.4.8Zm.522,10.129a4.128,4.128,0,0,0-1.716-.41c-1.4,0-1.455.877-1.455,1.1,0,1.194,3.134,1.66,3.134,4.477a3.311,3.311,0,0,1-3.3,3.638,4.568,4.568,0,0,1-3.432-1.418L3.768,16.3a4.346,4.346,0,0,0,2.2,1.026.9.9,0,0,0,.933-.9c0-1.567-2.574-1.642-2.574-4.216,0-2.164,1.548-4.272,4.7-4.272a3.793,3.793,0,0,1,1.809.354Zm1.194-9.439c.672.075,1.1.839,1.38,1.7-.336.112-.709.224-1.119.354V3.3A5.543,5.543,0,0,0,11.118,1.492Z" transform="translate(0 0)" fill="#343434"/>
    </g>
  </g>
</svg>
