<svg xmlns="http://www.w3.org/2000/svg" xmlns:xlink="http://www.w3.org/1999/xlink" width="662.837" height="502.153" viewBox="0 0 662.837 502.153">
  <defs>
    <filter id="Rectangle_988" x="116.875" y="115.018" width="519.684" height="356.808" filterUnits="userSpaceOnUse">
      <feOffset dy="3" input="SourceAlpha"/>
      <feGaussianBlur stdDeviation="3" result="blur"/>
      <feFlood flood-opacity="0.161"/>
      <feComposite operator="in" in2="blur"/>
      <feComposite in="SourceGraphic"/>
    </filter>
    <filter id="Rectangle_993" x="203.498" y="169.781" width="459.339" height="118.469" filterUnits="userSpaceOnUse">
      <feOffset dy="6" input="SourceAlpha"/>
      <feGaussianBlur stdDeviation="6" result="blur-2"/>
      <feFlood flood-opacity="0.161"/>
      <feComposite operator="in" in2="blur-2"/>
      <feComposite in="SourceGraphic"/>
    </filter>
    <linearGradient id="linear-gradient" x1="146.593" y1="1" x2="146.593" gradientUnits="objectBoundingBox">
      <stop offset="0" stop-color="gray" stop-opacity="0.251"/>
      <stop offset="0.535" stop-color="gray" stop-opacity="0.122"/>
      <stop offset="1" stop-color="gray" stop-opacity="0.102"/>
    </linearGradient>
  </defs>
  <g id="Group_182" data-name="Group 182" transform="translate(-1028.931 -1319.112)">
    <g id="Group_178" data-name="Group 178" transform="translate(-1819.136 -2024.888)">
      <path id="Path_273" data-name="Path 273" d="M212.24,74.868l-36.69,59.969a45.351,45.351,0,0,1-47.319,77.342L89.219,275.942,465.574,506.2,588.6,305.129Z" transform="translate(2758.849 3269.132)" fill="#e1eaeb"/>
      <circle id="Ellipse_33" data-name="Ellipse 33" cx="29.551" cy="29.551" r="29.551" transform="translate(2885.633 3412.444)" fill="#e1eaeb"/>
      <ellipse id="Ellipse_34" data-name="Ellipse 34" cx="104.46" cy="6.872" rx="104.46" ry="6.872" transform="translate(3084.932 3824.1)" fill="#f2f2f2"/>
      <ellipse id="Ellipse_36" data-name="Ellipse 36" cx="104.46" cy="6.872" rx="104.46" ry="6.872" transform="translate(3292.478 3808.293)" fill="#f2f2f2"/>
      <g transform="matrix(1, 0, 0, 1, 2848.07, 3344)" filter="url(#Rectangle_988)">
        <rect id="Rectangle_988-2" data-name="Rectangle 988" width="501.684" height="338.808" transform="translate(125.87 121.02)" fill="#fff"/>
      </g>
      <line id="Line_15" data-name="Line 15" x2="501.684" transform="translate(2973.943 3489.799)" fill="none" stroke="#2f2e41" stroke-miterlimit="10" stroke-width="2"/>
      <circle id="Ellipse_37" data-name="Ellipse 37" cx="6.185" cy="6.185" r="6.185" transform="translate(2983.22 3471.203)" fill="#00ad8f"/>
      <circle id="Ellipse_38" data-name="Ellipse 38" cx="6.185" cy="6.185" r="6.185" transform="translate(3001.776 3471.547)" fill="#00ad8f"/>
      <circle id="Ellipse_39" data-name="Ellipse 39" cx="6.185" cy="6.185" r="6.185" transform="translate(3020.331 3471.891)" fill="#00ad8f"/>
      <rect id="Rectangle_989" data-name="Rectangle 989" width="423.339" height="82.469" transform="translate(3005.212 3512.781)" fill="#0078ad" opacity="0.3"/>
      <line id="Line_16" data-name="Line 16" y1="82.469" x2="423.339" transform="translate(3005.212 3512.781)" fill="none" stroke="#6c63ff" stroke-miterlimit="10" stroke-width="2" opacity="0.3"/>
      <line id="Line_17" data-name="Line 17" x1="423.339" y1="82.469" transform="translate(3005.212 3512.781)" fill="none" stroke="#6c63ff" stroke-miterlimit="10" stroke-width="2" opacity="0.3"/>
      <rect id="Rectangle_990" data-name="Rectangle 990" width="101.024" height="132.637" transform="translate(3005.212 3647.48)" fill="#0078ad" opacity="0.3"/>
      <rect id="Rectangle_991" data-name="Rectangle 991" width="101.024" height="132.637" transform="translate(3327.527 3647.48)" fill="#0078ad" opacity="0.3"/>
      <rect id="Rectangle_992" data-name="Rectangle 992" width="101.024" height="132.637" transform="translate(3166.37 3647.48)" fill="#0078ad" opacity="0.3"/>
      <line id="Line_18" data-name="Line 18" x2="101.024" y2="132.637" transform="translate(3005.212 3647.48)" fill="none" stroke="#6c63ff" stroke-miterlimit="10" stroke-width="2" opacity="0.3"/>
      <line id="Line_19" data-name="Line 19" x1="101.024" y2="132.637" transform="translate(3005.212 3647.48)" fill="none" stroke="#6c63ff" stroke-miterlimit="10" stroke-width="2" opacity="0.3"/>
      <line id="Line_20" data-name="Line 20" x2="101.024" y2="132.637" transform="translate(3166.713 3647.48)" fill="none" stroke="#6c63ff" stroke-miterlimit="10" stroke-width="2" opacity="0.3"/>
      <line id="Line_21" data-name="Line 21" x1="101.024" y2="132.637" transform="translate(3166.713 3647.48)" fill="none" stroke="#6c63ff" stroke-miterlimit="10" stroke-width="2" opacity="0.3"/>
      <line id="Line_22" data-name="Line 22" x2="101.024" y2="132.637" transform="translate(3327.527 3647.48)" fill="none" stroke="#6c63ff" stroke-miterlimit="10" stroke-width="2" opacity="0.3"/>
      <line id="Line_23" data-name="Line 23" x1="101.024" y2="132.637" transform="translate(3327.527 3647.48)" fill="none" stroke="#6c63ff" stroke-miterlimit="10" stroke-width="2" opacity="0.3"/>
      <g transform="matrix(1, 0, 0, 1, 2848.07, 3344)" filter="url(#Rectangle_993)">
        <rect id="Rectangle_993-2" data-name="Rectangle 993" width="423.339" height="82.469" transform="translate(221.5 181.78)" fill="#89c5cc"/>
      </g>
      <rect id="Rectangle_994" data-name="Rectangle 994" width="101.024" height="132.637" transform="translate(3346.77 3679.093)" fill="#89c5cc"/>
      <rect id="Rectangle_995" data-name="Rectangle 995" width="71.473" height="8.247" transform="translate(3361.545 3696.617)" fill="#3f3d56"/>
      <rect id="Rectangle_996" data-name="Rectangle 996" width="71.473" height="8.247" transform="translate(3361.545 3714.485)" fill="#3f3d56"/>
      <rect id="Rectangle_997" data-name="Rectangle 997" width="71.473" height="8.247" transform="translate(3361.545 3732.354)" fill="#3f3d56"/>
      <rect id="Rectangle_998" data-name="Rectangle 998" width="71.473" height="8.247" transform="translate(3361.545 3750.222)" fill="#3f3d56"/>
      <rect id="Rectangle_999" data-name="Rectangle 999" width="71.473" height="8.247" transform="translate(3361.545 3768.09)" fill="#3f3d56"/>
      <rect id="Rectangle_1000" data-name="Rectangle 1000" width="71.473" height="8.247" transform="translate(3361.545 3785.958)" fill="#3f3d56"/>
      <rect id="Rectangle_1001" data-name="Rectangle 1001" width="101.024" height="132.637" transform="translate(3029.953 3665.348)" fill="#89c5cc"/>
      <rect id="Rectangle_1002" data-name="Rectangle 1002" width="71.473" height="8.247" transform="translate(3044.728 3709.675)" fill="#3f3d56"/>
      <rect id="Rectangle_1003" data-name="Rectangle 1003" width="71.473" height="8.247" transform="translate(3044.728 3727.543)" fill="#3f3d56"/>
      <rect id="Rectangle_1004" data-name="Rectangle 1004" width="71.473" height="8.247" transform="translate(3044.728 3745.411)" fill="#3f3d56"/>
      <path id="Path_274" data-name="Path 274" d="M719.052,374.863c0,15.441-9.179,20.833-20.5,20.833q-.393,0-.786-.009c-.525-.011-1.044-.036-1.558-.071-10.22-.723-18.159-6.392-18.159-20.753,0-14.862,18.991-33.615,20.418-35l0,0,.083-.08S719.052,359.422,719.052,374.863Z" transform="translate(2583.091 3199.109)" fill="#0078ad"/>
      <path id="Path_275" data-name="Path 275" d="M703.042,393.334l7.5-10.478-7.518,11.629-.02,1.2c-.525-.011-1.044-.036-1.558-.071l.808-15.449-.006-.12.014-.022.076-1.459L694.8,366.908l7.56,10.563.018.31.611-11.672-6.452-12.046,6.531,10,.636-24.2,0-.083v.08l-.106,19.083,6.423-7.565-6.45,9.209-.17,10.451,6-10.03-6.022,11.568-.095,5.81,8.707-13.96-8.739,15.987Z" transform="translate(2578.335 3199.11)" fill="#89c5cc"/>
      <rect id="Rectangle_1005" data-name="Rectangle 1005" width="101.024" height="132.637" transform="translate(3144.034 3698.335)" fill="#89c5cc"/>
      <rect id="Rectangle_1006" data-name="Rectangle 1006" width="45.358" height="45.358" transform="translate(3171.867 3719.296)" fill="#3f3d56"/>
      <rect id="Rectangle_1007" data-name="Rectangle 1007" width="79.72" height="5.498" transform="translate(3154.687 3774.275)" fill="#3f3d56"/>
      <rect id="Rectangle_1008" data-name="Rectangle 1008" width="79.72" height="5.498" transform="translate(3154.687 3789.395)" fill="#3f3d56"/>
      <rect id="Rectangle_1009" data-name="Rectangle 1009" width="79.72" height="5.498" transform="translate(3154.687 3804.514)" fill="#3f3d56"/>
    </g>
    <g id="Group_181" data-name="Group 181" transform="translate(-219 -31.307)">
      <path id="Path_326" data-name="Path 326" d="M276.368,795.219a.323.323,0,0,0-.068.034c.811-1.752,1.568-3.525,2.257-5.325.082-.211.157-.43.239-.641-.007.055-.007.109-.014.171-.02.341-.048.682-.075,1.03-.041.539-.075,1.084-.082,1.63-.007.17-.007.334-.007.5a9.974,9.974,0,0,0,.2,1.977H278.8c-.17.014-.327.021-.491.048a6.666,6.666,0,0,0-1.861.532.408.408,0,0,0-.075.041Z" transform="translate(1103.121 1036.8)" fill="url(#linear-gradient)"/>
      <path id="Path_327" data-name="Path 327" d="M284.243,397c.073,2.847,1.038,5.605,1.189,8.447-8.385.417-16.655-3.65-24.956-2.4,2.32-1.5,3.561-4.208,4.291-6.872a28.5,28.5,0,0,0,.819-10.559,4.642,4.642,0,0,0-.1-.584c-.308-1.392-1.105-3.363-.892-4.458.282-1.45,1.648-1.163,2.878-1.079a107.815,107.815,0,0,1,11.19,1.444c.965.167,10.361,2.513,10.5,2.268a44.216,44.216,0,0,0-4.067,8.379A16.336,16.336,0,0,0,284.243,397Z" transform="translate(1108.157 1167.223)" fill="#d8ba9f"/>
      <path id="Path_328" data-name="Path 328" d="M409.054,384.068a12.256,12.256,0,0,1-2.56,2.581c-.636.521-1.288,1.053-1.971,1.533a8.453,8.453,0,0,1-4.192,1.705c-2,.136-6.236-1.038-7.477-2.748a4.957,4.957,0,0,1-.714-2.863,13.171,13.171,0,0,1,.688-4,22.316,22.316,0,0,1,3.233-5.85,17.223,17.223,0,0,1,5.2-5.2,20.167,20.167,0,0,1,2.211-1.017c1.3-.532,2.6-1.069,3.906-1.6a1.886,1.886,0,0,1,.709-.188c1.048.01,1.241,1.611.647,2.477-1.189,1.742-3.864,2.226-4.615,4.2a3,3,0,0,1,2.784,2.159,1.526,1.526,0,0,0,.375.871c.344.276.881.12,1.272.328.693.37.391,1.4.464,2.185a10.219,10.219,0,0,0,.714,1.966,4.177,4.177,0,0,1-.673,3.462Z" transform="translate(1066.264 1171.357)" fill="#d8ba9f"/>
      <path id="Path_329" data-name="Path 329" d="M247.432,804.793a2.974,2.974,0,0,1,2.6-.393,96.5,96.5,0,0,0,14.625,1.183c.613-2.994-1.167-5.9-1.74-8.907a8.036,8.036,0,0,0-.579-2.252c-.69-1.323-2.246-1.929-3.706-2.237-2.636-.556-6.756-1.537-8.228,1.128C248.639,796.512,248.074,801.234,247.432,804.793Z" transform="translate(1112.307 1036.083)" fill="#65617d"/>
      <path id="Path_330" data-name="Path 330" d="M311.284,787.717a15.438,15.438,0,0,1-6.841,2.086,21.9,21.9,0,0,0-7.013,1.6c-1.867.923-3.441,2.435-5.418,3.1a11.286,11.286,0,0,1-5.626.089c-2.221-.417-4.589-1.225-5.788-3.144-1.069-1.705-.954-3.869-.808-5.877q.258-3.4.506-6.815a3.245,3.245,0,0,1,.422-1.648c1.606-2.341,5.512.98,7.6.975a14.7,14.7,0,0,0,9.255-3.994,2.814,2.814,0,0,1,.72-.542c.944-.422,1.888.36,2.727,1.043.094.078.188.156.282.229,1.935,1.533,4.531,1.846,6.919,2.466s4.954,1.872,5.694,4.229a3.607,3.607,0,0,1,.115.454A5.971,5.971,0,0,1,311.284,787.717Z" transform="translate(1102.041 1041.848)" fill="#3f3d56"/>
      <path id="Path_331" data-name="Path 331" d="M311.284,787.717a15.438,15.438,0,0,1-6.841,2.086,21.9,21.9,0,0,0-7.013,1.6c-1.867.923-3.441,2.435-5.418,3.1a11.286,11.286,0,0,1-5.626.089c-2.221-.417-4.589-1.225-5.788-3.144-1.069-1.705-.954-3.869-.808-5.877q.258-3.4.506-6.815a3.245,3.245,0,0,1,.422-1.648c1.606-2.341,5.512.98,7.6.975a14.7,14.7,0,0,0,9.255-3.994,2.814,2.814,0,0,1,.72-.542c.944-.422,1.888.36,2.727,1.043.094.078.188.156.282.229,1.935,1.533,4.531,1.846,6.919,2.466s4.954,1.872,5.694,4.229a3.607,3.607,0,0,1,.115.454A5.971,5.971,0,0,1,311.284,787.717Z" transform="translate(1102.041 1041.848)" fill="#2f2e41"/>
      <path id="Path_332" data-name="Path 332" d="M311.284,788.48a15.438,15.438,0,0,1-6.841,2.086,21.9,21.9,0,0,0-7.013,1.6c-1.867.923-3.441,2.435-5.418,3.1a11.29,11.29,0,0,1-5.626.089,9.289,9.289,0,0,1-5.788-3.907c-1.069-1.705-.954-3.869-.808-5.876q.258-3.4.506-6.815a3.245,3.245,0,0,1,.422-1.648c1.606-2.341,5.512.98,7.6.975a14.7,14.7,0,0,0,9.255-3.994,2.811,2.811,0,0,1,.72-.542c.944-.422,1.888.36,2.727,1.043a19.591,19.591,0,0,1-2.326,4.808,10.006,10.006,0,0,1-7.295,4.563c-1.481.109-3-.182-4.432.2s-2.764,1.846-2.258,3.238c.5,1.356,2.247,1.653,3.692,1.731a16.4,16.4,0,0,0,6.017-.422c1.173-.391,2.247-1.038,3.389-1.512,4.854-2.013,10.987-.886,15-4.286a8.887,8.887,0,0,1,1.225-.939C315.082,784.163,313.145,787.208,311.284,788.48Z" transform="translate(1102.041 1041.848)" fill="#e8eaf2"/>
      <path id="Path_333" data-name="Path 333" d="M311.284,788.48a15.438,15.438,0,0,1-6.841,2.086,21.9,21.9,0,0,0-7.013,1.6c-1.867.923-3.441,2.435-5.418,3.1a11.29,11.29,0,0,1-5.626.089,9.289,9.289,0,0,1-5.788-3.907c-1.069-1.705-.954-3.869-.808-5.876q.258-3.4.506-6.815a3.245,3.245,0,0,1,.422-1.648c1.606-2.341,5.512.98,7.6.975a14.7,14.7,0,0,0,9.255-3.994,2.811,2.811,0,0,1,.72-.542c.944-.422,1.888.36,2.727,1.043a19.591,19.591,0,0,1-2.326,4.808,10.006,10.006,0,0,1-7.295,4.563c-1.481.109-3-.182-4.432.2s-2.764,1.846-2.258,3.238c.5,1.356,2.247,1.653,3.692,1.731a16.4,16.4,0,0,0,6.017-.422c1.173-.391,2.247-1.038,3.389-1.512,4.854-2.013,10.987-.886,15-4.286a8.887,8.887,0,0,1,1.225-.939C315.082,784.163,313.145,787.208,311.284,788.48Z" transform="translate(1102.041 1041.848)" opacity="0.05"/>
      <path id="Path_334" data-name="Path 334" d="M248.484,573.53a29.851,29.851,0,0,0,4.091,22.026,41.128,41.128,0,0,1,3.325,5.332,24.236,24.236,0,0,1,1.3,4.226l3.685,15.254c.995,4.118,2,8.316,1.7,12.542-.208,2.945-.95,6.255.864,8.584a6.325,6.325,0,0,1,1.1,1.5,3.807,3.807,0,0,1,.018,1.982c-1.865,11.075-3.247,22.653.121,33.367,3.052,9.711,3.227,20.471,5.822,30.313a6.761,6.761,0,0,0,1.612,3.362,5.285,5.285,0,0,0,2.417,1.149c3.825.91,7.864-.156,11.431-1.809,2.507-1.162,5.206-3.2,4.991-5.954a12.072,12.072,0,0,0-1.387-3.666c-1.019-2.368-1.1-5.013-1.376-7.577-.69-6.436-2.675-12.651-4.174-18.948s-2.518-12.877-1.25-19.225a168.175,168.175,0,0,1,12.368-38.05,4.588,4.588,0,0,1,1.133-1.7,11.72,11.72,0,0,0,1.6-1.095,4.838,4.838,0,0,0,.734-1.995c.558-2.009,2.215-3.492,3.326-5.256,2.8-4.456,1.916-10.167,1.812-15.431-.1-5.119.636-10.285-.2-15.335s-3.733-10.213-8.6-11.8a18.512,18.512,0,0,0-7.543-.356C274.025,566.3,261.032,568.726,248.484,573.53Z" transform="translate(1112.164 1108.244)" fill="#2f2e41"/>
      <path id="Path_335" data-name="Path 335" d="M248.484,573.53a29.851,29.851,0,0,0,4.091,22.026,41.128,41.128,0,0,1,3.325,5.332,24.236,24.236,0,0,1,1.3,4.226l3.685,15.254c.995,4.118,2,8.316,1.7,12.542-.208,2.945-.95,6.255.864,8.584a6.325,6.325,0,0,1,1.1,1.5,3.807,3.807,0,0,1,.018,1.982c-1.865,11.075-3.247,22.653.121,33.367,3.052,9.711,3.227,20.471,5.822,30.313a6.761,6.761,0,0,0,1.612,3.362,5.285,5.285,0,0,0,2.417,1.149c3.825.91,7.864-.156,11.431-1.809,2.507-1.162,5.206-3.2,4.991-5.954a12.072,12.072,0,0,0-1.387-3.666c-1.019-2.368-1.1-5.013-1.376-7.577-.69-6.436-2.675-12.651-4.174-18.948s-2.518-12.877-1.25-19.225a168.175,168.175,0,0,1,12.368-38.05,4.588,4.588,0,0,1,1.133-1.7,11.72,11.72,0,0,0,1.6-1.095,4.838,4.838,0,0,0,.734-1.995c.558-2.009,2.215-3.492,3.326-5.256,2.8-4.456,1.916-10.167,1.812-15.431-.1-5.119.636-10.285-.2-15.335s-3.733-10.213-8.6-11.8a18.512,18.512,0,0,0-7.543-.356C274.025,566.3,261.032,568.726,248.484,573.53Z" transform="translate(1112.164 1108.244)" opacity="0.1"/>
      <path id="Path_336" data-name="Path 336" d="M302.2,606.785a31.967,31.967,0,0,1-.673,5.918q-3.535,19.828-7.535,39.572c-.235,1.142-.464,2.284-.772,3.4a27.613,27.613,0,0,1-5.1,10.043c-11.112,13.849-12.071,33.961-18.1,50.663-.407,1.132-.813,2.263-1.246,3.379a84.382,84.382,0,0,1-3.718,8.3,2.371,2.371,0,0,1-.767.991,2.273,2.273,0,0,1-1.21.235,35.311,35.311,0,0,1-15.659-3.561,3.243,3.243,0,0,1-1.663-1.382,3.342,3.342,0,0,1-.177-1.59c.167-3.311.37-6.742,1.95-9.652a20.594,20.594,0,0,1,3.859-4.677,177.371,177.371,0,0,1,3.78-30.952c1.173-5.188,2.623-10.434,5.637-14.819,2.221-3.238,5.407-6.435,5.016-10.34-.172-1.715-.892-3.853.506-4.86.61-.443,1.512-.5,1.924-1.132a2.147,2.147,0,0,0,.271-.97,23.949,23.949,0,0,0-.5-8.015,42.271,42.271,0,0,1-1.194-5.225,6.587,6.587,0,0,1,1.314-5.047c.073-3.567-.026-7.269.047-10.83a20.085,20.085,0,0,0-.5-6.049c-.271-.933-.683-1.825-.892-2.779-.746-3.426,1.116-7.529-1.1-10.246-.923-1.126-2.346-1.689-3.556-2.5a13.05,13.05,0,0,1-4.881-7.019,38.738,38.738,0,0,1-1.382-8.593,8.84,8.84,0,0,1-.021-1.856,3.4,3.4,0,0,1,.25-.928c.688-1.549,2.539-2.148,4.187-2.545a135.589,135.589,0,0,1,31.974-3.739c3.984-2.711,6.226-1.742,7.915,1.131a29.693,29.693,0,0,1,2.253,5.5c.772,2.331.819,15.377,1.569,17.718C304.987,597.373,302.166,603.588,302.2,606.785Z" transform="translate(1112.906 1107.094)" fill="#2f2e41"/>
      <path id="Path_337" data-name="Path 337" d="M222.829,448.6c-.3,2.053.691,4.07.8,6.141a23.158,23.158,0,0,1-.81,5.359c-1.286,6.954,1.185,14,3.7,20.608a10.62,10.62,0,0,1,.878,3.389c.067,2.157-1.175,4.134-1.516,6.266-.715,4.479,2.589,8.692,2.657,13.227.032,2.088-.626,4.213-.1,6.235a22.034,22.034,0,0,0,1.789,3.768c1.059,2.231,1.343,4.762,2.354,7.015,1.827,4.072,5.751,6.73,9.486,9.173,2.125-.708,4.422-1.549,5.589-3.462a8.576,8.576,0,0,0,.976-3.036,79.059,79.059,0,0,0,.749-14.085,86.852,86.852,0,0,0-.644-12.124c-.754-5.115-2.414-10.047-3.6-15.079-1.5-6.346-2.271-12.9-4.61-18.99a64.6,64.6,0,0,0-8.627-14.751c-1.286-1.755-2.3-4.263-4.8-3.858a5.232,5.232,0,0,0-4.266,4.2Z" transform="translate(1120.251 1146.558)" fill="#318993"/>
      <circle id="Ellipse_43" data-name="Ellipse 43" cx="19.363" cy="19.363" r="19.363" transform="translate(1369.268 1520.113)" fill="#d8ba9f"/>
      <path id="Path_339" data-name="Path 339" d="M281.034,412.805c-.844.977-1.977,2.053-3.229,1.738a4.413,4.413,0,0,1-1.257-.673c-2.232-1.439-4.972-1.776-7.6-2.172a112.092,112.092,0,0,1-15.647-3.518,15.961,15.961,0,0,0-4.628-.941c-3.282.017-6.19,2.2-8.247,4.756s-3.514,5.55-5.532,8.138c-1.438,1.844-3.15,3.469-4.493,5.383-3.39,4.833-4.119,11.138-3.243,16.976s3.208,11.343,5.519,16.774a58.289,58.289,0,0,0,4.506,9.086,21.634,21.634,0,0,0,1.741,13.487,13.319,13.319,0,0,1,1.756,4.009,10.034,10.034,0,0,1-.122,2.94l-.985,7.01c-.3,2.135-.6,4.27-.989,6.39-.711,3.88-1.676,8.092.121,11.6,2.152,4.206-.108,9.6.457,14.286a71.863,71.863,0,0,1,18.868-4.483c4.161-.408,8.4-.459,12.414-1.627,2.507-.729,4.885-1.884,7.43-2.466a34.266,34.266,0,0,1,6.265-.64,74.12,74.12,0,0,1,13.905.311c.372.055.825.085,1.048-.218a.98.98,0,0,0,.14-.547,9.259,9.259,0,0,0-1.187-4.929c-.586-1.033-1.4-2.044-1.377-3.232a4.909,4.909,0,0,1,.4-1.6l2.035-5.427c1.718-4.582.9-9.9,1.793-14.715a86.393,86.393,0,0,0,1.338-11.383c.165-3.265.063-6.8-1.907-9.409a10.816,10.816,0,0,1-1.488-2.07,6.283,6.283,0,0,1-.354-2.475q-.066-9.8.538-19.589c-1.718-3.085-3.509-6.241-5.227-9.326-2-3.591-4.026-7.255-4.834-11.285-.534-2.667-.516-5.414-.9-8.108a3.541,3.541,0,0,0-.685-1.893,3.446,3.446,0,0,0-2.756-.819A12.2,12.2,0,0,0,281.034,412.805Z" transform="translate(1118.865 1158.367)" fill="#3ea6b2"/>
      <path id="Path_340" data-name="Path 340" d="M313.486,438.5a13.651,13.651,0,0,0,4.079,3.848,13.089,13.089,0,0,0,6.356.975,151.882,151.882,0,0,0,26.56-2.918,16.592,16.592,0,0,0,2.925-.784,15.4,15.4,0,0,0,2.956-1.844,37.822,37.822,0,0,0,7.993-6.972,23.44,23.44,0,0,0,4.738-11.62c2.084-1.92,3.19-4.648,4.233-7.283a11.12,11.12,0,0,0,.965-3.537c.056-1.253-.774-2.565-.544-3.8a10.037,10.037,0,0,1,3.072-5.527,2.015,2.015,0,0,0,.731-.971,1.565,1.565,0,0,0-.174-.947,7.315,7.315,0,0,0-5.044-3.787,21.649,21.649,0,0,0-6.5-.258,15.188,15.188,0,0,0-2.129.565l-1.514,3.987a5.158,5.158,0,0,1-.989,1.819,9.29,9.29,0,0,1-1.075.841,6.149,6.149,0,0,0-2.131,5.374,5.775,5.775,0,0,0-3.415,7.128,6.8,6.8,0,0,0-4.993,4.4,3.287,3.287,0,0,1-.652,1.368,2.655,2.655,0,0,1-1.743.536c-1.711.106-3.207,1.453-4.758.722a9.672,9.672,0,0,0-5.651-.79,4.257,4.257,0,0,1-1.206.107,3.185,3.185,0,0,1-.989-.345,7.915,7.915,0,0,0-2.243-.883,2.1,2.1,0,0,0-2.128.822c-.543-.6-.867-1.358-1.361-1.994a2.183,2.183,0,0,0-2.064-.985c.515-.459-.012-1.373-.682-1.54a8.735,8.735,0,0,0-2.06.075c-1.791-.009-3.165-1.635-4.9-2.061-1.6-.391-3.73.075-4.55-1.352-.291-.506-.347-1.193-.842-1.5a1.625,1.625,0,0,0-1.08-.125,10.559,10.559,0,0,0-3.267.992c-1.677,6.558-.8,13.369.481,20.017a17.659,17.659,0,0,0,3.6,8.251Z" transform="translate(1092.881 1162.916)" fill="#3ea6b2"/>
      <path id="Path_341" data-name="Path 341" d="M275.63,406.459a19.586,19.586,0,0,0-6.93-2.281,14.6,14.6,0,0,0-4.409-.317c-1.363.17-2.671.7-4.043.773-1.925.107-3.771-.674-5.63-1.182s-4.008-.7-5.573.422a2.407,2.407,0,0,1-1.213.644,2.122,2.122,0,0,1-1.254-.615,7.144,7.144,0,0,0-8.9.469c-3.55,3.329-3.148,9.833-7.309,12.358-1.147.7-2.613,1.064-3.282,2.226a8.229,8.229,0,0,1-.566,1.071,2.9,2.9,0,0,1-1,.713,19.44,19.44,0,0,0-3.429,1.971,4.9,4.9,0,0,0-1.974,3.309,6.234,6.234,0,0,0,.606,2.783,26.109,26.109,0,0,0,25.373,16.224,4.016,4.016,0,0,0,2.658-.829,5.016,5.016,0,0,0,.932-1.534c1.956-4.1,5.629-7.129,7.962-11.028,1.39-2.324,2.283-4.923,3.73-7.212,2.194-3.47,5.53-6.033,8.8-8.52,1.842-1.4,3.892-2.875,6.205-2.776,2.062.088,3.562.2,2.806-2.33a8.1,8.1,0,0,0-3.551-4.337Z" transform="translate(1121 1159.854)" fill="#318993"/>
      <path id="Path_343" data-name="Path 343" d="M292.3,812.677a10.806,10.806,0,0,1-5.2,2.289,93.8,93.8,0,0,1-12.952,1.6c-1.408.1-2.821.214-4.229.323-4.13.313-8.265.631-12.41.647a85.6,85.6,0,0,1-15.262-1.319,1.295,1.295,0,0,1-1.392-1.549,73.94,73.94,0,0,1,1.877-15.32c.48-2.065,4.182,2.566,4.349,2.758a4.232,4.232,0,0,0,3.363,1.789c4.26.235,9.031-2.357,12.415-4.662a15.872,15.872,0,0,1,2.3-1.423,6.758,6.758,0,0,1,1.862-.532,11.239,11.239,0,0,1,6.335,1.283c2.545,1.262,4.776,3.076,7.295,4.375a20.5,20.5,0,0,0,6.539,2.07c2.3.318,5.058.469,6.242,2.466a.019.019,0,0,1,.005.016C294.4,809.141,293.694,811.373,292.3,812.677Z" transform="translate(1114.411 1034.272)" fill="#2f2e41"/>
      <path id="Path_344" data-name="Path 344" d="M291.953,813.462a10.808,10.808,0,0,1-5.2,2.289,93.8,93.8,0,0,1-12.952,1.6c-1.408.1-2.821.214-4.229.323-4.13.313-8.265.631-12.41.647A85.584,85.584,0,0,1,241.895,817a1.684,1.684,0,0,1-1.21-.584,6.767,6.767,0,0,1-.946-1.728c.089-5.152,1.483-10.3,2.64-15.32.48-2.065,4.182,2.565,4.349,2.758a4.232,4.232,0,0,0,3.363,1.789c4.26.235,9.031-2.357,12.415-4.662a15.894,15.894,0,0,1,2.3-1.424,6.766,6.766,0,0,1,1.862-.532c-.548,3.066-4.943,6.768-7.211,7.894-4.589,2.279-10.043,1.142-15.163,1.408a2.114,2.114,0,0,0-1.074.261c-.615.407-.652,1.277-.631,2.013.042,1.22.2,2.654,1.257,3.275a3.627,3.627,0,0,0,1.7.355,240.416,240.416,0,0,0,37.809-1.324,20.793,20.793,0,0,0,6.158-1.371,15.939,15.939,0,0,0,3.572-2.3C294.7,808.777,293.35,812.158,291.953,813.462Z" transform="translate(1114.755 1034.25)" fill="#e8eaf2"/>
      <path id="Path_345" data-name="Path 345" d="M287,359.082c-.073,2,1.293,5.887-2.451,4.8-2.232-.647-2.863-3.29-5.694-2.7-2.858.6-3.483,4.078-4.443,6.361a12.173,12.173,0,0,1-8.823,7.128,5.312,5.312,0,0,1-2.43-.005c-1.825-.521-2.868-2.4-3.614-4.151a32.564,32.564,0,0,1-1.6-4.557,19.238,19.238,0,0,1-.579-3.342v-.005a14.868,14.868,0,0,1-.01-2.31c.339-4.552,2.931-8.7,6.247-11.842s7.347-5.407,11.326-7.644a16.538,16.538,0,0,1,4.177-1.862,14.058,14.058,0,0,1,4.411-.182,15.4,15.4,0,0,1,5.611,1.319,7.9,7.9,0,0,1,1.976,1.387,5.941,5.941,0,0,1,1.71,2.857c.72,2.941-1.158,5.59-2.68,7.915C288.781,354.316,287.1,356.506,287,359.082Z" transform="translate(1109.161 1180.184)" fill="#2f2e41"/>
      <path id="Path_346" data-name="Path 346" d="M287.209,345.8a17.076,17.076,0,0,1-1.147,1.637,19.368,19.368,0,0,1-2.649,2.743,22.059,22.059,0,0,1-1.789,1.4,28.148,28.148,0,0,1-3.614,2.159,66.551,66.551,0,0,1-11.565,4.145q-3.864,1.126-7.733,2.247c-2.7,2.039-11.727,8.729-13.244,7.895-1.788-.986,8.012-7.924,8.012-7.924l.451.342c-1.434-.9-2.185-2.993-2.508-4.8a24.162,24.162,0,0,1-.078-9.8,11.6,11.6,0,0,1,5.621-7.738c1.3-.667,2.873-1.121,3.812-2.148a2.706,2.706,0,0,0,.37-.5,1.641,1.641,0,0,0,.146-.266,3.611,3.611,0,0,1,.412-.8c.537-.621,1.512-.433,2.326-.334.089.01.172.021.261.026a4.107,4.107,0,0,0,.438.021c2.9.063,5.72-1.554,8.661-1.554,3.222-.005,5.965,1.862,8.8,3.134.574.261,1.116.5,1.627.735,2.049.954,3.593,1.971,4.437,4.683A5.925,5.925,0,0,1,287.209,345.8Z" transform="translate(1113.001 1182.133)" fill="#3ea6b2"/>
      <path id="Path_347" data-name="Path 347" d="M257.6,372.838a3.578,3.578,0,0,0,1.338.5,4.313,4.313,0,0,0,3.568-.535Z" transform="translate(1109.07 1169.326)" opacity="0.1"/>
    </g>
  </g>
</svg>
